<svg xmlns="http://www.w3.org/2000/svg" width="312" height="120"><rect x="0" y="0" width="312" height="32" fill="rgb(255,255,255)" stroke="rgb(0,0,0)"/><text x="156.0" y="23" fill="rgb(0, 0, 0)" font-family="Helvetica" font-size="24px" text-anchor="middle" font-weight="bold">dipswitch 1</text><rect x="0" y="32" width="312" height="88" fill="rgb(255,255,255)" stroke="rgb(0,0,0)"/><text x="38" y="56" fill="rgb(0, 0, 0)" font-family="Helvetica" font-size="16px" text-anchor="end">ON</text><text x="38" y="88" fill="rgb(0, 0, 0)" font-family="Helvetica" font-size="16px" text-anchor="end">OFF</text><rect x="44" y="48" width="24" height="40" fill="rgb(255, 255, 255)" stroke="rgb(0,0,0)"/><rect x="46" y="74" width="20" height="12" fill="#000000" stroke="none" /><text x="56" y="112" fill="rgb(0, 0, 0)" font-family="Helvetica" font-size="24px" text-anchor="middle" font-weight="bold">1</text><rect x="76" y="48" width="24" height="40" fill="rgb(255, 255, 255)" stroke="rgb(0,0,0)"/><rect x="78" y="50" width="20" height="12" fill="#000000" stroke="none" /><text x="88" y="112" fill="rgb(0, 0, 0)" font-family="Helvetica" font-size="24px" text-anchor="middle" font-weight="bold">2</text><rect x="108" y="48" width="24" height="40" fill="rgb(255, 255, 255)" stroke="rgb(0,0,0)"/><rect x="110" y="50" width="20" height="12" fill="#000000" stroke="none" /><text x="120" y="112" fill="rgb(0, 0, 0)" font-family="Helvetica" font-size="24px" text-anchor="middle" font-weight="bold">3</text><rect x="140" y="48" width="24" height="40" fill="rgb(255, 255, 255)" stroke="rgb(0,0,0)"/><rect x="142" y="50" width="20" height="12" fill="#000000" stroke="none" /><text x="152" y="112" fill="rgb(0, 0, 0)" font-family="Helvetica" font-size="24px" text-anchor="middle" font-weight="bold">4</text><rect x="172" y="48" width="24" height="40" fill="rgb(255, 255, 255)" stroke="rgb(0,0,0)"/><rect x="174" y="50" width="20" height="12" fill="#000000" stroke="none" /><text x="184" y="112" fill="rgb(0, 0, 0)" font-family="Helvetica" font-size="24px" text-anchor="middle" font-weight="bold">5</text><rect x="204" y="48" width="24" height="40" fill="rgb(255, 255, 255)" stroke="rgb(0,0,0)"/><rect x="206" y="50" width="20" height="12" fill="#000000" stroke="none" /><text x="216" y="112" fill="rgb(0, 0, 0)" font-family="Helvetica" font-size="24px" text-anchor="middle" font-weight="bold">6</text><rect x="236" y="48" width="24" height="40" fill="rgb(255, 255, 255)" stroke="rgb(0,0,0)"/><rect x="238" y="50" width="20" height="12" fill="#000000" stroke="none" /><text x="248" y="112" fill="rgb(0, 0, 0)" font-family="Helvetica" font-size="24px" text-anchor="middle" font-weight="bold">7</text><rect x="268" y="48" width="24" height="40" fill="rgb(255, 255, 255)" stroke="rgb(0,0,0)"/><rect x="270" y="50" width="20" height="12" fill="#000000" stroke="none" /><text x="280" y="112" fill="rgb(0, 0, 0)" font-family="Helvetica" font-size="24px" text-anchor="middle" font-weight="bold">8</text></svg>