<svg version="1.1" id="Layer_1" xmlns="http://www.w3.org/2000/svg" xmlns:xlink="http://www.w3.org/1999/xlink" x="0px" y="0px" width="100%" viewBox="0 0 1638 940" enable-background="new 0 0 1638 940" xml:space="preserve">

<path fill="#E3ADF5" opacity="1.000000" stroke="none" d="
M834.000732,433.120575 
	C1044.769897,433.120575 1255.039185,433.120575 1465.713379,433.120575 
	C1465.713379,508.356476 1465.713379,583.242371 1465.713379,658.602478 
	C1249.147217,658.602478 1032.487427,658.602478 815.499939,658.602478 
	C815.499939,583.525391 815.499939,508.632202 815.499939,433.120575 
	C821.623108,433.120575 827.562012,433.120575 834.000732,433.120575 
M1139.500000,646.029358 
	C1172.903687,646.029358 1206.307373,646.029358 1240.149658,646.029358 
	C1240.149658,643.735046 1240.149414,642.263855 1240.149536,640.792725 
	C1240.156982,577.665100 1240.113525,514.537415 1240.277100,451.410217 
	C1240.289062,446.792572 1238.741455,445.963959 1234.540161,445.972290 
	C1171.912476,446.096222 1109.284424,446.056854 1046.656494,446.071686 
	C1044.892212,446.072113 1043.128052,446.245514 1041.314941,446.340820 
	C1041.314941,513.086731 1041.314941,579.281982 1041.314941,646.029419 
	C1073.956909,646.029419 1106.228394,646.029419 1139.500000,646.029358 
M1275.500000,646.013184 
	C1334.547241,646.013184 1393.594360,646.013184 1452.671631,646.013184 
	C1452.671631,578.976074 1452.671631,512.779724 1452.671631,446.484070 
	C1386.282349,446.484070 1320.276733,446.484070 1254.242188,446.484070 
	C1254.242188,513.109070 1254.242188,579.304504 1254.242188,646.013245 
	C1261.245117,646.013245 1267.872559,646.013245 1275.500000,646.013184 
M913.500000,646.033936 
	C951.559204,646.033936 989.618408,646.033936 1027.565063,646.033936 
	C1027.565063,578.898499 1027.565063,512.686096 1027.565063,446.066620 
	C1025.668213,446.066620 1024.193604,446.066620 1022.719055,446.066620 
	C959.738892,446.066528 896.758545,446.121948 833.778809,445.958313 
	C828.869873,445.945557 828.037170,447.765228 828.043945,452.086212 
	C828.142456,514.732971 828.098877,577.379944 828.089417,640.026855 
	C828.089111,641.811035 828.089355,643.595154 828.089355,646.033997 
	C856.633911,646.033997 884.566956,646.033997 913.500000,646.033936 
z" data-index="1" style="opacity: 1;"></path>
<path fill="#F8F8F8" opacity="1.000000" stroke="none" d="
M390.520721,348.927307 
	C391.700958,353.103210 394.549744,354.642761 398.090088,354.970062 
	C404.847931,355.594879 411.624725,356.014465 418.666534,356.539642 
	C418.666534,359.047974 418.666534,361.634338 418.666534,364.459656 
	C391.744476,364.459656 364.856934,364.459656 337.658203,364.459656 
	C337.658203,361.906830 337.658203,359.323608 337.658203,356.505402 
	C344.239410,356.067932 350.848602,355.904266 357.383057,355.118835 
	C364.297729,354.287720 365.749207,352.473480 366.467743,345.504272 
	C366.638153,343.851257 366.678619,342.178772 366.678741,340.515228 
	C366.682861,289.354706 366.675964,238.194199 366.659607,187.033676 
	C366.659180,185.723953 366.534393,184.414261 365.549774,182.810410 
	C363.719818,187.288361 361.816925,191.738068 360.071045,196.248566 
	C339.549377,249.266647 319.053375,302.294678 298.538086,355.315216 
	C297.818481,357.174957 297.245941,359.185364 296.102783,360.761414 
	C294.937988,362.367310 293.141449,364.594360 291.641632,364.579041 
	C290.094421,364.563202 287.843506,362.470459 287.152161,360.775757 
	C281.188049,346.155640 275.459564,331.438477 269.750366,316.715485 
	C253.220978,274.089172 236.736176,231.445557 220.215210,188.815979 
	C219.708649,187.508881 218.996124,186.281616 217.745865,183.717224 
	C217.595184,186.629105 217.457809,188.047256 217.457672,189.465424 
	C217.453140,237.293015 217.404877,285.120789 217.563583,332.947906 
	C217.578094,337.322723 218.095322,342.061554 219.830551,345.990295 
	C223.680145,354.706238 232.468430,354.630341 240.289520,355.877136 
	C242.228790,356.186310 244.231552,356.097351 246.481842,356.204559 
	C246.481842,358.986938 246.481842,361.578217 246.481842,364.494141 
	C224.606735,364.494141 202.729843,364.494141 180.531754,364.494141 
	C180.531754,361.942841 180.531754,359.358398 180.531754,356.574829 
	C185.156448,355.924774 189.931595,355.552887 194.567078,354.541077 
	C204.943909,352.276031 209.283661,346.980316 209.328751,336.326172 
	C209.450089,307.663483 209.398682,279.000031 209.409912,250.336868 
	C209.417160,231.839081 209.441895,213.341232 209.405258,194.843521 
	C209.382370,183.292221 207.065994,180.791626 195.517441,180.170761 
	C190.705093,179.912048 185.867249,180.127777 180.629944,180.127777 
	C180.629944,177.044632 180.629944,174.343674 180.629944,171.024902 
	C186.574982,171.024902 192.515305,171.024918 198.455627,171.024918 
	C207.954483,171.024918 217.453354,171.019852 226.952209,171.026459 
	C235.310211,171.032272 235.864029,171.258972 238.829224,178.838181 
	C245.552628,196.023575 252.126785,213.267349 258.765259,230.485992 
	C271.561035,263.675232 284.353912,296.865570 297.174072,330.045410 
	C297.753448,331.544830 298.588959,332.945251 299.778900,335.348572 
	C303.461121,325.892273 306.823364,317.271851 310.175293,308.647491 
	C327.458771,264.177612 344.706238,219.693588 362.146057,175.285080 
	C362.830078,173.543213 365.323822,171.368027 367.007416,171.339386 
	C384.128540,171.048264 401.256531,171.161514 418.653320,171.161514 
	C418.653320,174.043198 418.653320,176.638107 418.653320,180.119293 
	C413.780975,180.119293 408.839844,179.903076 403.923798,180.162384 
	C392.126282,180.784653 389.791748,183.304871 389.788239,195.115845 
	C389.773804,243.776642 389.782959,292.437439 389.819153,341.098206 
	C389.820984,343.582062 390.155151,346.065643 390.520721,348.927307 
z" data-index="2" style="opacity: 1;"></path>
<path fill="#F5F5F5" opacity="1.000000" stroke="none" d="
M1208.749878,277.012024 
	C1172.752808,270.508209 1136.750610,264.032135 1100.759644,257.494354 
	C1040.399902,246.529907 980.047241,235.526566 919.691711,224.538651 
	C871.445007,215.755157 823.198547,206.970291 774.489746,197.726898 
	C774.084106,193.763412 774.140686,190.259018 774.197266,186.754639 
	C807.983337,187.940308 841.767761,189.175827 875.555847,190.301987 
	C964.779663,193.275848 1054.005737,196.179611 1143.229492,199.154510 
	C1221.469482,201.763168 1299.707642,204.430466 1378.436279,207.567932 
	C1379.658081,212.727737 1380.390137,217.391479 1380.832520,222.273590 
	C1334.676025,239.671600 1288.809082,256.851196 1242.719971,273.755524 
	C1241.675171,270.995239 1240.852539,268.510254 1240.357178,265.884155 
	C1284.146240,249.423401 1327.607910,233.103806 1371.069580,216.784210 
	C1367.968384,215.523315 1365.056885,215.324249 1362.142090,215.226242 
	C1309.382080,213.452072 1256.621582,211.686951 1203.861084,209.926224 
	C1124.637695,207.282379 1045.413940,204.641891 966.190430,202.002945 
	C919.755676,200.456207 873.320862,198.915176 826.554993,197.170151 
	C823.580322,196.968735 820.936707,196.968735 818.293091,196.968735 
	C818.288330,197.270569 818.283569,197.572418 818.278809,197.874252 
	C821.210388,198.226898 824.141968,198.579544 827.480225,198.971100 
	C864.170166,205.670120 900.449585,212.351181 936.737793,218.984711 
	C976.950989,226.335739 1017.167542,233.668762 1057.391113,240.963394 
	C1108.242432,250.185425 1159.102295,259.360809 1209.891113,268.924133 
	C1209.465820,271.865356 1209.107788,274.438690 1208.749878,277.012024 
z" data-index="3" style="opacity: 1;"></path>
<path fill="#F9F9F9" opacity="1.000000" stroke="none" d="
M957.424438,364.864136 
	C936.687073,364.871185 916.396179,364.871185 895.804138,364.871185 
	C895.804138,361.973663 895.804138,359.374786 895.804138,356.483154 
	C900.630371,356.023346 905.512451,355.500214 910.405090,355.109833 
	C914.552551,354.778900 916.724182,352.534210 917.196167,348.506775 
	C917.408936,346.691040 917.693115,344.866699 917.695740,343.045898 
	C917.728088,320.720367 917.918213,298.391663 917.578125,276.071228 
	C917.485718,270.006042 916.244507,263.834900 914.659668,257.946808 
	C912.611389,250.337082 907.187378,246.555481 899.262695,245.976776 
	C884.370056,244.889252 868.794495,254.445389 863.016235,269.203125 
	C860.640320,275.271240 859.101929,282.025177 858.903015,288.519867 
	C858.337219,306.996155 858.583679,325.499908 858.658997,343.992218 
	C858.696289,353.151581 860.051270,354.599426 869.105591,355.667511 
	C872.716370,356.093445 876.383179,356.044342 880.335938,356.225769 
	C880.335938,358.937988 880.335938,361.529236 880.335938,364.493774 
	C859.356812,364.493774 838.348145,364.493774 817.103027,364.493774 
	C817.103027,361.837494 817.103027,359.233765 817.103027,356.464478 
	C821.996033,356.000580 826.905151,355.471893 831.825562,355.089264 
	C835.583984,354.796906 837.560913,352.744232 838.051636,349.156403 
	C838.411133,346.528381 838.843750,343.879272 838.849121,341.238770 
	C838.898621,316.914246 838.888367,292.589508 838.839966,268.264954 
	C838.813232,254.833344 836.864380,252.766663 823.503296,251.655365 
	C821.524414,251.490799 819.536438,251.436401 817.217651,251.313232 
	C817.217651,248.438461 817.217651,245.705856 817.217651,242.491119 
	C830.116394,241.492371 843.129150,240.484787 856.611328,239.440872 
	C856.611328,248.814682 856.611328,257.720703 856.611328,266.626709 
	C868.040283,245.248550 885.513611,236.396988 909.143433,240.211212 
	C923.482056,242.525665 932.977539,250.630417 936.039062,264.967224 
	C940.985352,259.423462 945.435852,253.397079 950.907410,248.515060 
	C962.962708,237.758789 987.127991,235.989258 1000.755310,244.556274 
	C1009.611938,250.124130 1014.858398,258.278687 1015.053040,268.906128 
	C1015.507446,293.717133 1015.690063,318.533325 1015.922729,343.347992 
	C1016.014648,353.148956 1017.057678,354.520752 1026.754639,355.684937 
	C1030.343872,356.115875 1033.991699,356.058411 1037.804565,356.232422 
	C1037.804565,359.082214 1037.804565,361.686432 1037.804565,364.485535 
	C1016.737305,364.485535 995.705627,364.485535 974.424622,364.485535 
	C974.424622,361.806274 974.424622,359.221832 974.424622,356.486420 
	C979.424683,356.017548 984.335754,355.490784 989.258362,355.114868 
	C993.773926,354.770081 995.657532,352.079712 996.003662,347.919586 
	C996.141602,346.261230 996.229309,344.593292 996.230225,342.929688 
	C996.242737,320.604095 996.463806,298.274719 996.089355,275.955353 
	C995.982483,269.584534 994.644775,263.102844 992.951172,256.924316 
	C990.957520,249.651306 985.213562,246.440063 977.899475,245.960083 
	C961.791504,244.902985 945.239258,256.304230 940.353271,272.519226 
	C938.508118,278.642822 937.472595,285.210541 937.320679,291.605530 
	C936.913147,308.756561 937.148926,325.923737 937.195862,343.084320 
	C937.222778,352.912933 938.785217,354.729218 948.402893,355.701111 
	C951.851562,356.049591 955.364868,355.756958 960.064941,355.756958 
	C959.210999,359.298859 958.540955,362.077942 957.424438,364.864136 
z" data-index="4" style="opacity: 1;"></path>
<path fill="#FAFAFA" opacity="1.000000" stroke="none" d="
M669.756714,246.694870 
	C649.264282,242.110626 630.036804,258.234375 626.058594,278.044891 
	C625.051147,283.061676 624.872742,288.302063 624.827026,293.444275 
	C624.681824,309.773773 624.754395,326.105438 624.791138,342.436157 
	C624.816711,353.798920 626.213013,355.255951 637.666809,355.886017 
	C640.473450,356.040375 643.295776,355.909027 646.442932,355.909027 
	C646.442932,358.899231 646.442932,361.489441 646.442932,364.479980 
	C625.561829,364.479980 604.530823,364.479980 583.219116,364.479980 
	C583.219116,361.947449 583.219116,359.343536 583.219116,356.471771 
	C587.966858,356.019226 592.867188,355.468262 597.781433,355.109955 
	C601.791199,354.817596 603.782593,352.621185 604.242859,348.818939 
	C604.522095,346.512024 604.861328,344.190735 604.864990,341.875427 
	C604.903809,317.212585 604.880798,292.549683 604.874634,267.886780 
	C604.874512,267.386841 604.881531,266.886749 604.870605,266.387024 
	C604.623291,255.039551 602.462097,252.742813 591.213379,251.851044 
	C588.570190,251.641479 585.928711,251.409424 583.106140,251.172592 
	C583.106140,248.383347 583.106140,245.757675 583.106140,242.532227 
	C596.085938,241.514313 609.090820,240.494431 622.720459,239.425552 
	C622.720459,248.791153 622.720459,257.788239 622.720459,267.673279 
	C626.197266,262.615387 628.820068,258.261017 631.962219,254.320816 
	C646.794189,235.721558 673.222107,236.577499 687.557739,244.346680 
	C698.018738,250.016006 702.636230,260.092773 702.804077,271.848267 
	C703.144409,295.672699 703.205933,319.501221 703.343506,343.328308 
	C703.401428,353.368439 704.470520,354.714600 714.582458,355.728485 
	C718.025330,356.073669 721.531982,355.783234 725.300232,355.783234 
	C725.300232,358.946594 725.300232,361.539398 725.300232,364.478760 
	C704.250732,364.478760 683.220764,364.478760 661.934082,364.478760 
	C661.934082,361.939636 661.934082,359.324524 661.934082,356.479706 
	C667.003479,355.993896 672.060059,355.503174 677.117920,355.026703 
	C680.602295,354.698425 682.548401,352.711914 683.082520,349.350403 
	C683.446533,347.058899 683.836792,344.737396 683.842346,342.428406 
	C683.895081,320.598541 684.090149,298.764771 683.725403,276.940765 
	C683.618347,270.538269 682.240662,264.071320 680.737488,257.803680 
	C679.430725,252.354919 675.725464,248.510788 669.756714,246.694870 
z" data-index="5"></path>
<path fill="#F7F7F7" opacity="1.000000" stroke="none" d="
M564.887939,329.262695 
	C564.561157,335.873840 564.737183,342.094177 563.793579,348.139771 
	C562.206482,358.308014 553.599182,365.441833 542.856995,366.350281 
	C533.358948,367.153503 524.971191,361.550140 521.301758,351.864563 
	C520.546265,349.870575 520.044983,347.780212 519.286621,345.271393 
	C518.718140,345.792297 518.216248,346.080841 517.957092,346.514465 
	C507.858948,363.413208 493.101501,370.741943 473.777496,367.560974 
	C466.651459,366.387939 459.300964,364.596649 452.897675,361.396790 
	C435.604370,352.755005 431.482483,334.335144 442.574371,318.352325 
	C449.963287,307.705292 460.705750,301.417877 472.716583,298.215118 
	C485.344604,294.847748 498.463501,293.313599 511.378754,291.039917 
	C513.143188,290.729309 514.970276,290.774628 517.054932,290.636108 
	C517.646729,276.299622 517.951599,262.555328 506.466003,251.891541 
	C493.600616,239.946762 467.665894,242.255554 457.666992,256.647064 
	C459.140686,257.005890 460.502472,257.293915 461.839355,257.670380 
	C468.334808,259.499451 472.000671,265.665863 470.905548,272.879852 
	C469.924255,279.343903 464.375641,283.475800 457.137329,283.132599 
	C450.545471,282.820129 445.542419,278.027588 444.987640,271.494141 
	C443.997101,259.828583 451.128723,248.347153 464.360474,242.778137 
	C485.507202,233.877869 505.727753,235.717438 523.847900,250.618423 
	C532.254150,257.531219 536.655334,266.785583 536.763489,277.694489 
	C536.975098,299.023651 536.734680,320.358215 537.076050,341.684235 
	C537.139221,345.631866 538.292297,350.042389 540.388733,353.311707 
	C541.835388,355.567780 545.950195,357.566254 548.547974,357.222961 
	C551.156982,356.878143 554.810608,353.862549 555.456421,351.359497 
	C556.967773,345.501404 557.043518,339.256439 557.515625,333.153809 
	C557.743774,330.205078 557.554993,327.224030 557.554993,324.003113 
	C560.038391,324.003113 562.131592,324.003113 564.635376,324.003113 
	C564.720520,325.621338 564.803955,327.207336 564.887939,329.262695 
M488.196594,301.492065 
	C477.718231,304.724182 469.797516,311.252594 463.912567,320.381775 
	C457.471313,330.373901 456.871643,342.724213 462.872589,350.939453 
	C469.838287,360.475494 479.734253,363.463684 490.759369,360.747803 
	C503.523346,357.603516 513.644226,349.995331 515.711548,336.455048 
	C517.673096,323.607025 517.235291,310.392670 517.926758,295.772369 
	C507.380707,297.747009 498.157684,299.473907 488.196594,301.492065 
z" data-index="6" style="opacity: 1;"></path>
<path fill="#F9F9F9" opacity="1.000000" stroke="none" d="
M772.857727,296.000061 
	C772.855774,311.831848 772.816284,327.163727 772.864197,342.495361 
	C772.899536,353.801575 774.484680,355.415924 785.793823,355.954956 
	C787.914856,356.056061 790.044922,355.969421 792.395264,355.969421 
	C792.395264,359.079712 792.395264,361.671783 792.395264,364.481262 
	C772.343201,364.481262 752.460022,364.481262 732.280273,364.481262 
	C732.280273,361.941589 732.280273,359.348816 732.280273,356.436462 
	C736.583618,356.071014 741.027771,355.885223 745.413147,355.276154 
	C751.941040,354.369507 753.622681,352.552246 753.897461,345.913116 
	C754.145508,339.923523 754.003906,333.917114 754.006348,327.918121 
	C754.014221,308.420105 754.009705,288.922058 754.008728,269.424042 
	C754.008606,267.924225 754.033875,266.423340 753.988342,264.924774 
	C753.689392,255.083649 751.388123,252.670059 741.612061,251.883591 
	C738.965576,251.670685 736.321472,251.428864 733.361816,251.173141 
	C733.361816,248.331528 733.361816,245.625168 733.361816,242.554138 
	C746.348633,241.520615 759.245361,240.494247 772.857727,239.410934 
	C772.857727,258.325989 772.857727,276.913025 772.857727,296.000061 
z" data-index="7"></path>
<path fill="#ECC8F2" opacity="1.000000" stroke="none" d="
M906.667725,733.316528 
	C907.440369,728.620728 907.681641,724.215149 909.036438,720.183960 
	C912.744324,709.151550 919.052856,705.169861 930.539368,705.884705 
	C939.297485,706.429688 945.703247,712.350952 948.001465,722.403137 
	C950.365662,732.744080 950.633179,743.169250 948.254944,753.556824 
	C945.621094,765.060913 938.919128,770.859375 928.385437,770.960083 
	C917.802917,771.061279 910.560852,765.524963 908.171143,754.078857 
	C906.796021,747.492676 907.097595,740.556335 906.667725,733.316528 
M920.041443,758.301575 
	C926.491577,765.161499 934.554443,764.019653 937.578735,755.234802 
	C941.471924,743.926086 941.273499,732.328674 937.346191,720.963257 
	C935.872131,716.697388 932.898376,714.004211 928.027649,714.028198 
	C922.888123,714.053528 919.907776,717.114319 918.586914,721.531189 
	C914.966492,733.637878 914.582397,745.757996 920.041443,758.301575 
z" data-index="8" style="opacity: 1;"></path>
<path fill="#F4F4F4" opacity="1.000000" stroke="none" d="
M1389.083252,228.850449 
	C1367.417236,259.288208 1345.756714,289.729828 1324.082397,320.161591 
	C1317.144165,329.903046 1310.169189,339.618408 1302.764160,349.459229 
	C1300.198120,348.007477 1298.078735,346.442169 1296.101562,344.573608 
	C1324.898804,304.157196 1353.553955,264.044128 1382.548706,223.989380 
	C1384.953247,225.648636 1387.018311,227.249542 1389.083252,228.850449 
z" data-index="9" style="opacity: 1;"></path>
<path fill="#EDCAF2" opacity="1.000000" stroke="none" d="
M1339.350586,756.474243 
	C1348.107056,750.799133 1356.050659,744.776917 1360.381714,735.291870 
	C1361.533325,732.769836 1362.340088,729.960938 1362.642822,727.210876 
	C1363.100220,723.055969 1363.215576,718.604919 1359.175537,715.902527 
	C1354.936523,713.066895 1350.211060,713.443054 1345.827515,715.537170 
	C1343.030884,716.873047 1340.611816,718.999207 1337.812256,720.915588 
	C1336.156128,719.154297 1334.286133,717.165466 1332.357666,715.114563 
	C1338.607056,705.802551 1355.645508,702.356140 1365.200317,708.715942 
	C1371.601929,712.977051 1372.619263,719.464905 1372.306763,726.307556 
	C1371.734497,738.842041 1364.267456,747.406555 1355.179688,754.905029 
	C1352.893066,756.791687 1350.452271,758.491333 1348.129028,761.648560 
	C1352.428711,761.648560 1356.728271,761.648560 1361.027954,761.648560 
	C1365.503906,761.648560 1369.979736,761.648560 1374.732422,761.648560 
	C1374.732422,764.417236 1374.732422,766.843689 1374.732422,769.698547 
	C1361.306396,769.698547 1347.774414,769.698547 1334.232666,769.698547 
	C1332.608765,761.260559 1332.900879,760.470276 1339.350586,756.474243 
z" data-index="10"></path>
<path fill="#F0CCF6" opacity="1.000000" stroke="none" d="
M1145.798828,706.224976 
	C1146.129883,724.389221 1146.129883,742.189697 1146.129883,760.495483 
	C1151.023926,760.495483 1155.430176,760.495483 1160.119873,760.495483 
	C1160.119873,763.570129 1160.119873,766.142578 1160.119873,768.975830 
	C1147.210938,768.975830 1134.452881,768.975830 1121.359863,768.975830 
	C1121.359863,766.353394 1121.359863,763.778564 1121.359863,760.717896 
	C1126.260620,760.717896 1131.196533,760.717896 1136.500732,760.717896 
	C1136.500732,745.409973 1136.500732,730.570801 1136.500732,715.261475 
	C1131.641846,716.826233 1127.118042,718.283203 1122.579468,719.744812 
	C1120.842896,711.590027 1120.741333,711.153015 1128.510254,708.808777 
	C1133.962769,707.163452 1139.801514,706.798096 1145.798828,706.224976 
z" data-index="11"></path>
<path fill="#6FDBBA" opacity="1.000000" stroke="none" d="
M1389.521240,228.713257 
	C1387.018311,227.249542 1384.953247,225.648636 1382.500977,223.698212 
	C1381.783203,222.917526 1381.452637,222.486389 1381.122192,222.055237 
	C1380.390137,217.391479 1379.658081,212.727737 1378.882812,207.624863 
	C1379.474121,206.245193 1380.190796,205.349350 1380.730225,204.357056 
	C1384.950317,196.595459 1393.657959,193.048477 1401.424927,195.963669 
	C1409.696167,199.068115 1414.418335,207.261749 1412.594727,215.344513 
	C1410.551758,224.399231 1403.192139,229.742889 1393.889771,228.925232 
	C1392.579468,228.810074 1391.269287,228.692520 1389.521240,228.713257 
z" data-index="12"></path>
<path fill="#6FDAB9" opacity="1.000000" stroke="none" d="
M774.229431,186.382095 
	C774.140686,190.259018 774.084106,193.763412 774.064758,197.625504 
	C771.955811,200.269089 770.118469,202.993942 767.606934,204.760422 
	C759.322083,210.587631 747.849365,207.775009 743.136597,199.065231 
	C738.421997,190.351974 741.949829,179.315735 750.709534,175.374847 
	C760.401794,171.014420 770.765137,175.693863 774.229431,186.382095 
z" data-index="13"></path>
<path fill="#6FDAB9" opacity="1.000000" stroke="none" d="
M1295.959473,344.876892 
	C1298.078735,346.442169 1300.198120,348.007477 1302.592651,349.745483 
	C1309.165161,361.110107 1306.533569,372.320953 1296.622559,376.525024 
	C1289.575317,379.514343 1281.935425,377.919556 1276.957642,372.420044 
	C1271.692261,366.602783 1271.293945,358.891235 1276.234375,350.167175 
	C1278.581177,347.970673 1280.526733,346.258270 1282.839600,344.671143 
	C1287.457886,344.823242 1291.708618,344.850067 1295.959473,344.876892 
z" data-index="14" style="opacity: 1;"></path>
<path fill="#70DBB9" opacity="1.000000" stroke="none" d="
M1208.812500,277.407227 
	C1209.107788,274.438690 1209.465820,271.865356 1210.146240,268.664734 
	C1215.915161,258.273590 1229.855957,254.342255 1240.029907,266.025269 
	C1240.852539,268.510254 1241.675171,270.995239 1242.713135,274.165283 
	C1241.792236,278.886597 1240.655884,282.922852 1239.221436,287.076599 
	C1236.874390,288.813782 1234.825439,290.433441 1232.776489,292.053101 
	C1229.492554,292.284576 1226.080688,293.199463 1222.949585,292.614014 
	C1214.915527,291.111908 1210.150757,285.987457 1208.812500,277.407227 
z" data-index="15" style="opacity: 1;"></path>
<path fill="#F4F5F5" opacity="1.000000" stroke="none" d="
M1232.920776,292.374542 
	C1234.825439,290.433441 1236.874390,288.813782 1239.449219,287.360046 
	C1254.140747,306.532593 1268.306519,325.539185 1282.472290,344.545807 
	C1280.526733,346.258270 1278.581177,347.970673 1276.321045,349.814972 
	C1261.692749,330.863251 1247.378906,311.779602 1232.920776,292.374542 
z" data-index="16"></path>
<path fill="#9463D9" opacity="1.000000" stroke="none" d="
M1139.000000,646.029419 
	C1106.228394,646.029419 1073.956909,646.029419 1041.314941,646.029419 
	C1041.314941,579.281982 1041.314941,513.086731 1041.314941,446.340820 
	C1043.128052,446.245514 1044.892212,446.072113 1046.656494,446.071686 
	C1109.284424,446.056854 1171.912476,446.096222 1234.540161,445.972290 
	C1238.741455,445.963959 1240.289062,446.792572 1240.277100,451.410217 
	C1240.113525,514.537415 1240.156982,577.665100 1240.149536,640.792725 
	C1240.149414,642.263855 1240.149658,643.735046 1240.149658,646.029358 
	C1206.307373,646.029358 1172.903687,646.029358 1139.000000,646.029419 
M1110.800537,523.543579 
	C1110.331421,533.661072 1114.642090,541.254272 1123.199341,546.411072 
	C1126.175171,548.204407 1129.430908,549.555725 1132.623657,550.961914 
	C1139.157593,553.839600 1145.853516,556.377319 1152.251343,559.525513 
	C1156.197754,561.467468 1157.617065,565.260071 1157.062866,569.665161 
	C1156.525024,573.939026 1153.951782,576.463074 1150.061890,577.942871 
	C1140.063232,581.746704 1128.956177,576.986023 1124.740112,567.246826 
	C1124.036377,565.621521 1122.508545,563.342407 1121.157959,563.191711 
	C1116.601074,562.683533 1111.952271,562.998230 1106.913086,562.998230 
	C1106.635742,570.247070 1108.967407,576.059021 1112.831909,581.107239 
	C1124.014160,595.714661 1147.322510,599.694519 1162.924194,589.914124 
	C1174.506836,582.653198 1178.571533,566.618347 1171.783203,554.714600 
	C1167.294678,546.843689 1159.695435,543.124634 1151.744751,539.865540 
	C1145.601807,537.347473 1139.223755,535.206299 1133.480957,531.958984 
	C1126.666504,528.105713 1126.898804,518.166260 1133.379150,514.631470 
	C1141.022949,510.462036 1151.648926,513.583862 1154.230347,521.822632 
	C1156.065552,527.680359 1159.135010,528.896667 1164.304443,528.193787 
	C1165.285645,528.060425 1166.300659,528.177490 1167.300049,528.176025 
	C1173.462769,528.167236 1174.175903,527.213074 1172.583740,521.109558 
	C1168.589111,505.796570 1157.755493,497.361969 1141.748901,497.102966 
	C1123.762085,496.811951 1111.838135,506.643127 1110.800537,523.543579 
z" data-index="17" style="opacity: 1;"></path>
<path fill="#9362D9" opacity="1.000000" stroke="none" d="
M1275.000000,646.013184 
	C1267.872559,646.013245 1261.245117,646.013245 1254.242188,646.013245 
	C1254.242188,579.304504 1254.242188,513.109070 1254.242188,446.484070 
	C1320.276733,446.484070 1386.282349,446.484070 1452.671631,446.484070 
	C1452.671631,512.779724 1452.671631,578.976074 1452.671631,646.013184 
	C1393.594360,646.013184 1334.547241,646.013184 1275.000000,646.013184 
M1383.733643,593.842957 
	C1387.941406,593.842957 1392.149170,593.842957 1397.321167,593.842957 
	C1395.468140,588.954956 1394.149170,585.421631 1392.791504,581.903198 
	C1382.612427,555.523804 1372.310181,529.191040 1362.333740,502.735229 
	C1360.200317,497.077972 1355.930054,498.631683 1352.010986,498.359344 
	C1348.607666,498.122803 1346.154053,498.804779 1344.682007,502.657684 
	C1334.768799,528.603638 1324.590088,554.447937 1314.521118,580.334412 
	C1312.930176,584.424561 1311.459595,588.561584 1309.679810,593.360413 
	C1312.087280,593.592712 1313.511108,593.823059 1314.939209,593.853516 
	C1328.555542,594.144226 1328.458984,594.098511 1333.238892,581.246399 
	C1333.790283,579.764038 1336.110229,578.061707 1337.682861,577.986877 
	C1344.994629,577.639099 1352.332153,577.828552 1359.660400,577.825439 
	C1371.699219,577.820312 1371.889771,577.753967 1375.725220,588.790894 
	C1377.036133,592.563416 1378.761597,594.515076 1383.733643,593.842957 
z" data-index="18" style="opacity: 1;"></path>
<path fill="#9463D9" opacity="1.000000" stroke="none" d="
M913.000000,646.033936 
	C884.566956,646.033997 856.633911,646.033997 828.089355,646.033997 
	C828.089355,643.595154 828.089111,641.811035 828.089417,640.026855 
	C828.098877,577.379944 828.142456,514.732971 828.043945,452.086212 
	C828.037170,447.765228 828.869873,445.945557 833.778809,445.958313 
	C896.758545,446.121948 959.738892,446.066528 1022.719055,446.066620 
	C1024.193604,446.066620 1025.668213,446.066620 1027.565063,446.066620 
	C1027.565063,512.686096 1027.565063,578.898499 1027.565063,646.033936 
	C989.618408,646.033936 951.559204,646.033936 913.000000,646.033936 
M966.727844,558.069641 
	C966.809387,550.792358 967.540955,543.452515 966.848022,536.249695 
	C964.931213,516.326599 948.634155,500.386475 928.661438,499.020294 
	C917.056091,498.226501 905.371582,498.649780 893.729431,498.301666 
	C889.573059,498.177399 888.212585,499.762024 888.229919,503.847260 
	C888.349670,531.991882 888.365784,560.137573 888.226685,588.281982 
	C888.204346,592.793884 890.036560,594.021667 894.211670,593.928467 
	C903.366821,593.723999 912.530212,593.932190 921.689148,593.849548 
	C945.026367,593.638916 960.546875,581.522705 966.727844,558.069641 
z" data-index="19" style="opacity: 1;"></path>

<path fill="#020202" opacity="1.000000" stroke="none" d="
M1282.839600,344.671082 
	C1268.306519,325.539185 1254.140747,306.532593 1239.747314,287.242554 
	C1240.655884,282.922852 1241.792236,278.886597 1242.935425,274.440582 
	C1288.809082,256.851196 1334.676025,239.671600 1380.832520,222.273621 
	C1381.452637,222.486389 1381.783203,222.917526 1382.161499,223.639847 
	C1353.553955,264.044128 1324.898804,304.157196 1296.101562,344.573608 
	C1291.708618,344.850067 1287.457886,344.823242 1282.839600,344.671082 
z" data-index="21" style="opacity: 1; visibility: hidden;"></path>
<path fill="#949494" opacity="1.000000" stroke="none" d="
M826.554993,197.170151 
	C826.907227,197.632889 826.928345,197.894211 827.011536,198.543854 
	C824.141968,198.579544 821.210388,198.226898 818.278809,197.874252 
	C818.283569,197.572418 818.288330,197.270569 818.293091,196.968735 
	C820.936707,196.968735 823.580322,196.968735 826.554993,197.170151 
z" data-index="22"></path>

<path fill="#0A060B" opacity="1.000000" stroke="none" d="
M919.829590,757.985107 
	C914.582397,745.757996 914.966492,733.637878 918.586914,721.531189 
	C919.907776,717.114319 922.888123,714.053528 928.027649,714.028198 
	C932.898376,714.004211 935.872131,716.697388 937.346191,720.963257 
	C941.273499,732.328674 941.471924,743.926086 937.578735,755.234802 
	C934.554443,764.019653 926.491577,765.161499 919.829590,757.985107 
M922.809265,734.271790 
	C922.373474,735.338867 921.347351,736.591309 921.613220,737.438049 
	C922.393005,739.921387 923.183105,743.680969 924.900330,744.282593 
	C927.314941,745.128357 931.500183,744.495605 933.175598,742.781799 
	C934.601868,741.322693 934.610413,736.787842 933.367615,734.772095 
	C931.006531,730.943176 927.006775,731.293518 922.809265,734.271790 
z" data-index="24" style="opacity: 1; visibility: hidden;"></path>
<path fill="#FDFBFE" opacity="1.000000" stroke="none" d="
M1110.802490,523.080078 
	C1111.838135,506.643127 1123.762085,496.811951 1141.748901,497.102966 
	C1157.755493,497.361969 1168.589111,505.796570 1172.583740,521.109558 
	C1174.175903,527.213074 1173.462769,528.167236 1167.300049,528.176025 
	C1166.300659,528.177490 1165.285645,528.060425 1164.304443,528.193787 
	C1159.135010,528.896667 1156.065552,527.680359 1154.230347,521.822632 
	C1151.648926,513.583862 1141.022949,510.462036 1133.379150,514.631470 
	C1126.898804,518.166260 1126.666504,528.105713 1133.480957,531.958984 
	C1139.223755,535.206299 1145.601807,537.347473 1151.744751,539.865540 
	C1159.695435,543.124634 1167.294678,546.843689 1171.783203,554.714600 
	C1178.571533,566.618347 1174.506836,582.653198 1162.924194,589.914124 
	C1147.322510,599.694519 1124.014160,595.714661 1112.831909,581.107239 
	C1108.967407,576.059021 1106.635742,570.247070 1106.913086,562.998230 
	C1111.952271,562.998230 1116.601074,562.683533 1121.157959,563.191711 
	C1122.508545,563.342407 1124.036377,565.621521 1124.740112,567.246826 
	C1128.956177,576.986023 1140.063232,581.746704 1150.061890,577.942871 
	C1153.951782,576.463074 1156.525024,573.939026 1157.062866,569.665161 
	C1157.617065,565.260071 1156.197754,561.467468 1152.251343,559.525513 
	C1145.853516,556.377319 1139.157593,553.839600 1132.623657,550.961914 
	C1129.430908,549.555725 1126.175171,548.204407 1123.199341,546.411072 
	C1114.642090,541.254272 1110.331421,533.661072 1110.802490,523.080078 
z" data-index="25"></path>
<path fill="#FCFAFD" opacity="1.000000" stroke="none" d="
M1383.274536,593.842285 
	C1378.761597,594.515076 1377.036133,592.563416 1375.725220,588.790894 
	C1371.889771,577.753967 1371.699219,577.820312 1359.660400,577.825439 
	C1352.332153,577.828552 1344.994629,577.639099 1337.682861,577.986877 
	C1336.110229,578.061707 1333.790283,579.764038 1333.238892,581.246399 
	C1328.458984,594.098511 1328.555542,594.144226 1314.939209,593.853516 
	C1313.511108,593.823059 1312.087280,593.592712 1309.679810,593.360413 
	C1311.459595,588.561584 1312.930176,584.424561 1314.521118,580.334412 
	C1324.590088,554.447937 1334.768799,528.603638 1344.682007,502.657684 
	C1346.154053,498.804779 1348.607666,498.122803 1352.010986,498.359344 
	C1355.930054,498.631683 1360.200317,497.077972 1362.333740,502.735229 
	C1372.310181,529.191040 1382.612427,555.523804 1392.791504,581.903198 
	C1394.149170,585.421631 1395.468140,588.954956 1397.321167,593.842957 
	C1392.149170,593.842957 1387.941406,593.842957 1383.274536,593.842285 
M1361.288330,562.294678 
	C1362.824463,562.165222 1364.360474,562.035767 1366.217773,561.879272 
	C1361.769775,548.176086 1357.538574,535.140991 1353.262207,521.966736 
	C1348.828003,535.331970 1344.464966,548.482300 1339.882080,562.295715 
	C1347.103638,562.295715 1353.718628,562.295715 1361.288330,562.294678 
z" data-index="26"></path>
<path fill="#FCFAFD" opacity="1.000000" stroke="none" d="
M966.652588,558.484436 
	C960.546875,581.522705 945.026367,593.638916 921.689148,593.849548 
	C912.530212,593.932190 903.366821,593.723999 894.211670,593.928467 
	C890.036560,594.021667 888.204346,592.793884 888.226685,588.281982 
	C888.365784,560.137573 888.349670,531.991882 888.229919,503.847260 
	C888.212585,499.762024 889.573059,498.177399 893.729431,498.301666 
	C905.371582,498.649780 917.056091,498.226501 928.661438,499.020294 
	C948.634155,500.386475 964.931213,516.326599 966.848022,536.249695 
	C967.540955,543.452515 966.809387,550.792358 966.652588,558.484436 
M908.753113,514.808960 
	C905.118652,514.853821 906.161133,517.634094 906.154297,519.545166 
	C906.091125,537.191406 906.109497,554.838013 906.131409,572.484497 
	C906.133179,573.927795 906.337036,575.370850 906.440125,576.722961 
	C913.659729,576.722961 920.581360,577.579956 927.205017,576.539978 
	C939.955688,574.538025 947.924683,565.115845 949.478943,549.467285 
	C950.992981,534.223755 945.132324,519.221863 926.623169,515.482239 
	C921.161743,514.378845 915.356140,514.978882 908.753113,514.808960 
z" data-index="27" style="opacity: 1;"></path>
<path fill="#E5C4EA" opacity="1.000000" stroke="none" d="
M923.080200,734.000732 
	C927.006775,731.293518 931.006531,730.943176 933.367615,734.772095 
	C934.610413,736.787842 934.601868,741.322693 933.175598,742.781799 
	C931.500183,744.495605 927.314941,745.128357 924.900330,744.282593 
	C923.183105,743.680969 922.393005,739.921387 921.613220,737.438049 
	C921.347351,736.591309 922.373474,735.338867 923.080200,734.000732 
z" data-index="28"></path>
<path fill="#9467D6" opacity="1.000000" stroke="none" d="
M1360.810913,562.295166 
	C1353.718628,562.295715 1347.103638,562.295715 1339.882080,562.295715 
	C1344.464966,548.482300 1348.828003,535.331970 1353.262207,521.966736 
	C1357.538574,535.140991 1361.769775,548.176086 1366.217773,561.879272 
	C1364.360474,562.035767 1362.824463,562.165222 1360.810913,562.295166 
z" data-index="29"></path>
<path fill="#9464D8" opacity="1.000000" stroke="none" d="
M909.230713,514.803589 
	C915.356140,514.978882 921.161743,514.378845 926.623169,515.482239 
	C945.132324,519.221863 950.992981,534.223755 949.478943,549.467285 
	C947.924683,565.115845 939.955688,574.538025 927.205017,576.539978 
	C920.581360,577.579956 913.659729,576.722961 906.440125,576.722961 
	C906.337036,575.370850 906.133179,573.927795 906.131409,572.484497 
	C906.109497,554.838013 906.091125,537.191406 906.154297,519.545166 
	C906.161133,517.634094 905.118652,514.853821 909.230713,514.803589 
z" data-index="30"></path>
</svg>