<svg version="1.1" id="Layer_1" xmlns="http://www.w3.org/2000/svg" xmlns:xlink="http://www.w3.org/1999/xlink" x="0px" y="0px" width="100%" viewBox="0 0 1638 940" enable-background="new 0 0 1638 940" xml:space="preserve">

<path fill="#E7B1F9" opacity="1.000000" stroke="none" d="
M1254.988770,433.105286 
	C1324.666870,433.097595 1394.344971,433.089935 1464.502197,433.562500 
	C1464.973999,508.990509 1464.966675,583.938232 1464.959351,658.885986 
	C1403.930054,658.913147 1342.900757,658.939941 1281.871460,658.967834 
	C1271.561279,658.972595 1261.251099,658.981873 1250.222412,658.709595 
	C1247.667603,658.608459 1245.831299,658.786743 1243.994995,658.965088 
	C1101.341309,658.965088 958.687561,658.965088 815.543579,658.965088 
	C815.543579,583.770630 815.543579,508.887909 815.543579,433.049683 
	C959.935425,433.049683 1104.500366,433.049683 1249.772217,433.315216 
	C1251.982422,433.422241 1253.485596,433.263763 1254.988770,433.105286 
M1219.500000,646.026428 
	C1226.437866,646.026428 1233.375732,646.026428 1240.865112,646.026428 
	C1240.865112,643.382690 1240.864990,641.425415 1240.865112,639.468201 
	C1240.866699,610.969421 1240.959839,582.470276 1240.840454,553.971985 
	C1240.745483,531.327148 1240.276855,508.683807 1240.199097,486.039032 
	C1240.160278,474.728668 1240.433350,463.407745 1240.952148,452.109375 
	C1241.176270,447.228760 1239.508423,445.937012 1234.729858,445.947998 
	C1172.066284,446.092194 1109.402222,446.040619 1046.738281,446.052643 
	C1044.965576,446.052979 1043.192993,446.213104 1041.282715,446.305359 
	C1041.282715,513.028870 1041.282715,579.255066 1041.282715,646.026489 
	C1100.593384,646.026489 1159.546753,646.026489 1219.500000,646.026428 
M1253.874146,634.371216 
	C1253.688110,638.098999 1253.501953,641.826721 1253.309204,645.688843 
	C1320.106812,645.688843 1386.312378,645.688843 1452.583008,645.688843 
	C1452.583008,579.007751 1452.583008,512.681152 1452.583008,446.378113 
	C1386.188599,446.378113 1320.282227,446.378113 1253.874023,446.378113 
	C1253.874023,508.943909 1253.874023,571.172180 1253.874146,634.371216 
M935.500000,446.043518 
	C899.900391,446.043518 864.300781,446.043518 828.508423,446.043518 
	C828.508423,513.007324 828.508423,579.343506 828.508423,645.651611 
	C895.156677,645.651611 961.366821,645.651611 1027.663818,645.651611 
	C1027.663818,579.033569 1027.663818,512.815857 1027.663818,446.043610 
	C997.053955,446.043610 966.776978,446.043610 935.500000,446.043518 
z" data-index="1" style="opacity: 1;"></path>
<path fill="#060606" opacity="1.000000" stroke="none" d="
M315.106812,295.963806 
	C327.174591,264.928040 339.125824,234.261322 351.076935,203.594543 
	C354.697815,194.303314 358.430573,185.053299 361.876343,175.697571 
	C363.037842,172.543915 364.917725,171.158463 368.152435,171.162643 
	C384.803864,171.184143 401.455261,171.172623 418.494263,171.172623 
	C418.494263,174.007645 418.494263,176.694458 418.494263,180.133530 
	C413.247864,180.133530 408.111328,179.899185 403.003479,180.182312 
	C392.365936,180.771973 389.715668,183.433197 389.700409,193.926666 
	C389.628113,243.589111 389.635193,293.251801 389.703186,342.914246 
	C389.715424,351.849152 391.648865,354.180878 400.423584,355.357269 
	C406.314850,356.147095 412.322296,356.070312 418.571350,356.396576 
	C418.571350,359.036072 418.571350,361.607635 418.571350,364.407745 
	C391.754486,364.407745 364.996918,364.407745 337.874176,364.407745 
	C337.874176,361.875488 337.874176,359.157898 337.874176,356.584351 
	C345.033966,356.048370 351.979370,355.590271 358.912262,354.988068 
	C363.659088,354.575745 365.956970,351.627472 366.392242,347.084290 
	C366.614227,344.767456 366.764862,342.433533 366.765594,340.107269 
	C366.781769,289.278076 366.772339,238.448898 366.767792,187.619705 
	C366.767639,186.076538 366.767761,184.533356 366.767761,182.990189 
	C366.315430,182.908249 365.863068,182.826324 365.410736,182.744385 
	C361.981079,191.461395 358.516907,200.165024 355.127716,208.897736 
	C340.751434,245.940216 326.391998,282.989197 312.038605,320.040527 
	C307.474152,331.823029 302.955872,343.623413 298.395081,355.407379 
	C297.675415,357.266815 297.096069,359.257202 295.987457,360.867279 
	C294.939667,362.389008 293.170074,364.621063 291.917206,364.498810 
	C290.224426,364.333588 288.108856,362.531586 287.259033,360.875488 
	C285.143921,356.753693 283.581482,352.340607 281.904114,348.003082 
	C261.518921,295.289093 241.155563,242.566650 220.770935,189.852432 
	C220.129425,188.193497 219.320419,186.599335 217.979660,183.619659 
	C217.629257,186.062210 217.326645,187.188690 217.326355,188.315231 
	C217.313629,237.311203 217.280960,286.307281 217.369049,335.303101 
	C217.393112,348.690155 222.993546,353.968262 238.512497,355.769989 
	C240.984528,356.057007 243.490433,356.052124 246.320374,356.199951 
	C246.320374,358.856812 246.320374,361.441711 246.320374,364.419739 
	C224.694962,364.419739 202.965668,364.419739 180.782074,364.419739 
	C180.782074,361.966644 180.782074,359.279938 180.782074,356.481476 
	C185.172119,355.936218 189.626602,355.611389 193.989288,354.795654 
	C204.410690,352.847046 209.297714,347.177307 209.481400,336.539795 
	C209.694305,324.210876 209.584198,311.876099 209.587494,299.543884 
	C209.596741,264.880035 209.592926,230.216202 209.590042,195.552368 
	C209.589935,194.386551 209.593872,193.217270 209.512131,192.055496 
	C208.915939,183.581604 206.880371,181.144073 198.352676,180.396332 
	C192.599518,179.891891 186.766327,180.300186 180.660370,180.300186 
	C180.660370,176.931824 180.660370,174.353683 180.660370,171.083893 
	C183.796478,171.083893 186.893158,171.083862 189.989822,171.083893 
	C202.322144,171.084030 214.654480,171.076935 226.986801,171.086945 
	C235.062546,171.093491 235.930283,171.559982 238.828873,179.003494 
	C245.405548,195.892380 251.827057,212.841599 258.363617,229.746201 
	C271.911530,264.783356 285.493317,299.807373 299.570984,336.153107 
	C305.003265,322.124176 309.996735,309.228485 315.106812,295.963806 
z" data-index="2"></path>
<path fill="#090909" opacity="1.000000" stroke="none" d="
M1208.725098,276.982483 
	C1153.089722,266.875854 1097.457764,256.750031 1041.817993,246.668228 
	C990.757996,237.416290 939.680786,228.259232 888.627563,218.970352 
	C852.799133,212.451538 817.000122,205.770584 781.178894,199.211914 
	C779.409119,198.887909 777.551941,199.041641 775.209961,198.481293 
	C774.772400,194.369186 774.860291,190.748688 774.948242,187.128204 
	C818.749268,188.537567 862.551392,189.913391 906.351013,191.365616 
	C951.479919,192.861938 996.605469,194.456070 1041.734009,195.965332 
	C1107.347778,198.159683 1172.962524,200.318604 1238.577148,202.488251 
	C1285.041382,204.024658 1331.505737,205.553833 1378.518799,207.526840 
	C1379.796997,212.682022 1380.526245,217.396606 1380.914551,222.252335 
	C1334.668701,239.551559 1288.763672,256.709625 1242.777954,273.536804 
	C1241.831055,270.819153 1240.964844,268.432343 1240.432617,265.904968 
	C1284.403931,249.394989 1328.041382,233.025543 1371.678955,216.656113 
	C1371.613037,216.257828 1371.547119,215.859543 1371.481201,215.461258 
	C1190.065796,209.413025 1008.650330,203.364777 826.806396,197.130508 
	C823.600952,196.944473 820.823975,196.944473 818.046936,196.944473 
	C818.018677,197.235092 817.990417,197.525726 817.962158,197.816345 
	C820.994690,198.189468 824.027161,198.562592 827.466125,198.980225 
	C829.498840,199.365799 831.118103,199.745163 832.752380,200.042404 
	C897.708130,211.857117 962.666199,223.659119 1027.621948,235.474213 
	C1088.316528,246.514236 1149.008789,257.567169 1209.781738,268.973816 
	C1209.482666,271.882965 1209.103882,274.432709 1208.725098,276.982483 
z" data-index="3" style="opacity: 1;"></path>
<path fill="#060606" opacity="1.000000" stroke="none" d="
M837.561035,257.891113 
	C836.111938,253.110519 832.290466,252.641022 828.680359,252.121048 
	C824.906128,251.577438 821.079895,251.394333 817.090454,251.036972 
	C817.090454,248.335403 817.090454,245.709976 817.090454,242.581833 
	C830.130249,241.570038 843.132385,240.561142 856.622681,239.514389 
	C856.622681,249.034561 856.622681,257.925537 856.622681,266.816498 
	C865.708435,250.759827 877.979065,239.903046 897.181885,239.593399 
	C914.996033,239.306122 930.278198,243.642181 936.251038,264.859955 
	C941.019043,259.514832 945.625793,253.699875 950.898621,248.569473 
	C963.389526,236.415955 989.008728,237.524139 1000.736877,244.663589 
	C1009.869202,250.222778 1014.853699,258.728790 1015.035095,269.528564 
	C1015.446350,294.012268 1015.662842,318.499451 1015.890015,342.985870 
	C1015.988159,353.566223 1017.512756,355.283600 1028.265259,355.885468 
	C1031.248291,356.052460 1034.248779,355.910889 1037.631348,355.910889 
	C1037.631348,358.867828 1037.631348,361.570923 1037.631348,364.431244 
	C1016.758240,364.431244 995.852051,364.431244 974.602783,364.431244 
	C974.602783,361.904114 974.602783,359.331787 974.602783,356.524994 
	C979.594360,356.046478 984.659241,355.520569 989.732056,355.087341 
	C993.778381,354.741791 995.943604,352.293030 995.940735,348.561615 
	C995.919556,320.751068 996.756042,292.883240 995.214722,265.150574 
	C994.205383,246.990631 981.141113,241.480026 963.541260,248.197464 
	C945.761353,254.983643 937.839478,269.798645 937.286804,288.237976 
	C936.727905,306.884521 937.081665,325.560272 937.146179,344.222839 
	C937.175171,352.618988 939.073364,354.775238 947.430664,355.677795 
	C951.187683,356.083588 955.024841,355.746521 959.034302,355.746521 
	C959.034302,359.010498 959.034302,361.625763 959.034302,364.433960 
	C937.998047,364.433960 917.108154,364.433960 895.931641,364.433960 
	C895.931641,361.931976 895.931641,359.327026 895.931641,356.484772 
	C900.805786,356.028381 905.691772,355.484741 910.591675,355.138062 
	C914.859619,354.836060 916.784363,352.335175 917.294434,348.429474 
	C917.573547,346.291809 917.776367,344.126526 917.779663,341.973328 
	C917.813049,320.310944 918.034180,298.644287 917.653198,276.988495 
	C917.537781,270.430634 916.256897,263.756836 914.535706,257.399933 
	C912.609558,250.286133 907.218933,246.574295 899.801086,245.936401 
	C880.101807,244.242401 860.689392,260.449860 859.343384,281.880920 
	C857.988342,303.456207 858.763611,325.167572 858.692505,346.819580 
	C858.676086,351.809357 860.815918,355.048523 866.355591,355.289551 
	C870.829895,355.484222 875.290344,355.996094 880.132080,356.398407 
	C880.132080,358.949860 880.132080,361.658051 880.132080,364.432495 
	C859.208130,364.432495 838.449768,364.432495 817.296753,364.432495 
	C817.296753,361.932037 817.296753,359.235748 817.296753,356.472717 
	C822.359863,355.988953 827.542236,355.920166 832.494263,354.817169 
	C834.563721,354.356262 836.792358,352.007782 837.772522,349.955719 
	C838.855408,347.688416 838.863159,344.777985 838.870178,342.146454 
	C838.935364,317.318207 838.941528,292.489563 838.842529,267.661499 
	C838.830078,264.529205 838.112976,261.399719 837.561035,257.891113 
z" data-index="4" style="opacity: 1;"></path>
<path fill="#050505" opacity="1.000000" stroke="none" d="
M622.679382,250.046158 
	C622.679382,255.971451 622.679382,261.405212 622.679382,268.340576 
	C625.338867,264.073975 627.136047,261.028076 629.088257,258.085114 
	C643.471008,236.403015 670.427124,235.916901 686.935730,244.130310 
	C698.169617,249.719452 702.668823,260.430359 702.797485,272.752014 
	C703.044495,296.405182 703.112122,320.060272 703.226746,343.714691 
	C703.272644,353.192383 704.819031,355.007477 714.349243,355.781097 
	C717.816101,356.062561 721.324951,355.826385 725.124390,355.826385 
	C725.124390,359.020752 725.124390,361.749603 725.124390,364.428040 
	C704.058350,364.428040 683.276001,364.428040 662.132812,364.428040 
	C662.132812,361.925781 662.132812,359.201569 662.132812,356.476562 
	C667.105469,356.002716 672.028015,355.466553 676.962463,355.085114 
	C680.747925,354.792511 682.630798,352.636139 683.206604,349.115814 
	C683.527100,347.156952 683.865906,345.170135 683.870117,343.195221 
	C683.916809,321.038269 684.077454,298.878815 683.781921,276.725739 
	C683.703003,270.809021 682.647034,264.794128 681.206726,259.032532 
	C678.992981,250.176758 673.326904,246.135666 664.170837,245.835846 
	C644.734558,245.199432 626.565125,261.393921 625.370605,282.596588 
	C624.154541,304.183136 624.928650,325.883972 624.923035,347.534760 
	C624.921875,352.213226 627.235596,354.970978 632.198425,355.249817 
	C636.823303,355.509613 641.434814,356.006409 646.367798,356.425720 
	C646.367798,358.964569 646.367798,361.544250 646.367798,364.430389 
	C625.468140,364.430389 604.577942,364.430389 583.317566,364.430389 
	C583.317566,361.909393 583.317566,359.215637 583.317566,356.490509 
	C588.307251,356.010773 593.227661,355.478821 598.159058,355.083405 
	C601.676819,354.801361 603.686157,353.013885 604.122009,349.540588 
	C604.452148,346.909790 604.880066,344.264038 604.886047,341.624023 
	C604.941223,317.467987 604.918396,293.311768 604.908264,269.155579 
	C604.901978,254.188766 603.593445,252.767792 588.652405,251.462158 
	C586.848816,251.304535 585.038269,251.227524 583.086914,251.104034 
	C583.086914,248.262543 583.086914,245.628342 583.086914,242.612061 
	C596.093567,241.584702 608.997314,240.565475 622.679382,239.484772 
	C622.679382,243.077072 622.679382,246.315857 622.679382,250.046158 
z" data-index="5" style="opacity: 1;"></path>
<path fill="#080808" opacity="1.000000" stroke="none" d="
M564.811951,325.702515 
	C564.576355,332.955353 564.784973,339.825928 563.975281,346.574310 
	C562.646973,357.645905 554.235229,365.298218 543.329285,366.195435 
	C532.671997,367.072205 524.578430,361.352600 520.870361,350.306793 
	C520.316589,348.657196 519.825073,346.986725 519.325623,345.392639 
	C515.824951,349.670410 512.896484,354.141541 509.113617,357.705872 
	C497.276184,368.859436 482.900238,369.628937 467.947205,366.569000 
	C463.270691,365.612030 458.521973,364.235046 454.267059,362.122345 
	C434.207184,352.161926 430.645660,329.820312 446.434265,313.690796 
	C456.717194,303.185913 469.785889,297.861237 483.843414,295.070770 
	C494.735260,292.908752 505.822418,291.730499 517.202576,290.059174 
	C517.621948,278.645294 518.075867,267.024628 510.910278,256.768219 
	C499.190247,239.992722 468.206024,239.832214 457.549408,256.830109 
	C463.714233,257.666962 468.757721,259.922424 470.457916,266.540375 
	C471.767914,271.639648 470.937500,276.170593 467.075623,279.833557 
	C463.006134,283.693512 458.038940,283.978729 453.082123,282.218658 
	C448.082458,280.443359 445.219025,276.484528 445.039734,271.208893 
	C444.597321,258.191345 451.669586,249.742432 462.449066,243.752686 
	C481.466522,233.185410 509.023865,236.699142 524.875427,251.595581 
	C533.296082,259.508820 536.850037,269.289368 536.812744,280.681519 
	C536.746765,300.841888 536.675415,321.005096 536.980164,341.161469 
	C537.040283,345.138855 538.377075,349.254730 539.875854,353.006836 
	C541.283142,356.529968 544.549011,358.118439 548.454407,357.703461 
	C552.397034,357.284546 554.924622,354.876251 555.812622,351.206818 
	C556.744324,347.356964 557.366638,343.380341 557.605225,339.427795 
	C557.904968,334.461426 557.677429,329.463226 557.677429,323.278564 
	C560.347717,324.023560 562.573242,324.644470 564.811951,325.702515 
M466.482605,355.060760 
	C483.708008,370.295135 509.488983,356.863739 514.860718,340.463867 
	C519.527649,326.215607 516.640442,311.571442 517.469543,296.330170 
	C509.531158,297.370148 502.376434,297.876923 495.413025,299.312164 
	C482.199524,302.035583 471.302185,308.527069 463.874817,320.226135 
	C456.305939,332.148071 457.006531,345.317383 466.482605,355.060760 
z" data-index="6" style="opacity: 1;"></path>
<path fill="#060606" opacity="1.000000" stroke="none" d="
M775.129761,364.330017 
	C760.682556,364.314178 746.717773,364.314178 732.384277,364.314178 
	C732.384277,361.986633 732.384277,359.415680 732.384277,356.503052 
	C736.905579,356.082611 741.636475,355.433624 746.385010,355.257568 
	C751.544556,355.066284 753.205688,351.823364 753.829773,347.532562 
	C754.091675,345.731750 754.020142,343.875580 754.020569,342.044586 
	C754.027222,317.059387 754.021912,292.074188 754.011169,267.088989 
	C754.010559,265.590637 754.020935,264.084961 753.887024,262.595215 
	C753.203979,254.994064 750.985291,252.771149 743.394043,251.999390 
	C740.093445,251.663834 736.791443,251.341980 733.305359,250.995560 
	C733.305359,248.251495 733.305359,245.648727 733.305359,242.646591 
	C746.345276,241.602936 759.232971,240.571442 772.784973,239.486801 
	C772.784973,241.681091 772.785034,243.437653 772.784973,245.194229 
	C772.783630,276.842133 772.769531,308.490051 772.786743,340.137970 
	C772.794678,354.694000 773.823730,355.719757 788.313599,356.022705 
	C789.470764,356.046906 790.628906,356.025940 792.150391,356.025940 
	C792.150391,358.956085 792.150391,361.664154 792.150391,364.345856 
	C786.508850,364.345856 781.060547,364.345856 775.129761,364.330017 
z" data-index="7" style="opacity: 1;"></path>
<path fill="#F5D1FB" opacity="1.000000" stroke="none" d="
M908.082031,722.465027 
	C909.673462,718.957031 910.825012,715.582275 912.812927,712.806458 
	C921.211426,701.080078 942.555725,704.003784 947.038818,719.610168 
	C950.637939,732.139526 951.277649,744.684998 947.070862,757.218384 
	C944.145264,765.934448 936.987793,771.039917 927.867310,770.989685 
	C918.721619,770.939392 912.190552,766.188538 909.225037,757.329895 
	C905.422424,745.970642 906.707703,734.419312 908.082031,722.465027 
M933.385315,761.086670 
	C934.801880,759.268372 936.842285,757.658630 937.531372,755.597107 
	C941.324646,744.249817 941.451599,732.700317 937.502014,721.418823 
	C936.027588,717.207397 933.052246,713.519104 927.510437,714.004517 
	C923.128235,714.388245 919.430481,718.006165 917.958557,722.938782 
	C915.179626,732.250977 915.564026,741.654663 917.224731,751.004822 
	C918.940735,760.666443 925.357422,764.796814 933.385315,761.086670 
z" data-index="8" style="opacity: 1;"></path>
<path fill="#0B0B0B" opacity="1.000000" stroke="none" d="
M1389.151733,228.911255 
	C1360.564087,268.926880 1331.976440,308.942535 1302.930908,349.251282 
	C1300.298462,347.996368 1298.124023,346.448303 1296.104980,344.605896 
	C1305.623657,331.214203 1315.004272,318.129150 1324.346802,305.017059 
	C1343.605591,277.988159 1362.844116,250.944839 1382.451172,223.891724 
	C1384.924805,225.554443 1387.038330,227.232849 1389.151733,228.911255 
z" data-index="9" style="opacity: 1;"></path>
<path fill="#F5D1FB" opacity="1.000000" stroke="none" d="
M1351.137817,758.251221 
	C1349.963013,759.247620 1349.067993,760.011780 1348.172974,760.775940 
	C1348.303345,761.174805 1348.433716,761.573669 1348.564209,761.972534 
	C1355.303589,761.972534 1362.042969,761.968567 1368.782349,761.973694 
	C1375.505371,761.978760 1375.505371,761.982727 1374.524780,769.724487 
	C1372.878784,769.815186 1371.121704,769.990906 1369.364258,769.995728 
	C1359.546753,770.022705 1349.727051,770.117310 1339.913574,769.916687 
	C1337.947510,769.876587 1334.438354,768.846741 1334.331177,767.951294 
	C1333.927490,764.577637 1332.805298,760.883972 1336.708984,758.035217 
	C1343.238159,753.270630 1349.948608,748.497620 1355.432495,742.649414 
	C1358.987915,738.857910 1361.233032,733.359375 1362.701050,728.234863 
	C1363.956299,723.852600 1363.535156,718.606812 1358.906128,715.705383 
	C1354.303467,712.820435 1349.279297,713.605164 1344.667847,715.986206 
	C1342.353638,717.181091 1340.416870,719.106812 1337.851440,721.048645 
	C1335.950684,719.248474 1333.978394,717.380493 1331.872437,715.385864 
	C1335.486206,709.698608 1340.991333,707.773071 1346.585571,706.358093 
	C1359.220459,703.162231 1370.602173,709.159119 1371.891113,719.726929 
	C1373.185059,730.336731 1370.307251,739.848389 1362.793701,747.612427 
	C1359.226318,751.298767 1355.223267,754.563354 1351.137817,758.251221 
z" data-index="10"></path>
<path fill="#F5D0FB" opacity="1.000000" stroke="none" d="
M1146.014648,726.000244 
	C1146.014648,735.986633 1146.204102,745.478516 1145.931519,754.957153 
	C1145.803345,759.408386 1147.002808,761.696045 1151.783936,760.989685 
	C1152.435547,760.893372 1153.113403,760.975647 1153.779175,760.976685 
	C1160.507812,760.987244 1160.507812,760.987244 1159.606445,768.390198 
	C1158.764404,768.581604 1157.834839,768.972839 1156.903809,768.976868 
	C1146.252563,769.022583 1135.599854,768.920959 1124.950317,769.067139 
	C1121.872314,769.109314 1120.913818,768.020630 1120.925171,765.014954 
	C1120.936279,762.056641 1121.795776,760.833862 1124.918945,760.913818 
	C1128.694092,761.010559 1134.419067,762.002625 1135.805786,760.083008 
	C1137.832031,757.277893 1136.919800,752.227966 1136.957031,748.132019 
	C1137.055420,737.342651 1136.990234,726.551697 1136.990234,715.000366 
	C1131.756470,716.642334 1127.131348,718.093384 1122.430542,719.568115 
	C1121.450806,711.149231 1121.395874,710.897156 1128.597534,708.763855 
	C1133.142456,707.417603 1137.915405,706.807251 1142.611084,706.015625 
	C1145.227051,705.574646 1146.095825,707.012451 1146.045044,709.523804 
	C1145.937256,714.847351 1146.013794,720.174622 1146.014648,726.000244 
z" data-index="11"></path>
<path fill="#72DEBD" opacity="1.000000" stroke="none" d="
M774.817444,186.796783 
	C774.860291,190.748688 774.772400,194.369186 774.792603,198.327972 
	C773.736572,199.520020 772.363098,200.192795 771.442261,201.257095 
	C765.641846,207.960999 758.298035,209.730011 750.473083,206.166229 
	C743.633118,203.051056 739.928528,195.758423 741.043213,187.602951 
	C741.943665,181.015015 748.190002,174.989349 755.130188,174.013596 
	C763.656616,172.814819 770.433167,176.644592 773.919739,184.635498 
	C774.184204,185.241592 774.431396,185.855240 774.817444,186.796783 
z" data-index="12"></path>
<path fill="#72DDBC" opacity="1.000000" stroke="none" d="
M1389.599609,228.897980 
	C1387.038330,227.232849 1384.924805,225.554443 1382.370728,223.651581 
	C1381.705200,222.988480 1381.480469,222.549820 1381.255615,222.111176 
	C1380.526245,217.396606 1379.796997,212.682022 1378.971069,207.531174 
	C1382.480957,199.716949 1387.704102,194.775955 1396.562256,195.007202 
	C1405.371338,195.237198 1412.798706,202.782227 1412.930176,211.801865 
	C1413.061890,220.829666 1405.859375,228.650024 1397.016724,228.992203 
	C1394.698608,229.081909 1392.370850,228.927185 1389.599609,228.897980 
z" data-index="13"></path>
<path fill="#72DEBC" opacity="1.000000" stroke="none" d="
M1295.949585,344.900269 
	C1298.124023,346.448303 1300.298462,347.996368 1302.743408,349.553528 
	C1305.658813,355.319611 1308.424438,360.879333 1305.240967,367.561798 
	C1300.866455,376.744843 1291.113037,380.641235 1281.935425,376.352234 
	C1273.585205,372.449890 1270.039551,362.105560 1274.088501,353.483643 
	C1274.509399,352.587280 1274.872437,351.663727 1275.603149,350.323090 
	C1278.091919,348.246796 1280.239746,346.600159 1282.780273,344.914429 
	C1287.431885,344.883636 1291.690674,344.891937 1295.949585,344.900269 
z" data-index="14" style="opacity: 1;"></path>
<path fill="#72DEBC" opacity="1.000000" stroke="none" d="
M1240.098755,266.045532 
	C1240.964844,268.432343 1241.831055,270.819153 1242.790283,273.952789 
	C1241.810669,278.801941 1240.738037,282.904266 1239.347778,287.093506 
	C1236.927246,288.790588 1234.824097,290.400787 1232.721069,292.010986 
	C1225.658569,293.664734 1218.667725,293.962830 1213.610840,287.776550 
	C1211.338257,284.996399 1210.374023,281.146667 1208.770752,277.382355 
	C1209.103882,274.432709 1209.482666,271.882965 1210.020508,268.680420 
	C1213.278442,265.368896 1215.984253,261.838959 1219.555542,260.227875 
	C1227.657104,256.573242 1234.353394,260.163452 1240.098755,266.045532 
z" data-index="15"></path>
<path fill="#0B0C0B" opacity="1.000000" stroke="none" d="
M1232.888184,292.322662 
	C1234.824097,290.400787 1236.927246,288.790588 1239.510498,287.415894 
	C1245.768188,295.371887 1251.584106,303.064178 1257.314575,310.819550 
	C1265.704346,322.173798 1274.032959,333.573273 1282.387573,344.953552 
	C1280.239746,346.600159 1278.091919,348.246796 1275.615234,349.931274 
	C1269.497803,341.885132 1263.804688,333.730652 1257.897461,325.734253 
	C1249.700928,314.638794 1241.343628,303.661957 1232.888184,292.322662 
z" data-index="16"></path>
<path fill="#E6C5EF" opacity="1.000000" stroke="none" d="
M1465.286133,658.632446 
	C1464.966675,583.938232 1464.973999,508.990509 1464.967041,433.588196 
	C1465.316895,434.494659 1465.998413,435.855530 1465.999268,437.216827 
	C1466.050049,509.963531 1466.045044,582.710266 1466.024780,655.456970 
	C1466.024536,656.431030 1465.756226,657.404907 1465.286133,658.632446 
z" data-index="17"></path>
<path fill="#E6C5EF" opacity="1.000000" stroke="none" d="
M1244.423584,658.990356 
	C1245.831299,658.786743 1247.667603,658.608459 1249.754150,658.697632 
	C1248.286987,658.981934 1246.569702,658.998840 1244.423584,658.990356 
z" data-index="18"></path>
<path fill="#E6C5EF" opacity="1.000000" stroke="none" d="
M1254.575073,433.063171 
	C1253.485596,433.263763 1251.982422,433.422241 1250.240845,433.330200 
	C1251.388794,433.060150 1252.775024,433.040619 1254.575073,433.063171 
z" data-index="19"></path>
<path fill="#9463D9" opacity="1.000000" stroke="none" d="
M1219.000000,646.026489 
	C1159.546753,646.026489 1100.593384,646.026489 1041.282715,646.026489 
	C1041.282715,579.255066 1041.282715,513.028870 1041.282715,446.305359 
	C1043.192993,446.213104 1044.965576,446.052979 1046.738281,446.052643 
	C1109.402222,446.040619 1172.066284,446.092194 1234.729858,445.947998 
	C1239.508423,445.937012 1241.176270,447.228760 1240.952148,452.109375 
	C1240.433350,463.407745 1240.160278,474.728668 1240.199097,486.039032 
	C1240.276855,508.683807 1240.745483,531.327148 1240.840454,553.971985 
	C1240.959839,582.470276 1240.866699,610.969421 1240.865112,639.468201 
	C1240.864990,641.425415 1240.865112,643.382690 1240.865112,646.026428 
	C1233.375732,646.026428 1226.437866,646.026428 1219.000000,646.026489 
M1152.749390,518.868286 
	C1154.658569,528.513306 1161.563110,529.206238 1169.429810,528.178894 
	C1169.593506,528.157593 1169.762817,528.172852 1169.929199,528.179321 
	C1172.795410,528.291443 1174.070435,527.014282 1173.113159,524.194336 
	C1171.575806,519.665527 1170.618164,514.732666 1168.138916,510.768982 
	C1160.145020,497.988312 1140.915161,493.238007 1126.319580,499.941803 
	C1116.707520,504.356659 1111.387695,511.710876 1110.782837,522.446716 
	C1110.142090,533.819336 1114.836182,542.072327 1124.834473,547.332458 
	C1127.623047,548.799500 1130.568604,549.970886 1133.456543,551.245789 
	C1139.834595,554.061401 1146.344727,556.612915 1152.559082,559.751282 
	C1156.307495,561.644226 1157.557495,565.358093 1157.076050,569.548279 
	C1156.610596,573.600159 1154.305542,576.179443 1150.637207,577.721313 
	C1140.463623,581.997253 1129.126709,577.199585 1124.636230,566.875061 
	C1123.987793,565.384583 1122.523682,563.301880 1121.279297,563.185852 
	C1116.587646,562.748535 1111.830811,563.010254 1107.188477,563.010254 
	C1106.833130,569.599731 1109.018799,576.335999 1112.698608,581.058044 
	C1122.983643,594.255310 1141.705566,598.856140 1158.334351,592.155762 
	C1167.759766,588.357971 1173.506470,581.389832 1174.729126,571.263550 
	C1175.954834,561.111816 1173.012329,552.334717 1164.118042,546.536194 
	C1159.836426,543.744812 1155.108643,541.592041 1150.451416,539.434082 
	C1144.882202,536.853516 1139.054810,534.813965 1133.560059,532.093933 
	C1129.084839,529.878601 1128.083618,525.637939 1128.826904,520.985107 
	C1129.522949,516.627747 1132.469849,514.432800 1136.548950,513.543030 
	C1142.658081,512.210449 1148.140869,513.060120 1152.749390,518.868286 
z" data-index="20"></path>
<path fill="#9362D9" opacity="1.000000" stroke="none" d="
M1253.874023,633.885864 
	C1253.874023,571.172180 1253.874023,508.943909 1253.874023,446.378113 
	C1320.282227,446.378113 1386.188599,446.378113 1452.583008,446.378113 
	C1452.583008,512.681152 1452.583008,579.007751 1452.583008,645.688843 
	C1386.312378,645.688843 1320.106812,645.688843 1253.309204,645.688843 
	C1253.501953,641.826721 1253.688110,638.098999 1253.874023,633.885864 
M1325.870361,551.301575 
	C1321.029663,563.683472 1316.169922,576.058044 1311.357910,588.451111 
	C1309.447266,593.371460 1309.763062,593.773315 1315.127319,593.857971 
	C1328.582886,594.070007 1328.683472,594.104614 1333.005615,581.511719 
	C1333.997192,578.622375 1335.422485,577.709412 1338.365479,577.773743 
	C1346.350952,577.948303 1354.342773,577.831238 1362.332153,577.827515 
	C1371.691162,577.823120 1371.630859,577.845154 1374.987671,586.583008 
	C1375.915894,588.999329 1377.083862,593.042969 1378.546021,593.233154 
	C1384.439575,593.999756 1390.491089,593.550781 1396.906738,593.550781 
	C1396.307495,591.333130 1396.105957,590.186401 1395.693848,589.121155 
	C1384.541016,560.292969 1373.275757,531.507751 1362.268066,502.624390 
	C1359.901123,496.413971 1354.985107,498.934906 1350.899170,498.346130 
	C1347.159180,497.807220 1345.722778,499.983093 1344.515747,503.154633 
	C1338.485596,518.998169 1332.255371,534.765625 1325.870361,551.301575 
z" data-index="21"></path>
<path fill="#9363D9" opacity="1.000000" stroke="none" d="
M936.000000,446.043579 
	C966.776978,446.043610 997.053955,446.043610 1027.663818,446.043610 
	C1027.663818,512.815857 1027.663818,579.033569 1027.663818,645.651611 
	C961.366821,645.651611 895.156677,645.651611 828.508423,645.651611 
	C828.508423,579.343506 828.508423,513.007324 828.508423,446.043518 
	C864.300781,446.043518 899.900391,446.043518 936.000000,446.043579 
M959.715759,575.154175 
	C967.401001,563.031921 968.859070,549.867432 967.023010,535.864502 
	C964.531250,516.860596 948.917175,500.659088 929.825989,499.153748 
	C917.583252,498.188446 905.232788,498.630737 892.933716,498.317108 
	C888.997620,498.216736 888.248291,500.317017 888.255066,503.656219 
	C888.312866,532.117737 888.339539,560.579590 888.232117,589.040833 
	C888.217834,592.824524 889.705078,593.968018 893.272644,593.916748 
	C903.257202,593.772949 913.254028,594.126648 923.229431,593.792297 
	C937.919861,593.299927 950.446899,588.101746 959.715759,575.154175 
z" data-index="22" style="opacity: 1;"></path>

<path fill="#FDFDFD" opacity="1.000000" stroke="none" d="
M1282.780273,344.914429 
	C1274.032959,333.573273 1265.704346,322.173798 1257.314575,310.819550 
	C1251.584106,303.064178 1245.768188,295.371887 1239.827881,287.329010 
	C1240.738037,282.904266 1241.810669,278.801941 1242.871094,274.283630 
	C1288.763672,256.709625 1334.668701,239.551559 1380.914551,222.252335 
	C1381.480469,222.549820 1381.705200,222.988480 1382.010498,223.667282 
	C1362.844116,250.944839 1343.605591,277.988159 1324.346802,305.017059 
	C1315.004272,318.129150 1305.623657,331.214203 1296.104980,344.605865 
	C1291.690674,344.891937 1287.431885,344.883636 1282.780273,344.914429 
z" data-index="24" style="opacity: 1; visibility: hidden;"></path>

<path fill="#FCFCFC" opacity="1.000000" stroke="none" d="
M466.204376,354.829651 
	C457.006531,345.317383 456.305939,332.148071 463.874817,320.226135 
	C471.302185,308.527069 482.199524,302.035583 495.413025,299.312164 
	C502.376434,297.876923 509.531158,297.370148 517.469543,296.330170 
	C516.640442,311.571442 519.527649,326.215607 514.860718,340.463867 
	C509.488983,356.863739 483.708008,370.295135 466.204376,354.829651 
z" data-index="26" style="opacity: 1; visibility: hidden;"></path>

<path fill="#FDFBFE" opacity="1.000000" stroke="none" d="
M1152.524536,518.569580 
	C1148.140869,513.060120 1142.658081,512.210449 1136.548950,513.543030 
	C1132.469849,514.432800 1129.522949,516.627747 1128.826904,520.985107 
	C1128.083618,525.637939 1129.084839,529.878601 1133.560059,532.093933 
	C1139.054810,534.813965 1144.882202,536.853516 1150.451416,539.434082 
	C1155.108643,541.592041 1159.836426,543.744812 1164.118042,546.536194 
	C1173.012329,552.334717 1175.954834,561.111816 1174.729126,571.263550 
	C1173.506470,581.389832 1167.759766,588.357971 1158.334351,592.155762 
	C1141.705566,598.856140 1122.983643,594.255310 1112.698608,581.058044 
	C1109.018799,576.335999 1106.833130,569.599731 1107.188477,563.010254 
	C1111.830811,563.010254 1116.587646,562.748535 1121.279297,563.185852 
	C1122.523682,563.301880 1123.987793,565.384583 1124.636230,566.875061 
	C1129.126709,577.199585 1140.463623,581.997253 1150.637207,577.721313 
	C1154.305542,576.179443 1156.610596,573.600159 1157.076050,569.548279 
	C1157.557495,565.358093 1156.307495,561.644226 1152.559082,559.751282 
	C1146.344727,556.612915 1139.834595,554.061401 1133.456543,551.245789 
	C1130.568604,549.970886 1127.623047,548.799500 1124.834473,547.332458 
	C1114.836182,542.072327 1110.142090,533.819336 1110.782837,522.446716 
	C1111.387695,511.710876 1116.707520,504.356659 1126.319580,499.941803 
	C1140.915161,493.238007 1160.145020,497.988312 1168.138916,510.768982 
	C1170.618164,514.732666 1171.575806,519.665527 1173.113159,524.194336 
	C1174.070435,527.014282 1172.795410,528.291443 1169.929199,528.179321 
	C1169.762817,528.172852 1169.593506,528.157593 1169.429810,528.178894 
	C1161.563110,529.206238 1154.658569,528.513306 1152.524536,518.569580 
z" data-index="28"></path>
<path fill="#FCFAFD" opacity="1.000000" stroke="none" d="
M1325.982910,550.930725 
	C1332.255371,534.765625 1338.485596,518.998169 1344.515747,503.154633 
	C1345.722778,499.983093 1347.159180,497.807220 1350.899170,498.346130 
	C1354.985107,498.934906 1359.901123,496.413971 1362.268066,502.624390 
	C1373.275757,531.507751 1384.541016,560.292969 1395.693848,589.121155 
	C1396.105957,590.186401 1396.307495,591.333130 1396.906738,593.550781 
	C1390.491089,593.550781 1384.439575,593.999756 1378.546021,593.233154 
	C1377.083862,593.042969 1375.915894,588.999329 1374.987671,586.583008 
	C1371.630859,577.845154 1371.691162,577.823120 1362.332153,577.827515 
	C1354.342773,577.831238 1346.350952,577.948303 1338.365479,577.773743 
	C1335.422485,577.709412 1333.997192,578.622375 1333.005615,581.511719 
	C1328.683472,594.104614 1328.582886,594.070007 1315.127319,593.857971 
	C1309.763062,593.773315 1309.447266,593.371460 1311.357910,588.451111 
	C1316.169922,576.058044 1321.029663,563.683472 1325.982910,550.930725 
M1343.895386,550.356750 
	C1342.589722,554.084473 1341.284058,557.812195 1339.819824,561.992798 
	C1348.848755,561.992798 1357.251343,561.992798 1366.227051,561.992798 
	C1361.826294,548.390808 1357.558472,535.199890 1353.272705,521.953308 
	C1350.231812,531.095032 1347.156006,540.341675 1343.895386,550.356750 
z" data-index="29"></path>
<path fill="#FCFAFD" opacity="1.000000" stroke="none" d="
M959.505859,575.450806 
	C950.446899,588.101746 937.919861,593.299927 923.229431,593.792297 
	C913.254028,594.126648 903.257202,593.772949 893.272644,593.916748 
	C889.705078,593.968018 888.217834,592.824524 888.232117,589.040833 
	C888.339539,560.579590 888.312866,532.117737 888.255066,503.656219 
	C888.248291,500.317017 888.997620,498.216736 892.933716,498.317108 
	C905.232788,498.630737 917.583252,498.188446 929.825989,499.153748 
	C948.917175,500.659088 964.531250,516.860596 967.023010,535.864502 
	C968.859070,549.867432 967.401001,563.031921 959.505859,575.450806 
M908.750305,514.811890 
	C905.105652,514.845764 906.158813,517.632446 906.151917,519.540039 
	C906.088135,537.187073 906.106567,554.834473 906.128174,572.481750 
	C906.129944,573.925171 906.330933,575.368347 906.433105,576.728027 
	C913.650085,576.728027 920.572205,577.585388 927.196045,576.544800 
	C939.950256,574.541321 947.850281,565.164673 949.485535,549.477539 
	C951.008057,534.871948 945.453064,519.262878 926.622986,515.480713 
	C921.158997,514.383240 915.354431,514.981262 908.750305,514.811890 
z" data-index="30" style="opacity: 1;"></path>
<path fill="#F5D1FB" opacity="1.000000" stroke="none" d="
M921.977234,739.033875 
	C921.777649,733.846741 924.969910,731.487305 928.742554,732.355042 
	C931.177124,732.915039 934.032043,736.315552 934.640442,738.923218 
	C935.343201,741.935974 933.171692,744.847290 929.174194,745.025574 
	C925.145874,745.205200 921.746155,744.708557 921.977234,739.033875 
z" data-index="31" style="opacity: 1;"></path>
<path fill="#9467D6" opacity="1.000000" stroke="none" d="
M1343.987793,549.972534 
	C1347.156006,540.341675 1350.231812,531.095032 1353.272705,521.953308 
	C1357.558472,535.199890 1361.826294,548.390808 1366.227051,561.992798 
	C1357.251343,561.992798 1348.848755,561.992798 1339.819824,561.992798 
	C1341.284058,557.812195 1342.589722,554.084473 1343.987793,549.972534 
z" data-index="32"></path>
<path fill="#9464D8" opacity="1.000000" stroke="none" d="
M909.228149,514.806946 
	C915.354431,514.981262 921.158997,514.383240 926.622986,515.480713 
	C945.453064,519.262878 951.008057,534.871948 949.485535,549.477539 
	C947.850281,565.164673 939.950256,574.541321 927.196045,576.544800 
	C920.572205,577.585388 913.650085,576.728027 906.433105,576.728027 
	C906.330933,575.368347 906.129944,573.925171 906.128174,572.481750 
	C906.106567,554.834473 906.088135,537.187073 906.151917,519.540039 
	C906.158813,517.632446 905.105652,514.845764 909.228149,514.806946 
z" data-index="33"></path>
</svg>