<svg xmlns="http://www.w3.org/2000/svg" width="100" height="80" viewBox="0 0 100 80">
  <g>
    <path style="fill:none;stroke:#000000;stroke-width:2" d="M 70.17,40 L 95.17,40" />
    <path style="fill:none;stroke:#000000;stroke-width:2" d="M 64,22 L 5,22" />
    <path style="fill:none;stroke:#000000;stroke-width:2" d="M 64,58 L 5,58" />
    <path style="fill:#000000" d="M 34,3.5 L 34,76.5 L 35.5,76.5 C 55.63,76.5 72,60.13 72,40 C 72,19.87 55.63,3.5 35.5,3.5 L 34,3.5 z M 37,6.66 C 54.8,7.46 68.5,22.01 68.5,40 C 68.5,57.99 54.8,72.54 37,73.34 L 37,6.66 z" />
    <path style="fill:#000000;stroke:#000000;stroke-width:3" d="M 75,40 A 5,5 0 1 1 65,40 A 5,5 0 1 1 75,40 z" />
  </g>
</svg>
