<?xml version="1.0" encoding="UTF-8"?>
<svg width="40px" height="40px" viewBox="0 0 40 40" version="1.1" xmlns="http://www.w3.org/2000/svg" xmlns:xlink="http://www.w3.org/1999/xlink">
    <title>89B83F0F-A6BA-47BC-867B-4A2FBA89E978@1x</title>
    <g id="Style-Guide" stroke="none" stroke-width="1" fill="none" fill-rule="evenodd">
        <g id="Icons" transform="translate(-715.000000, -612.000000)">
            <g id="Group-8-Copy" transform="translate(715.000000, 612.000000)">
                <circle id="Oval" fill="#D6D7F0" cx="20" cy="20" r="20"></circle>
                <g id="bank2" transform="translate(10.000000, 10.000000)" fill="#25454A">
                    <path d="M10.34625,0.104677083 C10.1365137,-0.0348923611 9.86348626,-0.0348923611 9.65375,0.104677083 L0.27875,6.35467708 C0.0496861507,6.50741614 -0.0524522793,6.79205641 0.0272399687,7.05558746 C0.106932217,7.3191185 0.349683056,7.49946366 0.625,7.49967708 L2.96875,7.49967708 L2.96875,16.2496771 L1.875,16.2496771 C1.52982203,16.2496771 1.25,16.5294991 1.25,16.8746771 C1.25,17.2198551 1.52982203,17.4996771 1.875,17.4996771 L18.125,17.4996771 C18.470178,17.4996771 18.75,17.2198551 18.75,16.8746771 C18.75,16.5294991 18.470178,16.2496771 18.125,16.2496771 L17.03125,16.2496771 L17.03125,7.49967708 L19.375,7.49967708 C19.6503169,7.49946366 19.8930678,7.3191185 19.97276,7.05558746 C20.0524523,6.79205641 19.9503138,6.50741614 19.72125,6.35467708 L10.34625,0.104677083 Z M15.46875,7.49967708 L15.46875,16.2496771 L13.90625,16.2496771 L13.90625,7.49967708 L15.46875,7.49967708 Z M12.34375,7.49967708 L12.34375,16.2496771 L10.78125,16.2496771 L10.78125,7.49967708 L12.34375,7.49967708 Z M9.21875,7.49967708 L9.21875,16.2496771 L7.65625,16.2496771 L7.65625,7.49967708 L9.21875,7.49967708 Z M6.09375,7.49967708 L6.09375,16.2496771 L4.53125,16.2496771 L4.53125,7.49967708 L6.09375,7.49967708 Z M10,4.99967708 C9.30964406,4.99967708 8.75,4.44003302 8.75,3.74967708 C8.75,3.05932115 9.30964406,2.49967708 10,2.49967708 C10.6903559,2.49967708 11.25,3.05932115 11.25,3.74967708 C11.25,4.44003302 10.6903559,4.99967708 10,4.99967708 Z M0.625,18.7496771 C0.279822031,18.7496771 0,19.0294991 0,19.3746771 C0,19.7198551 0.279822031,19.9996771 0.625,19.9996771 L19.375,19.9996771 C19.720178,19.9996771 20,19.7198551 20,19.3746771 C20,19.0294991 19.720178,18.7496771 19.375,18.7496771 L0.625,18.7496771 Z" id="Shape"></path>
                </g>
            </g>
        </g>
    </g>
</svg>