<?xml version="1.0" encoding="UTF-8"?>
<svg width="40px" height="40px" viewBox="0 0 40 40" version="1.1" xmlns="http://www.w3.org/2000/svg" xmlns:xlink="http://www.w3.org/1999/xlink">
    <title>42C7FD43-A022-4BDF-B7DB-B2A1B198CDFD@1x</title>
    <g id="Style-Guide" stroke="none" stroke-width="1" fill="none" fill-rule="evenodd">
        <g id="Icons" transform="translate(-625.000000, -612.000000)">
            <g id="Group-2" transform="translate(625.000000, 612.000000)">
                <circle id="Oval" fill="#D6D7F0" cx="20" cy="20" r="20"></circle>
                <g id="bootstrap-icon-printer-fill" transform="translate(10.000000, 12.000000)" fill="#25454A" fill-rule="nonzero">
                    <path d="M6.25,0 C4.86928813,0 3.75,1.11928813 3.75,2.5 L3.75,3.75 L16.25,3.75 L16.25,2.5 C16.25,1.11928813 15.1307119,0 13.75,0 L6.25,0 Z M13.75,10 L6.25,10 C5.55964406,10 5,10.5596441 5,11.25 L5,15 C5,15.6903559 5.55964406,16.25 6.25,16.25 L13.75,16.25 C14.4403559,16.25 15,15.6903559 15,15 L15,11.25 C15,10.5596441 14.4403559,10 13.75,10 Z" id="Shape"></path>
                    <path d="M0,7.5 C0,6.11928813 1.11928813,5 2.5,5 L17.5,5 C18.8807119,5 20,6.11928813 20,7.5 L20,11.25 C20,12.6307119 18.8807119,13.75 17.5,13.75 L16.25,13.75 L16.25,11.25 C16.25,9.86928813 15.1307119,8.75 13.75,8.75 L6.25,8.75 C4.86928813,8.75 3.75,9.86928813 3.75,11.25 L3.75,13.75 L2.5,13.75 C1.11928813,13.75 0,12.6307119 0,11.25 L0,7.5 Z M3.125,8.75 C3.47017797,8.75 3.75,8.47017797 3.75,8.125 C3.75,7.77982203 3.47017797,7.5 3.125,7.5 C2.77982203,7.5 2.5,7.77982203 2.5,8.125 C2.5,8.47017797 2.77982203,8.75 3.125,8.75 Z" id="Shape"></path>
                </g>
            </g>
        </g>
    </g>
</svg>