<?xml version="1.0" encoding="UTF-8"?>
<svg width="40px" height="40px" viewBox="0 0 40 40" version="1.1" xmlns="http://www.w3.org/2000/svg" xmlns:xlink="http://www.w3.org/1999/xlink">
    <title>1BC13BAC-BDBE-4702-A549-A9F3C63EF73C@1x</title>
    <g id="Style-Guide" stroke="none" stroke-width="1" fill="none" fill-rule="evenodd">
        <g id="Icons" transform="translate(-445.000000, -612.000000)">
            <g id="circle-icon-time" transform="translate(445.000000, 612.000000)">
                <circle id="Oval-Copy" fill="#7E9C8D" opacity="0.3" cx="20" cy="20" r="20"></circle>
                <path d="M23.4995144,8 C24.8795144,8 26.0000072,9.119 26.0000072,10.5005 L26.0000072,13.2905 C27.525018,14.6524671 28.5398872,16.4938356 28.8770144,18.5105 C29.0942018,18.4754375 29.3158607,18.5371101 29.4837286,18.6793075 C29.6515966,18.8215049 29.7488823,19.0300036 29.7500144,19.25 L29.7500144,20.7500001 C29.7500144,20.970351 29.6529159,21.1795087 29.4847797,21.3219334 C29.3166435,21.464358 29.0943819,21.5256376 28.8770144,21.4895001 C28.5398872,23.5061645 27.525018,25.347533 26.0000072,26.7095001 L26.0000072,29.4995001 C26.0000072,30.8795001 24.8810144,32 23.4995144,32 L16.5005144,32 C15.1205144,32 14.0000072,30.8810001 14.0000072,29.4995001 L14.0000072,26.7095001 C12.0884035,25.003558 10.9967724,22.5621249 11.0000072,20 C11.0000072,17.3345 12.1580144,14.939 14.0000072,13.292 L14.0000072,10.5005 C14.0000072,9.1205 15.1190144,8 16.5005144,8 L23.4995144,8 Z M20.0000144,12.5 C15.8578788,12.5 12.5000144,15.8578644 12.5000144,20 C12.5000144,24.1421357 15.8578788,27.5 20.0000144,27.5 C24.14215,27.5 27.5000144,24.1421357 27.5000144,20 C27.5000144,15.8578644 24.14215,12.5 20.0000144,12.5 Z M20.0000144,14.75 C20.414228,14.75 20.7500144,15.0857865 20.7500144,15.5 L20.7500144,15.5 L20.7500144,20.0000001 C20.7500144,20.4142136 20.414228,20.75 20.0000144,20.75 L20.0000144,20.75 L17.0000144,20.75 C16.5858008,20.75 16.2500144,20.4142136 16.2500144,20.0000001 C16.2500144,19.5857865 16.5858008,19.25 17.0000144,19.25 L17.0000144,19.25 L19.2500144,19.25 L19.2500144,15.5 C19.2500144,15.0857865 19.5858008,14.75 20.0000144,14.75 Z" id="Combined-Shape" fill="#25454A"></path>
            </g>
        </g>
    </g>
</svg>