<?xml version="1.0" encoding="UTF-8"?>
<svg width="40px" height="40px" viewBox="0 0 40 40" version="1.1" xmlns="http://www.w3.org/2000/svg" xmlns:xlink="http://www.w3.org/1999/xlink">
    <title>1144FBA1-C830-444A-9CA3-663C041EF39F@1x</title>
    <g id="Style-Guide" stroke="none" stroke-width="1" fill="none" fill-rule="evenodd">
        <g id="Icons" transform="translate(-535.000000, -612.000000)">
            <g id="circle-icon-id" transform="translate(535.000000, 612.000000)">
                <circle id="Oval-Copy-7" fill="#7E9C8D" opacity="0.3" cx="20" cy="20" r="20"></circle>
                <path d="M17,20 C19.4852814,20 21.5,17.9852814 21.5,15.5 C21.5,13.0147186 19.4852814,11 17,11 C14.5147187,11 12.5,13.0147186 12.5,15.5 C12.5,17.9852814 14.5147187,20 17,20 Z M9.5,29 C9.5,29 8,29 8,27.5 C8,26 9.5,21.5 17,21.5 C24.5,21.5 26,26 26,27.5 C26,29 24.5,29 24.5,29 L9.5,29 Z M24.5000001,13.25 C24.5000001,12.8357864 24.8357865,12.5 25.2500001,12.5 L31.2500001,12.5 C31.6642137,12.5 32.0000001,12.8357864 32.0000001,13.25 C32.0000001,13.6642136 31.6642137,14 31.2500001,14 L25.2500001,14 C24.8357865,14 24.5000001,13.6642136 24.5000001,13.25 Z M25.2500001,17 C24.8357865,17 24.5000001,17.3357865 24.5000001,17.75 C24.5000001,18.1642136 24.8357865,18.5 25.2500001,18.5 L31.2500001,18.5 C31.6642137,18.5 32.0000001,18.1642136 32.0000001,17.75 C32.0000001,17.3357865 31.6642137,17 31.2500001,17 L25.2500001,17 Z M28.2500001,21.5 C27.8357865,21.5 27.5000001,21.8357865 27.5000001,22.25 C27.5000001,22.6642136 27.8357865,23 28.2500001,23 L31.2500001,23 C31.6642137,23 32.0000001,22.6642136 32.0000001,22.25 C32.0000001,21.8357865 31.6642137,21.5 31.2500001,21.5 L28.2500001,21.5 Z M28.2500001,26.0000001 C27.8357865,26.0000001 27.5000001,26.3357865 27.5000001,26.7500001 C27.5000001,27.1642136 27.8357865,27.5000001 28.2500001,27.5000001 L31.2500001,27.5000001 C31.6642137,27.5000001 32.0000001,27.1642136 32.0000001,26.7500001 C32.0000001,26.3357865 31.6642137,26.0000001 31.2500001,26.0000001 L28.2500001,26.0000001 Z" id="person-lines-fill" fill="#25454A"></path>
            </g>
        </g>
    </g>
</svg>