<?xml version="1.0" encoding="UTF-8"?>
<svg width="40px" height="40px" viewBox="0 0 40 40" version="1.1" xmlns="http://www.w3.org/2000/svg" xmlns:xlink="http://www.w3.org/1999/xlink">
    <title>B5221FD9-6265-41CD-8E58-E8774E21C150@1x</title>
    <g id="Style-Guide" stroke="none" stroke-width="1" fill="none" fill-rule="evenodd">
        <g id="Icons" transform="translate(-355.000000, -612.000000)">
            <g id="circle-icon-doc" transform="translate(355.000000, 612.000000)">
                <circle id="Oval" fill="#7E9C8D" opacity="0.3" cx="20" cy="20" r="20"></circle>
                <path d="M22.25,8 L29,14.75 L29,29 C29,30.6568543 27.6568543,32 26,32 L26,32 L14,32 C12.3431458,32 11,30.6568543 11,29 L11,29 L11,11 C11,9.34314576 12.3431458,8 14,8 L14,8 L22.25,8 Z M22.25,9.50000001 L14,9.50000001 C13.1715729,9.50000001 12.5,10.1715729 12.5,11 L12.5,11 L12.5,29 C12.5,29.8284272 13.1715729,30.5 14,30.5 L14,30.5 L26,30.5 C26.8284272,30.5 27.5,29.8284272 27.5,29 L27.5,29 L27.5,14.75 L24.5,14.75 C23.2573594,14.75 22.25,13.7426407 22.25,12.5 L22.25,12.5 L22.25,9.50000001 Z M19.25,24.5000001 C19.6642136,24.5000001 20,24.8357865 20,25.2500001 C20,25.6642136 19.6642136,26.0000001 19.25,26.0000001 L16.25,26.0000001 C15.8357865,26.0000001 15.5,25.6642136 15.5,25.2500001 C15.5,24.8357865 15.8357865,24.5000001 16.25,24.5000001 L19.25,24.5000001 Z M23.7500001,21.5000001 C24.1642136,21.5000001 24.5,21.8357865 24.5,22.2500001 C24.5,22.6642136 24.1642136,23.0000001 23.7500001,23.0000001 L16.25,23.0000001 C15.8357865,23.0000001 15.5,22.6642136 15.5,22.2500001 C15.5,21.8357865 15.8357865,21.5000001 16.25,21.5000001 L23.7500001,21.5000001 Z M23.7500001,18.5 C24.1642136,18.5 24.5,18.8357865 24.5,19.25 C24.5,19.6642136 24.1642136,20 23.7500001,20 L23.7500001,20 L16.25,20 C15.8357865,20 15.5,19.6642136 15.5,19.25 C15.5,18.8357865 15.8357865,18.5 16.25,18.5 L16.25,18.5 Z" id="Combined-Shape" fill="#25454A"></path>
            </g>
        </g>
    </g>
</svg>