<?xml version="1.0" encoding="UTF-8"?>
<svg width="16px" height="16px" viewBox="0 0 16 16" version="1.1" xmlns="http://www.w3.org/2000/svg" xmlns:xlink="http://www.w3.org/1999/xlink">
    <title>14A16CE3-0FA8-4CC8-9A7C-FAA2953BBA86@1x</title>
    <g id="Style-Guide" stroke="none" stroke-width="1" fill="none" fill-rule="evenodd">
        <g id="Icons" transform="translate(-421.000000, -557.000000)" fill="#25454A">
            <path d="M429.277,557.083742 C429.109211,556.972086 428.890789,556.972086 428.723,557.083742 L421.223,562.083742 C421.039749,562.205933 420.958038,562.433645 421.021792,562.64447 C421.085546,562.855295 421.279746,562.999571 421.5,562.999742 L423.375,562.999742 L423.375,569.999742 L422.5,569.999742 C422.223858,569.999742 422,570.223599 422,570.499742 C422,570.775884 422.223858,570.999742 422.5,570.999742 L435.5,570.999742 C435.776142,570.999742 436,570.775884 436,570.499742 C436,570.223599 435.776142,569.999742 435.5,569.999742 L434.625,569.999742 L434.625,562.999742 L436.5,562.999742 C436.720254,562.999571 436.914454,562.855295 436.978208,562.64447 C437.041962,562.433645 436.960251,562.205933 436.777,562.083742 L429.277,557.083742 Z M433.375,562.999742 L433.375,569.999742 L432.125,569.999742 L432.125,562.999742 L433.375,562.999742 Z M430.875,562.999742 L430.875,569.999742 L429.625,569.999742 L429.625,562.999742 L430.875,562.999742 Z M428.375,562.999742 L428.375,569.999742 L427.125,569.999742 L427.125,562.999742 L428.375,562.999742 Z M425.875,562.999742 L425.875,569.999742 L424.625,569.999742 L424.625,562.999742 L425.875,562.999742 Z M429,560.999742 C428.447715,560.999742 428,560.552026 428,559.999742 C428,559.447457 428.447715,558.999742 429,558.999742 C429.552285,558.999742 430,559.447457 430,559.999742 C430,560.552026 429.552285,560.999742 429,560.999742 Z M421.5,571.999742 C421.223858,571.999742 421,572.223599 421,572.499742 C421,572.775884 421.223858,572.999742 421.5,572.999742 L436.5,572.999742 C436.776142,572.999742 437,572.775884 437,572.499742 C437,572.223599 436.776142,571.999742 436.5,571.999742 L421.5,571.999742 Z" id="icon-bank"></path>
        </g>
    </g>
</svg>