<?xml version="1.0" encoding="UTF-8"?>
<svg width="16px" height="16px" viewBox="0 0 16 16" version="1.1" xmlns="http://www.w3.org/2000/svg" xmlns:xlink="http://www.w3.org/1999/xlink">
    <title>CF8E7C3E-B284-49BF-A738-3803E5D94E3C@1x</title>
    <g id="Style-Guide" stroke="none" stroke-width="1" fill="none" fill-rule="evenodd">
        <g id="Icons" transform="translate(-487.000000, -557.000000)" fill="#25454A">
            <path d="M495,573 C499.418278,573 503,569.418278 503,565 C503,560.581722 499.418278,557 495,557 C490.581722,557 487,560.581722 487,565 C487,569.418278 490.581722,573 495,573 Z M495.93,563.588 L494.93,568.293 C494.86,568.633 494.959,568.826 495.234,568.826 C495.428,568.826 495.721,568.756 495.92,568.58 L495.832,568.996 C495.545,569.342 494.912,569.594 494.367,569.594 C493.664,569.594 493.365,569.172 493.559,568.275 L494.297,564.807 C494.361,564.514 494.303,564.408 494.01,564.337 L493.559,564.256 L493.641,563.875 L495.931,563.588 L495.93,563.588 Z M495,562.5 C494.447715,562.5 494,562.052285 494,561.5 C494,560.947715 494.447715,560.5 495,560.5 C495.552285,560.5 496,560.947715 496,561.5 C496,562.052285 495.552285,562.5 495,562.5 Z" id="icon-info"></path>
        </g>
    </g>
</svg>