<?xml version="1.0" encoding="UTF-8"?>
<svg width="16px" height="16px" viewBox="0 0 16 16" version="1.1" xmlns="http://www.w3.org/2000/svg" xmlns:xlink="http://www.w3.org/1999/xlink">
    <title>2CF0C982-5D84-4C90-A228-0AF02E0372A4@1x</title>
    <g id="Style-Guide" stroke="none" stroke-width="1" fill="none" fill-rule="evenodd">
        <g id="Icons" transform="translate(-355.000000, -557.000000)" fill="#25454A">
            <path d="M371,565 C371,569.418278 367.418278,573 363,573 C358.581722,573 355,569.418278 355,565 C355,560.581722 358.581722,557 363,557 C367.418278,557 371,560.581722 371,565 Z M363,560.5 C363,560.223858 362.776142,560 362.5,560 C362.223858,560 362,560.223858 362,560.5 L362,566 C362.000058,566.179399 362.096223,566.345018 362.252,566.434 L365.752,568.434 C365.990878,568.563101 366.289131,568.477955 366.423848,568.242199 C366.558566,568.006443 366.480502,567.706259 366.248,567.566 L363,565.71 L363,560.5 Z" id="icon-clock"></path>
        </g>
    </g>
</svg>