<?xml version="1.0" encoding="UTF-8" standalone="no"?>
<svg
   width="360"
   height="60"
   viewBox="0 0 360 60"
   fill="none"
   version="1.1"
   id="svg4"
   sodipodi:docname="logo.svg"
   inkscape:version="1.4.2 (f4327f4, 2025-05-13)"
   inkscape:export-filename="logo.svg"
   inkscape:export-xdpi="96"
   inkscape:export-ydpi="96"
   xmlns:inkscape="http://www.inkscape.org/namespaces/inkscape"
   xmlns:sodipodi="http://sodipodi.sourceforge.net/DTD/sodipodi-0.dtd"
   xmlns="http://www.w3.org/2000/svg"
   xmlns:svg="http://www.w3.org/2000/svg">
  <sodipodi:namedview
     id="namedview4"
     pagecolor="#ffffff"
     bordercolor="#eeeeee"
     borderopacity="1"
     inkscape:showpageshadow="0"
     inkscape:pageopacity="0"
     inkscape:pagecheckerboard="0"
     inkscape:deskcolor="#d1d1d1"
     inkscape:zoom="3.3953935"
     inkscape:cx="163.3095"
     inkscape:cy="37.109101"
     inkscape:window-width="1920"
     inkscape:window-height="1055"
     inkscape:window-x="-7"
     inkscape:window-y="-7"
     inkscape:window-maximized="1"
     inkscape:current-layer="svg4" />
  <defs
     id="defs4">
    <linearGradient
       id="paint0_linear_340_3764"
       x1="39.347801"
       y1="28.463301"
       x2="37.6035"
       y2="8.1018801"
       gradientUnits="userSpaceOnUse">
      <stop
         stop-color="#005FFE"
         id="stop3" />
      <stop
         offset="0.706428"
         stop-color="#0941CC"
         id="stop4" />
    </linearGradient>
    <clipPath
       id="clip0_340_3764">
      <rect
         width="42"
         height="42"
         fill="#ffffff"
         transform="translate(22,11)"
         id="rect4"
         x="0"
         y="0" />
    </clipPath>
  </defs>
  <g
     clip-path="url(#clip0_340_3764)"
     id="g2"
     transform="translate(-9.9033546,-2)">
    <path
       d="m 60.273,11 h -8.6111 l 10e-5,11.0272 c 0,0.787 -0.3003,1.5741 -0.9008,2.1746 l -11.4007,11.401 -1e-4,14.9369 c 0,1.3588 1.1015,2.4603 2.4603,2.4603 h 7.3809 c 1.3588,0 2.4603,-1.1015 2.4603,-2.4603 l 10e-5,-8.5669 c 0,-0.7871 0.3003,-1.5741 0.9008,-2.1746 l 9.5992,-9.5997 c 1.201,-1.2011 1.8015,-2.7752 1.8015,-4.3493 V 14.6904 C 63.9634,12.6523 62.3112,11 60.273,11 Z"
       fill="#393939"
       id="path1" />
    <path
       d="m 49.1508,11.0361 c -1.5741,0 -3.1482,0.6005 -4.3492,1.8016 l -9.5997,9.5992 c -0.6005,0.6005 -1.3875,0.9008 -2.1746,0.9008 h -8.567 C 23.1015,23.3377 22,24.4392 22,25.798 v 7.381 c 0,1.3587 1.1015,2.4603 2.4603,2.4603 l 14.9368,-10e-5 11.4011,-11.4008 c 0.6005,-0.6005 1.3876,-0.9007 2.1746,-0.9007 H 64 v -8.6111 c 0,-2.0381 -1.6523,-3.6904 -3.6904,-3.6904 z"
       fill="url(#paint0_linear_340_3764)"
       id="path2"
       style="fill:url(#paint0_linear_340_3764)" />
  </g>
  <path
     style="font-size:40px;font-family:Stolzl;-inkscape-font-specification:Stolzl;text-align:center;text-anchor:middle;fill:#393939;stroke-width:0.789"
     d="m 81.943272,11.959971 c -8.16,0 -14.48,6.2 -14.48,14.44 0,8.24 6.32,14.44 14.44,14.44 8.16,0 14.44,-6.2 14.44,-14.44 0,-8.24 -6.28,-14.44 -14.4,-14.44 z m -0.04,3.16 c 6.24,0 11.08,4.8 11.08,11.28 0,6.48 -4.84,11.28 -11.08,11.28 -6.24,0 -11.08,-4.84 -11.08,-11.28 0,-6.44 4.84,-11.28 11.08,-11.28 z m 31.719978,2.84 c -3.8,0 -6.8,1.96 -8.48,4.96 v -4.52 h -3.32 v 32 h 3.32 v -14.44 c 1.68,2.96 4.64,4.88 8.44,4.88 6,0 10.32,-4.8 10.32,-11.44 0,-6.68 -4.32,-11.44 -10.28,-11.44 z m -0.64,19.72 c -4.48,0 -7.88,-3.44 -7.88,-8.28 0,-4.84 3.4,-8.28 7.88,-8.28 4.44,0 7.56,3.48 7.56,8.28 0,4.84 -3.12,8.28 -7.56,8.28 z m 26.32002,-19.72 c -6.56,0 -11.24,4.84 -11.24,11.52 0,6.72 4.76,11.36 11.28,11.36 4.6,0 8.6,-2.28 10.44,-6.96 h -3.44 c -1.32,2.56 -3.84,3.84 -6.88,3.84 -4.44,0 -7.68,-2.76 -8,-7.32 h 18.84 c 0.28,-7.24 -4.16,-12.44 -11,-12.44 z m 0,3.12 c 3.96,0 6.68,2.52 7.4,6.2 h -15.08 c 0.76,-3.6 3.64,-6.2 7.68,-6.2 z m 27.04003,-3.12 c -3.84,0 -6.4,1.84 -7.88,4.8 v -4.36 h -3.32 v 22 h 3.32 v -11.28 c 0,-4.84 2.48,-8 6.96,-8 3.6,0 5.56,2 5.56,5.96 v 13.32 h 3.32 v -13.96 c 0,-5.36 -3,-8.48 -7.96,-8.48 z m 53.87998,8.44 c 0,-8.24 -6.28,-14.44 -14.4,-14.44 -8.16,0 -14.48,6.2 -14.48,14.44 0,8.24 6.32,14.44 14.44,14.44 2.68,0 5.16,-0.64 7.28,-1.84 l 4.6,6.12 2.56,-1.92 -4.56,-6.08 c 2.84,-2.6 4.56,-6.4 4.56,-10.72 z m -14.44,11.28 c -6.24,0 -11.08,-4.84 -11.08,-11.28 0,-6.44 4.84,-11.28 11.08,-11.28 6.24,0 11.08,4.8 11.08,11.28 0,6.48 -4.84,11.28 -11.08,11.28 z m 36.35997,-12.16 c 2.72,-1.12 3.96,-3.12 3.96,-6 0,-4.44 -2.76,-7.12 -8.48,-7.12 h -11.56 v 28 h 11.76 c 6.08,0 9.16,-3 9.16,-7.76 0,-3.56 -1.56,-6.2 -4.84,-7.12 z m 0.6,-5.52 c 0,2.68 -1.36,4.4 -5.6,4.4 h -7.76 v -8.84 h 7.84 c 4.12,0 5.52,1.64 5.52,4.44 z m -4.96,17.24 h -8.4 v -9.8 h 8.32 c 4.4,0 5.96,1.88 5.96,4.96 0,2.88 -1.48,4.84 -5.88,4.84 z m 24.28003,-19.28 c -6.56,0 -11.24,4.84 -11.24,11.52 0,6.72 4.76,11.36 11.28,11.36 4.6,0 8.6,-2.28 10.44,-6.96 h -3.44 c -1.32,2.56 -3.84,3.84 -6.88,3.84 -4.44,0 -7.68,-2.76 -8,-7.32 h 18.84 c 0.28,-7.24 -4.16,-12.44 -11,-12.44 z m 0,3.12 c 3.96,0 6.68,2.52 7.4,6.2 h -15.08 c 0.76,-3.6 3.64,-6.2 7.68,-6.2 z m 27.04003,-3.12 c -3.84,0 -6.4,1.84 -7.88,4.8 v -4.36 h -3.32 v 22 h 3.32 v -11.28 c 0,-4.84 2.48,-8 6.96,-8 3.6,0 5.56,2 5.56,5.96 v 13.32 h 3.32 v -13.96 c 0,-5.36 -3,-8.48 -7.96,-8.48 z m 24.12001,22.88 c 5.04,0 9.48,-3 10.68,-8.12 h -3.44 c -1.04,3.08 -3.84,5.04 -7.24,5.04 -4.6,0 -8,-3.48 -8,-8.36 0,-4.84 3.36,-8.36 8,-8.36 3.4,0 6.2,1.92 7.24,5.04 h 3.44 c -1.16,-5.04 -5.56,-8.12 -10.68,-8.12 -6.44,0 -11.36,4.88 -11.36,11.44 0,6.56 4.92,11.44 11.36,11.44 z m 26.72002,-22.88 c -3.8,0 -6.36,1.8 -7.88,4.72 v -13.08 h -3.32 v 30.8 h 3.32 v -11.28 c 0,-4.84 2.44,-8 6.96,-8 3.64,0 5.56,2 5.56,5.96 v 13.32 h 3.32 v -13.96 c 0,-5.36 -2.96,-8.48 -7.96,-8.48 z"
     id="text4"
     aria-label="Open QBench" />
</svg>
