<?xml version="1.0" encoding="UTF-8"?>
<svg id="Layer_1" data-name="Layer 1" xmlns="http://www.w3.org/2000/svg" xmlns:xlink="http://www.w3.org/1999/xlink" viewBox="0 0 115.25 115.18">
  <defs>
    <style>
      .cls-1, .cls-2, .cls-3 {
        fill: none;
      }

      .cls-4 {
        fill: #febc15;
        stroke-width: .5px;
      }

      .cls-4, .cls-2, .cls-3 {
        stroke: #000;
        stroke-miterlimit: 10;
      }

      .cls-5 {
        fill: #12375f;
      }

      .cls-2 {
        stroke-width: .75px;
      }

      .cls-6 {
        clip-path: url(#clippath);
      }

      .cls-3 {
        stroke-width: 3px;
      }
    </style>
    <clipPath id="clippath">
      <circle class="cls-1" cx="57.14" cy="58.04" r="55.64"/>
    </clipPath>
  </defs>
  <g class="cls-6">
    <g>
      <g>
        <line class="cls-2" x1="1.25" y1="58.61" x2="115.25" y2="58.61"/>
        <line class="cls-2" x1="6.25" y1="79.19" x2="52.25" y2=".19"/>
        <line class="cls-2" x1="86.69" y1="109.65" x2="27.15" y2="6.53"/>
        <line class="cls-2" x1="30.25" y1="105.19" x2="87.28" y2="6.63"/>
        <line class="cls-2" x1="64.25" y1="113.19" x2="110.74" y2="33.34"/>
        <line class="cls-2" x1="49.25" y1="112.19" x2="6.25" y2="37.19"/>
        <line class="cls-2" x1="13.25" y1="92.19" x2="110.59" y2="92.41"/>
        <line class="cls-2" x1="7.48" y1="24.82" x2="110.59" y2="24.82"/>
        <line class="cls-2" x1="110.74" y1="83.06" x2="64.25" y2="3.19"/>
      </g>
      <circle class="cls-4" cx="37.71" cy="24.82" r="12.95"/>
      <circle class="cls-4" cx="77.11" cy="24.82" r="12.95"/>
      <circle class="cls-4" cx="18.48" cy="58.61" r="12.95"/>
      <circle class="cls-5" cx="57.27" cy="58.61" r="12.95"/>
      <circle class="cls-5" cx="96.16" cy="58.61" r="12.95"/>
      <circle class="cls-4" cx="76.69" cy="92.33" r="12.95"/>
      <circle class="cls-4" cx="37.8" cy="92.41" r="12.95"/>
    </g>
  </g>
  <circle class="cls-3" cx="57.14" cy="58.04" r="55.64"/>
</svg>