<?xml version="1.0" encoding="UTF-8"?>
<svg id="Layer_1" data-name="Layer 1" xmlns="http://www.w3.org/2000/svg" viewBox="0 0 115.28 115.28">
  <defs>
    <style>
      .cls-1 {
        fill: #febc15;
      }

      .cls-2 {
        fill: #12375f;
      }

      .cls-3 {
        stroke-width: 2px;
      }

      .cls-3, .cls-4, .cls-5 {
        fill: none;
        stroke: #000;
        stroke-miterlimit: 10;
      }

      .cls-4 {
        stroke-width: 4px;
      }

      .cls-5 {
        stroke-width: 3px;
      }
    </style>
  </defs>
  <circle class="cls-4" cx="57.64" cy="57.64" r="55.64"/>
  <g>
    <circle class="cls-2" cx="57.28" cy="57.68" r="17.68"/>
    <g>
      <line class="cls-1" x1="39.67" y1="57.14" x2="4.78" y2="57.18"/>
      <g>
        <line class="cls-5" x1="39.67" y1="57.14" x2="15.54" y2="57.17"/>
        <polygon points="17.72 49.69 4.78 57.18 17.74 64.65 17.72 49.69"/>
      </g>
    </g>
    <g>
      <path class="cls-3" d="M40.95,39.49c-10.04,10.04-10.04,26.32,0,36.36"/>
      <path class="cls-3" d="M38.31,33.53c-13.33,13.33-13.33,34.95,0,48.29"/>
    </g>
    <g>
      <line class="cls-1" x1="75.06" y1="57.14" x2="109.95" y2="57.18"/>
      <g>
        <line class="cls-5" x1="75.06" y1="57.14" x2="99.19" y2="57.17"/>
        <polygon points="96.99 64.65 109.95 57.18 97.01 49.69 96.99 64.65"/>
      </g>
    </g>
    <g>
      <path class="cls-3" d="M73.78,39.49c10.04,10.04,10.04,26.32,0,36.36"/>
      <path class="cls-3" d="M76.42,33.53c13.33,13.33,13.33,34.95,0,48.29"/>
    </g>
  </g>
</svg>