<?xml version="1.0" encoding="UTF-8"?>
<svg id="Layer_1" data-name="Layer 1" xmlns="http://www.w3.org/2000/svg" viewBox="0 0 115.28 115.28">
  <defs>
    <style>
      .cls-1, .cls-2, .cls-3 {
        fill: #febc15;
      }

      .cls-1, .cls-3, .cls-4, .cls-5, .cls-6 {
        stroke: #000;
        stroke-miterlimit: 10;
      }

      .cls-3, .cls-4 {
        stroke-width: 5px;
      }

      .cls-4, .cls-5, .cls-6 {
        fill: none;
      }

      .cls-5 {
        stroke-width: 4px;
      }

      .cls-6 {
        stroke-width: 3px;
      }
    </style>
  </defs>
  <circle class="cls-5" cx="57.64" cy="57.64" r="55.64"/>
  <g>
    <path class="cls-6" d="M22.45,34.3c9.58.47,24.72,5.27,40.63,13.42,22.85,11.7,39.17,26.16,38.29,33.53"/>
    <polygon points="27.72 39.49 24.38 34.32 25.77 28.33 13.52 36.22 27.72 39.49"/>
  </g>
  <circle class="cls-1" cx="54.47" cy="60.08" r="22.75"/>
  <g>
    <line class="cls-2" x1="62.21" y1="46.72" x2="81.69" y2="11.22"/>
    <g>
      <line class="cls-4" x1="62.21" y1="46.72" x2="74.96" y2="23.49"/>
      <polygon points="82.12 30.66 81.69 11.22 65.07 21.31 82.12 30.66"/>
    </g>
  </g>
  <line class="cls-3" x1="31.71" y1="102.52" x2="43.71" y2="80.64"/>
  <g>
    <path class="cls-6" d="M86.15,85.21c-9.44-1.53-22.29-6.02-35.67-12.87-19.51-10-34.27-22-37.61-29.89"/>
    <polygon points="82.27 79.06 84.28 84.88 81.48 90.37 95.27 85.64 82.27 79.06"/>
  </g>
</svg>