<svg width="157" height="351" viewBox="0 0 157 351" fill="none" xmlns="http://www.w3.org/2000/svg">
<path d="M37.3753 46C37.3753 46 20.7808 119.259 37.3753 151.111C53.9698 182.963 117.03 182.963 133.625 151.111C150.219 119.259 133.625 46 133.625 46" stroke="#000080" stroke-width="10"/>
<path d="M5.0002 99.4086L17.3813 61.3035M17.3813 61.3035L24.9176 38.1091C24.9176 38.1091 46.934 35.0994 49.9485 46.2421C52.2931 54.9087 49.4031 63.8032 42.4122 69.4365C33.4239 76.6793 17.3813 61.3035 17.3813 61.3035Z" stroke="#F0B54A" stroke-width="10"/>
<path d="M105.816 9.27062L118.197 47.3757M118.197 47.3757L125.733 70.5701C125.733 70.5701 147.749 73.5798 150.764 62.4371C153.109 53.7705 150.218 44.876 143.228 39.2427C134.239 31.9999 118.197 47.3757 118.197 47.3757Z" stroke="#F0B54A" stroke-width="10"/>
<path d="M75.5458 314C75.5458 314 72.1073 333.309 75.5458 341.704C78.9843 350.099 92.0508 350.099 95.4893 341.704C98.9279 333.309 95.4893 314 95.4893 314" stroke="#000080" stroke-width="5"/>
<path d="M95.4236 184.804C95.4236 184.804 98.9705 204.224 95.4236 212.667C93.6924 216.789 89.5953 218.898 85.4418 218.996M85.4418 218.996C81.0856 219.099 76.6674 216.99 74.8517 212.667C71.3048 204.224 70.8023 192.835 74.8517 184.804C80.5509 173.502 85.4418 218.996 85.4418 218.996Z" stroke="#000080" stroke-width="5"/>
<path d="M56 230H79.8939M79.8939 230H94.4381C94.4381 230 100.202 252.01 94.4381 258.951C89.9547 264.35 84.3773 264.35 79.8939 258.951C74.1296 252.01 79.8939 230 79.8939 230Z" stroke="#000080" stroke-width="5"/>
<path d="M85.0176 270.5C88.1162 270.5 91.1808 272.297 93.5742 275.728C95.9617 279.15 97.5176 284.011 97.5176 289.5C97.5176 294.989 95.9617 299.85 93.5742 303.272C91.1808 306.703 88.1162 308.5 85.0176 308.5C81.9189 308.5 78.8543 306.703 76.4609 303.272C74.0735 299.85 72.5176 294.989 72.5176 289.5C72.5176 284.011 74.0735 279.15 76.4609 275.728C78.8543 272.297 81.9189 270.5 85.0176 270.5Z" stroke="#000080" stroke-width="5"/>
</svg>
