<svg xmlns="http://www.w3.org/2000/svg" xmlns:xlink="http://www.w3.org/1999/xlink" contentStyleType="text/css" data-diagram-type="DESCRIPTION" height="1073px" preserveAspectRatio="none" style="width:3128px;height:1073px;background:#FFFFFF;" version="1.1" viewBox="0 0 3128 1073" width="3128px" zoomAndPan="magnify"><defs/><g><!--cluster Workflow 'main'--><g class="cluster" data-entity="Workflow 'main'" data-source-line="4" data-uid="ent0002" id="cluster_Workflow 'main'"><polygon fill="none" points="16,16,26,6,1509,6,1509,1046.5,1499,1056.5,16,1056.5,16,16" style="stroke:#181818;stroke-width:1;"/><line style="stroke:#181818;stroke-width:1;" x1="1499" x2="1509" y1="16" y2="6"/><line style="stroke:#181818;stroke-width:1;" x1="16" x2="1499" y1="16" y2="16"/><line style="stroke:#181818;stroke-width:1;" x1="1499" x2="1499" y1="16" y2="1056.5"/><text fill="#000000" font-family="sans-serif" font-size="14" font-weight="bold" lengthAdjust="spacing" textLength="126.9639" x="695.0181" y="31.9951">Workflow 'main'</text></g><!--cluster main--><g class="cluster" data-entity="main" data-source-line="5" data-uid="ent0003" id="cluster_main"><rect fill="none" height="204" rx="2.5" ry="2.5" style="stroke:#181818;stroke-width:1;" width="1003" x="28" y="72"/><rect fill="none" height="10" style="stroke:#181818;stroke-width:1;" width="15" x="1011" y="77"/><rect fill="none" height="2" style="stroke:#181818;stroke-width:1;" width="4" x="1009" y="79"/><rect fill="none" height="2" style="stroke:#181818;stroke-width:1;" width="4" x="1009" y="83"/><text fill="#000000" font-family="sans-serif" font-size="14" font-weight="bold" lengthAdjust="spacing" textLength="38.8008" x="510.0996" y="97.9951">main</text></g><!--cluster main_directory_stage_in_0--><g class="cluster" data-entity="main_directory_stage_in_0" data-source-line="35" data-uid="ent0016" id="cluster_main_directory_stage_in_0"><rect fill="none" height="192" rx="2.5" ry="2.5" style="stroke:#181818;stroke-width:1;" width="171" x="1078.75" y="180"/><rect fill="none" height="10" style="stroke:#181818;stroke-width:1;" width="15" x="1229.75" y="185"/><rect fill="none" height="2" style="stroke:#181818;stroke-width:1;" width="4" x="1227.75" y="187"/><rect fill="none" height="2" style="stroke:#181818;stroke-width:1;" width="4" x="1227.75" y="191"/><text fill="#000000" font-family="sans-serif" font-size="14" font-weight="bold" lengthAdjust="spacing" textLength="161.3555" x="1083.5723" y="205.9951">directory_stage_in_0</text></g><!--cluster main_app--><g class="cluster" data-entity="main_app" data-source-line="49" data-uid="ent0022" id="cluster_main_app"><rect fill="none" height="183.5" rx="2.5" ry="2.5" style="stroke:#181818;stroke-width:1;" width="219" x="558" y="520"/><rect fill="none" height="10" style="stroke:#181818;stroke-width:1;" width="15" x="757" y="525"/><rect fill="none" height="2" style="stroke:#181818;stroke-width:1;" width="4" x="755" y="527"/><rect fill="none" height="2" style="stroke:#181818;stroke-width:1;" width="4" x="755" y="531"/><text fill="#000000" font-family="sans-serif" font-size="14" font-weight="bold" lengthAdjust="spacing" textLength="29.4902" x="652.7549" y="545.9951">app</text></g><!--cluster main_stage_out_0--><g class="cluster" data-entity="main_stage_out_0" data-source-line="69" data-uid="ent0032" id="cluster_main_stage_out_0"><rect fill="none" height="179" rx="2.5" ry="2.5" style="stroke:#181818;stroke-width:1;" width="731.5" x="734.5" y="827.5"/><rect fill="none" height="10" style="stroke:#181818;stroke-width:1;" width="15" x="1446" y="832.5"/><rect fill="none" height="2" style="stroke:#181818;stroke-width:1;" width="4" x="1444" y="834.5"/><rect fill="none" height="2" style="stroke:#181818;stroke-width:1;" width="4" x="1444" y="838.5"/><text fill="#000000" font-family="sans-serif" font-size="14" font-weight="bold" lengthAdjust="spacing" textLength="94.0078" x="1053.2461" y="853.4951">stage_out_0</text></g><!--cluster CommandLineTool 'my-asthonishing-stage-in-directory'--><g class="cluster" data-entity="CommandLineTool 'my-asthonishing-stage-in-directory'" data-source-line="100" data-uid="ent0048" id="cluster_CommandLineTool 'my-asthonishing-stage-in-directory'"><polygon fill="none" points="1533,116,1543,106,2047,106,2047,412,2037,422,1533,422,1533,116" style="stroke:#181818;stroke-width:1;"/><line style="stroke:#181818;stroke-width:1;" x1="2037" x2="2047" y1="116" y2="106"/><line style="stroke:#181818;stroke-width:1;" x1="1533" x2="2037" y1="116" y2="116"/><line style="stroke:#181818;stroke-width:1;" x1="2037" x2="2037" y1="116" y2="422"/><text fill="#000000" font-family="sans-serif" font-size="14" font-weight="bold" lengthAdjust="spacing" textLength="438.1973" x="1566.9014" y="131.9951">CommandLineTool 'my-asthonishing-stage-in-directory'</text></g><!--cluster my_asthonishing_stage_in_directory--><g class="cluster" data-entity="my_asthonishing_stage_in_directory" data-source-line="101" data-uid="ent0049" id="cluster_my_asthonishing_stage_in_directory"><rect fill="none" height="192" rx="2.5" ry="2.5" style="stroke:#181818;stroke-width:1;" width="308" x="1614" y="180"/><rect fill="none" height="10" style="stroke:#181818;stroke-width:1;" width="15" x="1902" y="185"/><rect fill="none" height="2" style="stroke:#181818;stroke-width:1;" width="4" x="1900" y="187"/><rect fill="none" height="2" style="stroke:#181818;stroke-width:1;" width="4" x="1900" y="191"/><text fill="#000000" font-family="sans-serif" font-size="14" font-weight="bold" lengthAdjust="spacing" textLength="279.4805" x="1628.2598" y="205.9951">my-asthonishing-stage-in-directory</text></g><!--cluster Workflow 'pattern-1'--><g class="cluster" data-entity="Workflow 'pattern-1'" data-source-line="115" data-uid="ent0053" id="cluster_Workflow 'pattern-1'"><polygon fill="none" points="1533,456,1543,446,1985,446,1985,867.5,1975,877.5,1533,877.5,1533,456" style="stroke:#181818;stroke-width:1;"/><line style="stroke:#181818;stroke-width:1;" x1="1975" x2="1985" y1="456" y2="446"/><line style="stroke:#181818;stroke-width:1;" x1="1533" x2="1975" y1="456" y2="456"/><line style="stroke:#181818;stroke-width:1;" x1="1975" x2="1975" y1="456" y2="877.5"/><text fill="#000000" font-family="sans-serif" font-size="14" font-weight="bold" lengthAdjust="spacing" textLength="162.9346" x="1673.5327" y="471.9951">Workflow 'pattern-1'</text></g><!--cluster pattern_1--><g class="cluster" data-entity="pattern_1" data-source-line="116" data-uid="ent0054" id="cluster_pattern_1"><rect fill="none" height="183.5" rx="2.5" ry="2.5" style="stroke:#181818;stroke-width:1;" width="198" x="1553" y="520"/><rect fill="none" height="10" style="stroke:#181818;stroke-width:1;" width="15" x="1731" y="525"/><rect fill="none" height="2" style="stroke:#181818;stroke-width:1;" width="4" x="1729" y="527"/><rect fill="none" height="2" style="stroke:#181818;stroke-width:1;" width="4" x="1729" y="531"/><text fill="#000000" font-family="sans-serif" font-size="14" font-weight="bold" lengthAdjust="spacing" textLength="74.7715" x="1614.6143" y="545.9951">pattern-1</text></g><!--cluster pattern_1_step--><g class="cluster" data-entity="pattern_1_step" data-source-line="132" data-uid="ent0060" id="cluster_pattern_1_step"><rect fill="none" height="211.5" rx="2.5" ry="2.5" style="stroke:#181818;stroke-width:1;" width="177" x="1788" y="616"/><rect fill="none" height="10" style="stroke:#181818;stroke-width:1;" width="15" x="1945" y="621"/><rect fill="none" height="2" style="stroke:#181818;stroke-width:1;" width="4" x="1943" y="623"/><rect fill="none" height="2" style="stroke:#181818;stroke-width:1;" width="4" x="1943" y="627"/><text fill="#000000" font-family="sans-serif" font-size="14" font-weight="bold" lengthAdjust="spacing" textLength="34.542" x="1859.229" y="641.9951">step</text></g><!--cluster CommandLineTool 'my-super-stage-out'--><g class="cluster" data-entity="CommandLineTool 'my-super-stage-out'" data-source-line="154" data-uid="ent0070" id="cluster_CommandLineTool 'my-super-stage-out'"><polygon fill="none" points="2009,763.5,2019,753.5,2833,753.5,2833,1046.5,2823,1056.5,2009,1056.5,2009,763.5" style="stroke:#181818;stroke-width:1;"/><line style="stroke:#181818;stroke-width:1;" x1="2823" x2="2833" y1="763.5" y2="753.5"/><line style="stroke:#181818;stroke-width:1;" x1="2009" x2="2823" y1="763.5" y2="763.5"/><line style="stroke:#181818;stroke-width:1;" x1="2823" x2="2823" y1="763.5" y2="1056.5"/><text fill="#000000" font-family="sans-serif" font-size="14" font-weight="bold" lengthAdjust="spacing" textLength="314.8496" x="2259.5752" y="779.4951">CommandLineTool 'my-super-stage-out'</text></g><!--cluster my_super_stage_out--><g class="cluster" data-entity="my_super_stage_out" data-source-line="155" data-uid="ent0071" id="cluster_my_super_stage_out"><rect fill="none" height="179" rx="2.5" ry="2.5" style="stroke:#181818;stroke-width:1;" width="739.5" x="2052" y="827.5"/><rect fill="none" height="10" style="stroke:#181818;stroke-width:1;" width="15" x="2771.5" y="832.5"/><rect fill="none" height="2" style="stroke:#181818;stroke-width:1;" width="4" x="2769.5" y="834.5"/><rect fill="none" height="2" style="stroke:#181818;stroke-width:1;" width="4" x="2769.5" y="838.5"/><text fill="#000000" font-family="sans-serif" font-size="14" font-weight="bold" lengthAdjust="spacing" textLength="156.1328" x="2343.6836" y="853.4951">my-super-stage-out</text></g><!--cluster CommandLineTool 'clt'--><g class="cluster" data-entity="CommandLineTool 'clt'" data-source-line="179" data-uid="ent0080" id="cluster_CommandLineTool 'clt'"><polygon fill="none" points="2857,564,2867,554,3111,554,3111,867.5,3101,877.5,2857,877.5,2857,564" style="stroke:#181818;stroke-width:1;"/><line style="stroke:#181818;stroke-width:1;" x1="3101" x2="3111" y1="564" y2="554"/><line style="stroke:#181818;stroke-width:1;" x1="2857" x2="3101" y1="564" y2="564"/><line style="stroke:#181818;stroke-width:1;" x1="3101" x2="3101" y1="564" y2="877.5"/><text fill="#000000" font-family="sans-serif" font-size="14" font-weight="bold" lengthAdjust="spacing" textLength="178.5068" x="2890.7466" y="579.9951">CommandLineTool 'clt'</text></g><!--cluster clt--><g class="cluster" data-entity="clt" data-source-line="180" data-uid="ent0081" id="cluster_clt"><rect fill="none" height="211.5" rx="2.5" ry="2.5" style="stroke:#181818;stroke-width:1;" width="177" x="2877" y="616"/><rect fill="none" height="10" style="stroke:#181818;stroke-width:1;" width="15" x="3034" y="621"/><rect fill="none" height="2" style="stroke:#181818;stroke-width:1;" width="4" x="3032" y="623"/><rect fill="none" height="2" style="stroke:#181818;stroke-width:1;" width="4" x="3032" y="627"/><text fill="#000000" font-family="sans-serif" font-size="14" font-weight="bold" lengthAdjust="spacing" textLength="19.79" x="2955.605" y="641.9951">clt</text></g><g class="entity" data-entity="main_aoi" data-source-line="7" data-uid="ent0004" id="entity_main_aoi"><text fill="#000000" font-family="sans-serif" font-size="14" lengthAdjust="spacing" textLength="21.0342" x="35.4829" y="50.6982">aoi</text><rect fill="#F1F1F1" height="12" style="stroke:#181818;stroke-width:1.5;" width="12" x="40" y="66"/></g><g class="entity" data-entity="main_epsg" data-source-line="9" data-uid="ent0005" id="entity_main_epsg"><text fill="#000000" font-family="sans-serif" font-size="14" lengthAdjust="spacing" textLength="33.6807" x="76.1597" y="50.6982">epsg</text><rect fill="#F1F1F1" height="12" style="stroke:#181818;stroke-width:1.5;" width="12" x="87" y="66"/></g><g class="entity" data-entity="main_bands" data-source-line="11" data-uid="ent0006" id="entity_main_bands"><text fill="#000000" font-family="sans-serif" font-size="14" lengthAdjust="spacing" textLength="42.5195" x="238.7402" y="50.6982">bands</text><rect fill="#F1F1F1" height="12" style="stroke:#181818;stroke-width:1.5;" width="12" x="254" y="66"/></g><g class="entity" data-entity="main_another_input" data-source-line="13" data-uid="ent0007" id="entity_main_another_input"><text fill="#000000" font-family="sans-serif" font-size="14" lengthAdjust="spacing" textLength="97.7607" x="315.6196" y="50.6982">another_input</text><rect fill="#F1F1F1" height="12" style="stroke:#181818;stroke-width:1.5;" width="12" x="358.5" y="66"/></g><g class="entity" data-entity="main_item" data-source-line="15" data-uid="ent0008" id="entity_main_item"><text fill="#000000" font-family="sans-serif" font-size="14" lengthAdjust="spacing" textLength="31.6299" x="421.1851" y="50.6982">item</text><rect fill="#F1F1F1" height="12" style="stroke:#181818;stroke-width:1.5;" width="12" x="431" y="66"/></g><g class="entity" data-entity="main_s3_bucket" data-source-line="17" data-uid="ent0009" id="entity_main_s3_bucket"><text fill="#000000" font-family="sans-serif" font-size="14" lengthAdjust="spacing" textLength="70.8682" x="471.5659" y="50.6982">s3_bucket</text><rect fill="#F1F1F1" height="12" style="stroke:#181818;stroke-width:1.5;" width="12" x="501" y="66"/></g><g class="entity" data-entity="main_sub_path" data-source-line="19" data-uid="ent0010" id="entity_main_sub_path"><text fill="#000000" font-family="sans-serif" font-size="14" lengthAdjust="spacing" textLength="63.8818" x="563.5591" y="50.6982">sub_path</text><rect fill="#F1F1F1" height="12" style="stroke:#181818;stroke-width:1.5;" width="12" x="589.5" y="66"/></g><g class="entity" data-entity="main_aws_access_key_id" data-source-line="21" data-uid="ent0011" id="entity_main_aws_access_key_id"><text fill="#000000" font-family="sans-serif" font-size="14" lengthAdjust="spacing" textLength="133.2803" x="654.3599" y="50.6982">aws_access_key_id</text><rect fill="#F1F1F1" height="12" style="stroke:#181818;stroke-width:1.5;" width="12" x="715" y="66"/></g><g class="entity" data-entity="main_aws_secret_access_key" data-source-line="23" data-uid="ent0012" id="entity_main_aws_secret_access_key"><text fill="#000000" font-family="sans-serif" font-size="14" lengthAdjust="spacing" textLength="163.9668" x="802.0166" y="50.6982">aws_secret_access_key</text><rect fill="#F1F1F1" height="12" style="stroke:#181818;stroke-width:1.5;" width="12" x="878" y="66"/></g><g class="entity" data-entity="main_region_name" data-source-line="25" data-uid="ent0013" id="entity_main_region_name"><text fill="#000000" font-family="sans-serif" font-size="14" lengthAdjust="spacing" textLength="91.2871" x="967.3564" y="50.6982">region_name</text><rect fill="#F1F1F1" height="12" style="stroke:#181818;stroke-width:1.5;" width="12" x="1007" y="66"/></g><g class="entity" data-entity="main_endpoint_url" data-source-line="27" data-uid="ent0014" id="entity_main_endpoint_url"><text fill="#000000" font-family="sans-serif" font-size="14" lengthAdjust="spacing" textLength="87.5957" x="126.7021" y="50.6982">endpoint_url</text><rect fill="#F1F1F1" height="12" style="stroke:#181818;stroke-width:1.5;" width="12" x="164.5" y="66"/></g><g class="entity" data-entity="main_water_bodies" data-source-line="30" data-uid="ent0015" id="entity_main_water_bodies"><text fill="#000000" font-family="sans-serif" font-size="14" lengthAdjust="spacing" textLength="93.0234" x="181.4883" y="294.9951">water_bodies</text><rect fill="#F1F1F1" height="12" style="stroke:#181818;stroke-width:1.5;" width="12" x="222" y="270"/></g><g class="entity" data-entity="main_directory_stage_in_0_reference" data-source-line="37" data-uid="ent0017" id="entity_main_directory_stage_in_0_reference"><text fill="#000000" font-family="sans-serif" font-size="14" lengthAdjust="spacing" textLength="67.4639" x="1178.2681" y="158.6982">reference</text><rect fill="#F1F1F1" height="12" style="stroke:#181818;stroke-width:1.5;" width="12" x="1206" y="174"/></g><g class="entity" data-entity="main_directory_stage_in_0_another_input" data-source-line="40" data-uid="ent0019" id="entity_main_directory_stage_in_0_another_input"><text fill="#000000" font-family="sans-serif" font-size="14" lengthAdjust="spacing" textLength="97.7607" x="1067.6196" y="158.6982">another_input</text><rect fill="#F1F1F1" height="12" style="stroke:#181818;stroke-width:1.5;" width="12" x="1110.5" y="174"/></g><g class="entity" data-entity="main_directory_stage_in_0_staged" data-source-line="45" data-uid="ent0021" id="entity_main_directory_stage_in_0_staged"><text fill="#000000" font-family="sans-serif" font-size="14" lengthAdjust="spacing" textLength="47.749" x="1115.1255" y="390.9951">staged</text><rect fill="#F1F1F1" height="12" style="stroke:#181818;stroke-width:1.5;" width="12" x="1133" y="366"/></g><g class="entity" data-entity="main_app_aoi" data-source-line="51" data-uid="ent0023" id="entity_main_app_aoi"><text fill="#000000" font-family="sans-serif" font-size="14" lengthAdjust="spacing" textLength="21.0342" x="565.4829" y="498.6982">aoi</text><rect fill="#F1F1F1" height="12" style="stroke:#181818;stroke-width:1.5;" width="12" x="570" y="514"/></g><g class="entity" data-entity="main_app_epsg" data-source-line="54" data-uid="ent0025" id="entity_main_app_epsg"><text fill="#000000" font-family="sans-serif" font-size="14" lengthAdjust="spacing" textLength="33.6807" x="606.1597" y="498.6982">epsg</text><rect fill="#F1F1F1" height="12" style="stroke:#181818;stroke-width:1.5;" width="12" x="617" y="514"/></g><g class="entity" data-entity="main_app_bands" data-source-line="57" data-uid="ent0027" id="entity_main_app_bands"><text fill="#000000" font-family="sans-serif" font-size="14" lengthAdjust="spacing" textLength="42.5195" x="669.7402" y="498.6982">bands</text><rect fill="#F1F1F1" height="12" style="stroke:#181818;stroke-width:1.5;" width="12" x="685" y="514"/></g><g class="entity" data-entity="main_app_item" data-source-line="60" data-uid="ent0029" id="entity_main_app_item"><text fill="#000000" font-family="sans-serif" font-size="14" lengthAdjust="spacing" textLength="31.6299" x="743.1851" y="498.6982">item</text><rect fill="#F1F1F1" height="12" style="stroke:#181818;stroke-width:1.5;" width="12" x="753" y="514"/></g><g class="entity" data-entity="main_app_water_bodies" data-source-line="65" data-uid="ent0031" id="entity_main_app_water_bodies"><text fill="#000000" font-family="sans-serif" font-size="14" lengthAdjust="spacing" textLength="93.0234" x="686.4883" y="722.4951">water_bodies</text><rect fill="#F1F1F1" height="12" style="stroke:#181818;stroke-width:1.5;" width="12" x="727" y="697.5"/></g><g class="entity" data-entity="main_stage_out_0_s3_bucket" data-source-line="71" data-uid="ent0033" id="entity_main_stage_out_0_s3_bucket"><text fill="#000000" font-family="sans-serif" font-size="14" lengthAdjust="spacing" textLength="70.8682" x="906.5659" y="806.1982">s3_bucket</text><rect fill="#F1F1F1" height="12" style="stroke:#181818;stroke-width:1.5;" width="12" x="936" y="821.5"/></g><g class="entity" data-entity="main_stage_out_0_sub_path" data-source-line="74" data-uid="ent0035" id="entity_main_stage_out_0_sub_path"><text fill="#000000" font-family="sans-serif" font-size="14" lengthAdjust="spacing" textLength="63.8818" x="998.5591" y="806.1982">sub_path</text><rect fill="#F1F1F1" height="12" style="stroke:#181818;stroke-width:1.5;" width="12" x="1024.5" y="821.5"/></g><g class="entity" data-entity="main_stage_out_0_aws_access_key_id" data-source-line="77" data-uid="ent0037" id="entity_main_stage_out_0_aws_access_key_id"><text fill="#000000" font-family="sans-serif" font-size="14" lengthAdjust="spacing" textLength="133.2803" x="1089.3599" y="806.1982">aws_access_key_id</text><rect fill="#F1F1F1" height="12" style="stroke:#181818;stroke-width:1.5;" width="12" x="1150" y="821.5"/></g><g class="entity" data-entity="main_stage_out_0_aws_secret_access_key" data-source-line="80" data-uid="ent0039" id="entity_main_stage_out_0_aws_secret_access_key"><text fill="#000000" font-family="sans-serif" font-size="14" lengthAdjust="spacing" textLength="163.9668" x="1237.0166" y="806.1982">aws_secret_access_key</text><rect fill="#F1F1F1" height="12" style="stroke:#181818;stroke-width:1.5;" width="12" x="1313" y="821.5"/></g><g class="entity" data-entity="main_stage_out_0_region_name" data-source-line="83" data-uid="ent0041" id="entity_main_stage_out_0_region_name"><text fill="#000000" font-family="sans-serif" font-size="14" lengthAdjust="spacing" textLength="91.2871" x="1402.3564" y="806.1982">region_name</text><rect fill="#F1F1F1" height="12" style="stroke:#181818;stroke-width:1.5;" width="12" x="1442" y="821.5"/></g><g class="entity" data-entity="main_stage_out_0_endpoint_url" data-source-line="86" data-uid="ent0043" id="entity_main_stage_out_0_endpoint_url"><text fill="#000000" font-family="sans-serif" font-size="14" lengthAdjust="spacing" textLength="87.5957" x="806.7021" y="806.1982">endpoint_url</text><rect fill="#F1F1F1" height="12" style="stroke:#181818;stroke-width:1.5;" width="12" x="844.5" y="821.5"/></g><g class="entity" data-entity="main_stage_out_0_stac_catalog" data-source-line="89" data-uid="ent0045" id="entity_main_stage_out_0_stac_catalog"><text fill="#000000" font-family="sans-serif" font-size="14" lengthAdjust="spacing" textLength="87.7461" x="708.627" y="806.1982">stac_catalog</text><rect fill="#F1F1F1" height="12" style="stroke:#181818;stroke-width:1.5;" width="12" x="746.5" y="821.5"/></g><g class="entity" data-entity="main_stage_out_0_s3_catalog_output" data-source-line="94" data-uid="ent0047" id="entity_main_stage_out_0_s3_catalog_output"><text fill="#000000" font-family="sans-serif" font-size="14" lengthAdjust="spacing" textLength="128.0645" x="722.4678" y="1025.4951">s3_catalog_output</text><rect fill="#F1F1F1" height="12" style="stroke:#181818;stroke-width:1.5;" width="12" x="780.5" y="1000.5"/></g><g class="entity" data-entity="my_asthonishing_stage_in_directory_reference" data-source-line="103" data-uid="ent0050" id="entity_my_asthonishing_stage_in_directory_reference"><text fill="#000000" font-family="sans-serif" font-size="14" lengthAdjust="spacing" textLength="67.4639" x="1598.2681" y="158.6982">reference</text><rect fill="#F1F1F1" height="12" style="stroke:#181818;stroke-width:1.5;" width="12" x="1626" y="174"/></g><g class="entity" data-entity="my_asthonishing_stage_in_directory_another_input" data-source-line="105" data-uid="ent0051" id="entity_my_asthonishing_stage_in_directory_another_input"><text fill="#000000" font-family="sans-serif" font-size="14" lengthAdjust="spacing" textLength="97.7607" x="1685.6196" y="158.6982">another_input</text><rect fill="#F1F1F1" height="12" style="stroke:#181818;stroke-width:1.5;" width="12" x="1728.5" y="174"/></g><g class="entity" data-entity="my_asthonishing_stage_in_directory_staged" data-source-line="108" data-uid="ent0052" id="entity_my_asthonishing_stage_in_directory_staged"><text fill="#000000" font-family="sans-serif" font-size="14" lengthAdjust="spacing" textLength="47.749" x="1705.1255" y="390.9951">staged</text><rect fill="#F1F1F1" height="12" style="stroke:#181818;stroke-width:1.5;" width="12" x="1723" y="366"/></g><g class="entity" data-entity="pattern_1_aoi" data-source-line="118" data-uid="ent0055" id="entity_pattern_1_aoi"><text fill="#000000" font-family="sans-serif" font-size="14" lengthAdjust="spacing" textLength="21.0342" x="1607.4829" y="498.6982">aoi</text><rect fill="#F1F1F1" height="12" style="stroke:#181818;stroke-width:1.5;" width="12" x="1612" y="514"/></g><g class="entity" data-entity="pattern_1_epsg" data-source-line="120" data-uid="ent0056" id="entity_pattern_1_epsg"><text fill="#000000" font-family="sans-serif" font-size="14" lengthAdjust="spacing" textLength="33.6807" x="1648.1597" y="498.6982">epsg</text><rect fill="#F1F1F1" height="12" style="stroke:#181818;stroke-width:1.5;" width="12" x="1659" y="514"/></g><g class="entity" data-entity="pattern_1_bands" data-source-line="122" data-uid="ent0057" id="entity_pattern_1_bands"><text fill="#000000" font-family="sans-serif" font-size="14" lengthAdjust="spacing" textLength="42.5195" x="1711.7402" y="498.6982">bands</text><rect fill="#F1F1F1" height="12" style="stroke:#181818;stroke-width:1.5;" width="12" x="1727" y="514"/></g><g class="entity" data-entity="pattern_1_item" data-source-line="124" data-uid="ent0058" id="entity_pattern_1_item"><text fill="#000000" font-family="sans-serif" font-size="14" lengthAdjust="spacing" textLength="31.6299" x="1555.1851" y="498.6982">item</text><rect fill="#F1F1F1" height="12" style="stroke:#181818;stroke-width:1.5;" width="12" x="1565" y="514"/></g><g class="entity" data-entity="pattern_1_water_bodies" data-source-line="127" data-uid="ent0059" id="entity_pattern_1_water_bodies"><text fill="#000000" font-family="sans-serif" font-size="14" lengthAdjust="spacing" textLength="93.0234" x="1633.4883" y="722.4951">water_bodies</text><rect fill="#F1F1F1" height="12" style="stroke:#181818;stroke-width:1.5;" width="12" x="1674" y="697.5"/></g><g class="entity" data-entity="pattern_1_step_item" data-source-line="134" data-uid="ent0061" id="entity_pattern_1_step_item"><text fill="#000000" font-family="sans-serif" font-size="14" lengthAdjust="spacing" textLength="31.6299" x="1790.1851" y="594.6982">item</text><rect fill="#F1F1F1" height="12" style="stroke:#181818;stroke-width:1.5;" width="12" x="1800" y="610"/></g><g class="entity" data-entity="pattern_1_step_aoi" data-source-line="137" data-uid="ent0063" id="entity_pattern_1_step_aoi"><text fill="#000000" font-family="sans-serif" font-size="14" lengthAdjust="spacing" textLength="21.0342" x="1842.4829" y="594.6982">aoi</text><rect fill="#F1F1F1" height="12" style="stroke:#181818;stroke-width:1.5;" width="12" x="1847" y="610"/></g><g class="entity" data-entity="pattern_1_step_epsg" data-source-line="140" data-uid="ent0065" id="entity_pattern_1_step_epsg"><text fill="#000000" font-family="sans-serif" font-size="14" lengthAdjust="spacing" textLength="33.6807" x="1883.1597" y="594.6982">epsg</text><rect fill="#F1F1F1" height="12" style="stroke:#181818;stroke-width:1.5;" width="12" x="1894" y="610"/></g><g class="entity" data-entity="pattern_1_step_band" data-source-line="143" data-uid="ent0067" id="entity_pattern_1_step_band"><text fill="#000000" font-family="sans-serif" font-size="14" lengthAdjust="spacing" textLength="35.2256" x="1929.3872" y="594.6982">band</text><rect fill="#F1F1F1" height="12" style="stroke:#181818;stroke-width:1.5;" width="12" x="1941" y="610"/></g><g class="entity" data-entity="pattern_1_step_stac_catalog" data-source-line="148" data-uid="ent0069" id="entity_pattern_1_step_stac_catalog"><text fill="#000000" font-family="sans-serif" font-size="14" lengthAdjust="spacing" textLength="85.7979" x="1832.1011" y="846.4951">stac-catalog</text><rect fill="#F1F1F1" height="12" style="stroke:#181818;stroke-width:1.5;" width="12" x="1869" y="821.5"/></g><g class="entity" data-entity="my_super_stage_out_s3_bucket" data-source-line="157" data-uid="ent0072" id="entity_my_super_stage_out_s3_bucket"><text fill="#000000" font-family="sans-serif" font-size="14" lengthAdjust="spacing" textLength="70.8682" x="2034.5659" y="806.1982">s3_bucket</text><rect fill="#F1F1F1" height="12" style="stroke:#181818;stroke-width:1.5;" width="12" x="2064" y="821.5"/></g><g class="entity" data-entity="my_super_stage_out_sub_path" data-source-line="159" data-uid="ent0073" id="entity_my_super_stage_out_sub_path"><text fill="#000000" font-family="sans-serif" font-size="14" lengthAdjust="spacing" textLength="63.8818" x="2126.5591" y="806.1982">sub_path</text><rect fill="#F1F1F1" height="12" style="stroke:#181818;stroke-width:1.5;" width="12" x="2152.5" y="821.5"/></g><g class="entity" data-entity="my_super_stage_out_aws_access_key_id" data-source-line="161" data-uid="ent0074" id="entity_my_super_stage_out_aws_access_key_id"><text fill="#000000" font-family="sans-serif" font-size="14" lengthAdjust="spacing" textLength="133.2803" x="2217.3599" y="806.1982">aws_access_key_id</text><rect fill="#F1F1F1" height="12" style="stroke:#181818;stroke-width:1.5;" width="12" x="2278" y="821.5"/></g><g class="entity" data-entity="my_super_stage_out_aws_secret_access_key" data-source-line="163" data-uid="ent0075" id="entity_my_super_stage_out_aws_secret_access_key"><text fill="#000000" font-family="sans-serif" font-size="14" lengthAdjust="spacing" textLength="163.9668" x="2365.0166" y="806.1982">aws_secret_access_key</text><rect fill="#F1F1F1" height="12" style="stroke:#181818;stroke-width:1.5;" width="12" x="2441" y="821.5"/></g><g class="entity" data-entity="my_super_stage_out_region_name" data-source-line="165" data-uid="ent0076" id="entity_my_super_stage_out_region_name"><text fill="#000000" font-family="sans-serif" font-size="14" lengthAdjust="spacing" textLength="91.2871" x="2530.3564" y="806.1982">region_name</text><rect fill="#F1F1F1" height="12" style="stroke:#181818;stroke-width:1.5;" width="12" x="2570" y="821.5"/></g><g class="entity" data-entity="my_super_stage_out_endpoint_url" data-source-line="167" data-uid="ent0077" id="entity_my_super_stage_out_endpoint_url"><text fill="#000000" font-family="sans-serif" font-size="14" lengthAdjust="spacing" textLength="87.5957" x="2631.7021" y="806.1982">endpoint_url</text><rect fill="#F1F1F1" height="12" style="stroke:#181818;stroke-width:1.5;" width="12" x="2669.5" y="821.5"/></g><g class="entity" data-entity="my_super_stage_out_stac_catalog" data-source-line="169" data-uid="ent0078" id="entity_my_super_stage_out_stac_catalog"><text fill="#000000" font-family="sans-serif" font-size="14" lengthAdjust="spacing" textLength="87.7461" x="2729.627" y="806.1982">stac_catalog</text><rect fill="#F1F1F1" height="12" style="stroke:#181818;stroke-width:1.5;" width="12" x="2767.5" y="821.5"/></g><g class="entity" data-entity="my_super_stage_out_s3_catalog_output" data-source-line="172" data-uid="ent0079" id="entity_my_super_stage_out_s3_catalog_output"><text fill="#000000" font-family="sans-serif" font-size="14" lengthAdjust="spacing" textLength="128.0645" x="2342.4678" y="1025.4951">s3_catalog_output</text><rect fill="#F1F1F1" height="12" style="stroke:#181818;stroke-width:1.5;" width="12" x="2400.5" y="1000.5"/></g><g class="entity" data-entity="clt_item" data-source-line="182" data-uid="ent0082" id="entity_clt_item"><text fill="#000000" font-family="sans-serif" font-size="14" lengthAdjust="spacing" textLength="31.6299" x="2879.1851" y="594.6982">item</text><rect fill="#F1F1F1" height="12" style="stroke:#181818;stroke-width:1.5;" width="12" x="2889" y="610"/></g><g class="entity" data-entity="clt_aoi" data-source-line="184" data-uid="ent0083" id="entity_clt_aoi"><text fill="#000000" font-family="sans-serif" font-size="14" lengthAdjust="spacing" textLength="21.0342" x="2931.4829" y="594.6982">aoi</text><rect fill="#F1F1F1" height="12" style="stroke:#181818;stroke-width:1.5;" width="12" x="2936" y="610"/></g><g class="entity" data-entity="clt_epsg" data-source-line="186" data-uid="ent0084" id="entity_clt_epsg"><text fill="#000000" font-family="sans-serif" font-size="14" lengthAdjust="spacing" textLength="33.6807" x="2972.1597" y="594.6982">epsg</text><rect fill="#F1F1F1" height="12" style="stroke:#181818;stroke-width:1.5;" width="12" x="2983" y="610"/></g><g class="entity" data-entity="clt_band" data-source-line="188" data-uid="ent0085" id="entity_clt_band"><text fill="#000000" font-family="sans-serif" font-size="14" lengthAdjust="spacing" textLength="35.2256" x="3018.3872" y="594.6982">band</text><rect fill="#F1F1F1" height="12" style="stroke:#181818;stroke-width:1.5;" width="12" x="3030" y="610"/></g><g class="entity" data-entity="clt_stac_catalog" data-source-line="191" data-uid="ent0086" id="entity_clt_stac_catalog"><text fill="#000000" font-family="sans-serif" font-size="14" lengthAdjust="spacing" textLength="85.7979" x="2913.1011" y="846.4951">stac-catalog</text><rect fill="#F1F1F1" height="12" style="stroke:#181818;stroke-width:1.5;" width="12" x="2950" y="821.5"/></g><!--link main_item to main_directory_stage_in_0_reference--><g class="link" data-entity-1="main_item" data-entity-2="main_directory_stage_in_0_reference" data-source-line="38" data-uid="lnk18" id="link_main_item_main_directory_stage_in_0_reference"><path d="M437,78.03 C437,88.39 437,108.5 437,108.5 C437,108.5 1210,108.5 1210,108.5 C1210,108.5 1210,150.61 1210,167.9" fill="none" id="main_item-to-main_directory_stage_in_0_reference" style="stroke:#181818;stroke-width:1;stroke-dasharray:7.0,7.0;"/><polygon fill="#181818" points="1210,173.9,1214,164.9,1210,168.9,1206,164.9,1210,173.9" style="stroke:#181818;stroke-width:1;"/></g><!--link main_another_input to main_directory_stage_in_0_another_input--><g class="link" data-entity-1="main_another_input" data-entity-2="main_directory_stage_in_0_another_input" data-source-line="41" data-uid="lnk20" id="link_main_another_input_main_directory_stage_in_0_another_input"><path d="M359,78.2 C359,99.22 359,166.5 359,166.5 C359,166.5 1099.2,166.5 1110.86,166.5" fill="none" id="main_another_input-to-main_directory_stage_in_0_another_input" style="stroke:#181818;stroke-width:1;stroke-dasharray:7.0,7.0;"/><polygon fill="#181818" points="1116.86,166.5,1107.86,162.5,1111.86,166.5,1107.86,170.5,1116.86,166.5" style="stroke:#181818;stroke-width:1;"/></g><!--link main_aoi to main_app_aoi--><g class="link" data-entity-1="main_aoi" data-entity-2="main_app_aoi" data-source-line="52" data-uid="lnk24" id="link_main_aoi_main_app_aoi"><path d="M46,78 C46,131.22 46,520.5 46,520.5 C46,520.5 503.88,520.5 563.68,520.5" fill="none" id="main_aoi-to-main_app_aoi" style="stroke:#181818;stroke-width:1;stroke-dasharray:7.0,7.0;"/><polygon fill="#181818" points="569.68,520.5,560.68,516.5,564.68,520.5,560.68,524.5,569.68,520.5" style="stroke:#181818;stroke-width:1;"/></g><!--link main_epsg to main_app_epsg--><g class="link" data-entity-1="main_epsg" data-entity-2="main_app_epsg" data-source-line="55" data-uid="lnk26" id="link_main_epsg_main_app_epsg"><path d="M93,78.18 C93,95.71 93,144.5 93,144.5 C93,144.5 625,144.5 625,144.5 C625,144.5 625,458.97 625,507.8" fill="none" id="main_epsg-to-main_app_epsg" style="stroke:#181818;stroke-width:1;stroke-dasharray:7.0,7.0;"/><polygon fill="#181818" points="625,513.8,629,504.8,625,508.8,621,504.8,625,513.8" style="stroke:#181818;stroke-width:1;"/></g><!--link main_bands to main_app_bands--><g class="link" data-entity-1="main_bands" data-entity-2="main_app_bands" data-source-line="58" data-uid="lnk28" id="link_main_bands_main_app_bands"><path d="M272.25,72.08 C272.25,78.79 272.25,508.5 272.25,508.5 C272.25,508.5 678.48,508.5 684.92,508.5" fill="none" id="main_bands-to-main_app_bands" style="stroke:#181818;stroke-width:1;stroke-dasharray:7.0,7.0;"/><polygon fill="#181818" points="690.92,508.5,681.92,504.5,685.92,508.5,681.92,512.5,690.92,508.5" style="stroke:#181818;stroke-width:1;"/></g><!--link main_directory_stage_in_0_staged to main_app_item--><g class="link" data-entity-1="main_directory_stage_in_0_staged" data-entity-2="main_app_item" data-source-line="61" data-uid="lnk30" id="link_main_directory_stage_in_0_staged_main_app_item"><path d="M1132.75,372.5 C1083.61,372.5 761,372.5 761,372.5 C761,372.5 761,479.43 761,507.66" fill="none" id="main_directory_stage_in_0_staged-to-main_app_item" style="stroke:#181818;stroke-width:1;stroke-dasharray:7.0,7.0;"/><polygon fill="#181818" points="761,513.66,765,504.66,761,508.66,757,504.66,761,513.66" style="stroke:#181818;stroke-width:1;"/></g><!--link main_s3_bucket to main_stage_out_0_s3_bucket--><g class="link" data-entity-1="main_s3_bucket" data-entity-2="main_stage_out_0_s3_bucket" data-source-line="72" data-uid="lnk34" id="link_main_s3_bucket_main_stage_out_0_s3_bucket"><path d="M505,78.19 C505,134.85 505,561.5 505,561.5 C505,561.5 930.67,561.5 930.67,561.5 C930.67,561.5 930.67,817.36 930.67,821.45" fill="none" id="main_s3_bucket-to-main_stage_out_0_s3_bucket" style="stroke:#181818;stroke-width:1;stroke-dasharray:7.0,7.0;"/><polygon fill="#181818" points="930.67,827.45,934.67,818.45,930.67,822.45,926.67,818.45,930.67,827.45" style="stroke:#181818;stroke-width:1;"/></g><!--link main_sub_path to main_stage_out_0_sub_path--><g class="link" data-entity-1="main_sub_path" data-entity-2="main_stage_out_0_sub_path" data-source-line="75" data-uid="lnk36" id="link_main_sub_path_main_stage_out_0_sub_path"><path d="M599.5,78.04 C599.5,133.31 599.5,549.5 599.5,549.5 C599.5,549.5 1021.75,549.5 1021.75,549.5 C1021.75,549.5 1021.75,817.17 1021.75,821.45" fill="none" id="main_sub_path-to-main_stage_out_0_sub_path" style="stroke:#181818;stroke-width:1;stroke-dasharray:7.0,7.0;"/><polygon fill="#181818" points="1021.75,827.45,1025.75,818.45,1021.75,822.45,1017.75,818.45,1021.75,827.45" style="stroke:#181818;stroke-width:1;"/></g><!--link main_aws_access_key_id to main_stage_out_0_aws_access_key_id--><g class="link" data-entity-1="main_aws_access_key_id" data-entity-2="main_stage_out_0_aws_access_key_id" data-source-line="78" data-uid="lnk38" id="link_main_aws_access_key_id_main_stage_out_0_aws_access_key_id"><path d="M757,72.16 C757,78.81 757,291.5 757,291.5 C757,291.5 1101.75,291.5 1101.75,291.5 C1101.75,291.5 1101.75,813.16 1101.75,821.4" fill="none" id="main_aws_access_key_id-to-main_stage_out_0_aws_access_key_id" style="stroke:#181818;stroke-width:1;stroke-dasharray:7.0,7.0;"/><polygon fill="#181818" points="1101.75,827.4,1105.75,818.4,1101.75,822.4,1097.75,818.4,1101.75,827.4" style="stroke:#181818;stroke-width:1;"/></g><!--link main_aws_secret_access_key to main_stage_out_0_aws_secret_access_key--><g class="link" data-entity-1="main_aws_secret_access_key" data-entity-2="main_stage_out_0_aws_secret_access_key" data-source-line="81" data-uid="lnk40" id="link_main_aws_secret_access_key_main_stage_out_0_aws_secret_access_key"><path d="M921.83,72.16 C921.83,78.71 921.83,288.5 921.83,288.5 C921.83,288.5 1251,288.5 1251,288.5 C1251,288.5 1251,813.11 1251,821.4" fill="none" id="main_aws_secret_access_key-to-main_stage_out_0_aws_secret_access_key" style="stroke:#181818;stroke-width:1;stroke-dasharray:7.0,7.0;"/><polygon fill="#181818" points="1251,827.4,1255,818.4,1251,822.4,1247,818.4,1251,827.4" style="stroke:#181818;stroke-width:1;"/></g><!--link main_region_name to main_stage_out_0_region_name--><g class="link" data-entity-1="main_region_name" data-entity-2="main_stage_out_0_region_name" data-source-line="84" data-uid="lnk42" id="link_main_region_name_main_stage_out_0_region_name"><path d="M1019.08,72.5 C1071.34,72.5 1443,72.5 1443,72.5 C1443,72.5 1443,743.97 1443,815.42" fill="none" id="main_region_name-to-main_stage_out_0_region_name" style="stroke:#181818;stroke-width:1;stroke-dasharray:7.0,7.0;"/><polygon fill="#181818" points="1443,821.42,1447,812.42,1443,816.42,1439,812.42,1443,821.42" style="stroke:#181818;stroke-width:1;"/></g><!--link main_endpoint_url to main_stage_out_0_endpoint_url--><g class="link" data-entity-1="main_endpoint_url" data-entity-2="main_stage_out_0_endpoint_url" data-source-line="87" data-uid="lnk44" id="link_main_endpoint_url_main_stage_out_0_endpoint_url"><path d="M165.17,78.25 C165.17,92.57 165.17,126.5 165.17,126.5 C165.17,126.5 846,126.5 846,126.5 C846,126.5 846,746.92 846,815.44" fill="none" id="main_endpoint_url-to-main_stage_out_0_endpoint_url" style="stroke:#181818;stroke-width:1;stroke-dasharray:7.0,7.0;"/><polygon fill="#181818" points="846,821.44,850,812.44,846,816.44,842,812.44,846,821.44" style="stroke:#181818;stroke-width:1;"/></g><!--link main_app_water_bodies to main_stage_out_0_stac_catalog--><g class="link" data-entity-1="main_app_water_bodies" data-entity-2="main_stage_out_0_stac_catalog" data-source-line="90" data-uid="lnk46" id="link_main_app_water_bodies_main_stage_out_0_stac_catalog"><path d="M739.5,703.59 C739.5,707.29 739.5,817.77 739.5,821.41" fill="none" id="main_app_water_bodies-to-main_stage_out_0_stac_catalog" style="stroke:#181818;stroke-width:1;stroke-dasharray:7.0,7.0;"/><polygon fill="#181818" points="739.5,827.41,743.5,818.41,739.5,822.41,735.5,818.41,739.5,827.41" style="stroke:#181818;stroke-width:1;"/></g><!--link pattern_1_item to pattern_1_step_item--><g class="link" data-entity-1="pattern_1_item" data-entity-2="pattern_1_step_item" data-source-line="135" data-uid="lnk62" id="link_pattern_1_item_pattern_1_step_item"><path d="M1573,526.18 C1573,544.21 1573,595.5 1573,595.5 C1573,595.5 1806,595.5 1806,595.5 C1806,595.5 1806,597.91 1806,603.96" fill="none" id="pattern_1_item-to-pattern_1_step_item" style="stroke:#181818;stroke-width:1;stroke-dasharray:7.0,7.0;"/><polygon fill="#181818" points="1806,609.96,1810,600.96,1806,604.96,1802,600.96,1806,609.96" style="stroke:#181818;stroke-width:1;"/></g><!--link pattern_1_aoi to pattern_1_step_aoi--><g class="link" data-entity-1="pattern_1_aoi" data-entity-2="pattern_1_step_aoi" data-source-line="138" data-uid="lnk64" id="link_pattern_1_aoi_pattern_1_step_aoi"><path d="M1618,526.42 C1618,542.73 1618,584.5 1618,584.5 C1618,584.5 1853,584.5 1853,584.5 C1853,584.5 1853,594.77 1853,603.93" fill="none" id="pattern_1_aoi-to-pattern_1_step_aoi" style="stroke:#181818;stroke-width:1;stroke-dasharray:7.0,7.0;"/><polygon fill="#181818" points="1853,609.93,1857,600.93,1853,604.93,1849,600.93,1853,609.93" style="stroke:#181818;stroke-width:1;"/></g><!--link pattern_1_epsg to pattern_1_step_epsg--><g class="link" data-entity-1="pattern_1_epsg" data-entity-2="pattern_1_step_epsg" data-source-line="141" data-uid="lnk66" id="link_pattern_1_epsg_pattern_1_step_epsg"><path d="M1665,526.02 C1665,539.81 1665,572.5 1665,572.5 C1665,572.5 1900,572.5 1900,572.5 C1900,572.5 1900,592 1900,603.95" fill="none" id="pattern_1_epsg-to-pattern_1_step_epsg" style="stroke:#181818;stroke-width:1;stroke-dasharray:7.0,7.0;"/><polygon fill="#181818" points="1900,609.95,1904,600.95,1900,604.95,1896,600.95,1900,609.95" style="stroke:#181818;stroke-width:1;"/></g><!--link pattern_1_bands to pattern_1_step_band--><g class="link" data-entity-1="pattern_1_bands" data-entity-2="pattern_1_step_band" data-source-line="144" data-uid="lnk68" id="link_pattern_1_bands_pattern_1_step_band"><path d="M1739.17,520.5 C1774.26,520.5 1947,520.5 1947,520.5 C1947,520.5 1947,582.49 1947,603.73" fill="none" id="pattern_1_bands-to-pattern_1_step_band" style="stroke:#181818;stroke-width:1;stroke-dasharray:7.0,7.0;"/><polygon fill="#181818" points="1947,609.73,1951,600.73,1947,604.73,1943,600.73,1947,609.73" style="stroke:#181818;stroke-width:1;"/></g><!--reverse link main_water_bodies to main_stage_out_0_s3_catalog_output--><g class="link" data-entity-1="main_water_bodies" data-entity-2="main_stage_out_0_s3_catalog_output" data-source-line="202" data-uid="lnk88" id="link_main_water_bodies_main_stage_out_0_s3_catalog_output"><path d="M223,288.32 C223,359.71 223,1006.5 223,1006.5 C223,1006.5 716.64,1006.5 780.27,1006.5" fill="none" id="main_water_bodies-backto-main_stage_out_0_s3_catalog_output" style="stroke:#181818;stroke-width:1;stroke-dasharray:7.0,7.0;"/><polygon fill="#181818" points="223,282.32,219,291.32,223,287.32,227,291.32,223,282.32" style="stroke:#181818;stroke-width:1;"/></g><!--link main_directory_stage_in_0 to my_asthonishing_stage_in_directory--><g class="link" data-entity-1="main_directory_stage_in_0" data-entity-2="my_asthonishing_stage_in_directory" data-source-line="207" data-uid="lnk89" id="link_main_directory_stage_in_0_my_asthonishing_stage_in_directory"><path d="M1290.4161,276.5 C1290.7764,276.5 1291.1373,276.5 1291.4988,276.5 C1294.3907,276.5 1297.3195,276.5 1300.2829,276.5 C1312.1368,276.5 1324.5455,276.5 1337.3648,276.5 C1363.0034,276.5 1390.2844,276.5 1418.0538,276.5 C1473.5925,276.5 1525.085,276.5 1575.3,276.5" fill="none" id="main_directory_stage_in_0-to-my_asthonishing_stage_in_directory" style="stroke:#181818;stroke-width:1;stroke-dasharray:7.0,7.0;"/><polygon fill="#181818" points="1581.3,276.5,1572.3,272.5,1576.3,276.5,1572.3,280.5,1581.3,276.5" style="stroke:#181818;stroke-width:1;"/></g><!--link main_app to pattern_1--><g class="link" data-entity-1="main_app" data-entity-2="pattern_1" data-source-line="209" data-uid="lnk90" id="link_main_app_pattern_1"><path d="M773.8658,621.5 C774.5166,621.5 775.1732,621.5 775.8357,621.5 C786.435,621.5 798.5217,621.5 811.8954,621.5 C838.6427,621.5 870.5383,621.5 905.9797,621.5 C976.8625,621.5 1061.9288,621.5 1148.36,621.5 C1234.7913,621.5 1322.5875,621.5 1398.9303,621.5 C1437.1017,621.5 1472.4098,621.5 1503.2521,621.5 C1518.6733,621.5 1532.9781,621.5 1545.9662,621.5 C1547.5897,621.5 1549.1926,621.5 1550.7746,621.5 C1551.1701,621.5 1545.5643,621.5 1545.9571,621.5" fill="none" id="main_app-to-pattern_1" style="stroke:#181818;stroke-width:1;stroke-dasharray:7.0,7.0;"/><polygon fill="#181818" points="1551.9571,621.5,1542.9571,617.5,1546.9571,621.5,1542.9571,625.5,1551.9571,621.5" style="stroke:#181818;stroke-width:1;"/></g><!--link main_stage_out_0 to my_super_stage_out--><g class="link" data-entity-1="main_stage_out_0" data-entity-2="my_super_stage_out" data-source-line="211" data-uid="lnk91" id="link_main_stage_out_0_my_super_stage_out"><path d="M1486.8437,919.5 C1491.5153,919.5 1496.1917,919.5 1500.8723,919.5 C1519.5945,919.5 1538.3833,919.5 1557.1975,919.5 C1707.7112,919.5 1859.8506,919.5 1992.5159,919.5 C2009.0991,919.5 2025.378,919.5 2041.3114,919.5 C2043.303,919.5 2045.2893,919.5 2047.2701,919.5 C2048.2605,919.5 2043.2495,919.5 2044.2372,919.5" fill="none" id="main_stage_out_0-to-my_super_stage_out" style="stroke:#181818;stroke-width:1;stroke-dasharray:7.0,7.0;"/><polygon fill="#181818" points="2050.2372,919.5,2041.2372,915.5,2045.2372,919.5,2041.2372,923.5,2050.2372,919.5" style="stroke:#181818;stroke-width:1;"/></g><!--reverse link pattern_1_water_bodies to pattern_1_step_stac_catalog--><g class="link" data-entity-1="pattern_1_water_bodies" data-entity-2="pattern_1_step_stac_catalog" data-source-line="222" data-uid="lnk93" id="link_pattern_1_water_bodies_pattern_1_step_stac_catalog"><path d="M1686.13,717.5 C1691.36,717.5 1853,717.5 1853,717.5 C1853,717.5 1853,824.09 1853,827.42" fill="none" id="pattern_1_water_bodies-backto-pattern_1_step_stac_catalog" style="stroke:#181818;stroke-width:1;stroke-dasharray:7.0,7.0;"/><polygon fill="#181818" points="1680.13,717.5,1689.13,721.5,1685.13,717.5,1689.13,713.5,1680.13,717.5" style="stroke:#181818;stroke-width:1;"/></g><!--link pattern_1_step to clt--><g class="link" data-entity-1="pattern_1_step" data-entity-2="clt" data-source-line="227" data-uid="lnk94" id="link_pattern_1_step_clt"><path d="M1961.3523,707.5 C1964.4373,707.5 1967.6512,707.5 1970.9894,707.5 C1984.3424,707.5 1999.6851,707.5 2016.727,707.5 C2050.8107,707.5 2091.691,707.5 2137.0439,707.5 C2227.7497,707.5 2336.3456,707.5 2444.2388,707.5 C2552.1319,707.5 2659.3222,707.5 2747.2167,707.5 C2791.164,707.5 2830.2873,707.5 2862.2626,707.5 C2866.2595,707.5 2870.1447,707.5 2873.9137,707.5 C2874.8559,707.5 2869.7909,707.5 2870.7186,707.5" fill="none" id="pattern_1_step-to-clt" style="stroke:#181818;stroke-width:1;stroke-dasharray:7.0,7.0;"/><polygon fill="#181818" points="2876.7186,707.5,2867.7186,703.5,2871.7186,707.5,2867.7186,711.5,2876.7186,707.5" style="stroke:#181818;stroke-width:1;"/></g><!--SRC=[hLZ1RkCW4BtxAwnSUagqLUzxsUiULzeZ8ZPrK6901YkAglxxWfl0W0URk9j3Mmzl7eDdU3EfFdEXw43x-i85CpV5QZcOawogIiYMrRk_SZY_N-IrVkaf5o-x-gEgxQUHlPA22LFld7rNKrsxF-xBqm_tKPRDMdTKSeyXzW57CQMx07DFEEv8HQi3S7hCx2kaER61s5EE1aG0pRWdDwmF3ku9n-atSXoRCmFitfJn68z4KNC23dTBvWnNJMZJCAt9cTq8Ry4vqgKyWsRDm0n0noopPPnfO1sNWWZQi-0FZ9cyYbP9BWmPXml8Bx06lyXPZhR0hjJOL1rbonb8EhG6nqzRk4bzjdnWZP73ZMX3EsPpJdu46cmrLyG3UsS34mrRTYSUvnby3TM7Lbx5uMUnTsb5erJpClV1H4i5KI4t9fEkoQbTYUmB5EKjIHjL2bIeKcNAefHNbt1KoUC3GjIA1Zcero7Fw2npocAzSk2WMPvrCirf5zGjrYW7zZhbMHTU_tol87DFtKNdchsFILw_eh1ay1O2OoxFcCu6hqHp_UczEJvhthD4hQ4pLEwmwzswiEbMnOSakFg7ka-Ny-7ydpwICk8z9Ofl1bcEyJjT2dAb7Sl711RoaMpiTv1Yrlk2je2LV0Xuxupgrj26DDJGY-mojGiGIMQI-xnGnob7jYkyFM3ECsfToMMCOP6KV3wcqb-oxwqi_hOpwnyfBtOulUsfjdEhuFh4HRUVEFTSxBtyeQFhgjTNb3S2OK58FQnmObZbsT3yrpapm-vovrwdHLfuI53usc1LpXQIsBzY2V2BqwRt9_AwrkiziA2D1sn9VmxeahORqF7tWuA-6LoB1rbjc4fydIdtif0e7JmU4U8J-7kUSod8oEG0Px0eMRaTdidZv10DPN6EStiivn_RnDcHJU91BUUpC1ytUoZC2S5SKalKJu-A3NS1izjar2v1FQxwP0uwN3Y2pVoU6wKGzor3qPpc-yCCphbr-9YpRHWWvYHRHW3adQFLLjo_qHfOwE0BHTnSqAgrvcah-tjLwIocGAiSQbrl7Af0CHmiNFd26- -SijVSlQ94EwhrEQa-ZEeneCqwIeYj2dJeVpuE0-zEnX6j3W20odqzzvvUpYeqz6YBf7WmtOIsP6L1EE-lOw7Bfjn9K_LHsbmz6HQm_GC0]--></g></svg>