<?xml version="1.0" encoding="UTF-8" standalone="no"?>
<!DOCTYPE svg PUBLIC "-//W3C//DTD SVG 1.1//EN"
 "http://www.w3.org/Graphics/SVG/1.1/DTD/svg11.dtd">
<!-- Generated by graphviz version 2.43.0 (0)
 -->
<!-- Title: G Pages: 1 -->
<svg width="1686pt" height="395pt"
 viewBox="0.00 0.00 1686.00 395.00" xmlns="http://www.w3.org/2000/svg" xmlns:xlink="http://www.w3.org/1999/xlink">
<g id="graph0" class="graph" transform="scale(1 1) rotate(0) translate(4 391)">
<title>G</title>
<polygon fill="#eeeeee" stroke="transparent" points="-4,4 -4,-391 1682,-391 1682,4 -4,4"/>
<g id="clust1" class="cluster">
<title>cluster_inputs</title>
<polygon fill="#eeeeee" stroke="black" stroke-dasharray="5,2" points="8,-303 8,-379 1670,-379 1670,-303 8,-303"/>
<text text-anchor="middle" x="1603.5" y="-310.8" font-family="Times,serif" font-size="14.00">Workflow Inputs</text>
</g>
<g id="clust2" class="cluster">
<title>cluster_outputs</title>
<polygon fill="#eeeeee" stroke="black" stroke-dasharray="5,2" points="1053,-8 1053,-84 1221,-84 1221,-8 1053,-8"/>
<text text-anchor="middle" x="1148.5" y="-15.8" font-family="Times,serif" font-size="14.00">Workflow Outputs</text>
</g>
<!-- main/directory_stage_in_0 -->
<g id="node1" class="node">
<title>main/directory_stage_in_0</title>
<polygon fill="lightgoldenrodyellow" stroke="black" points="313.5,-258.5 313.5,-294.5 516.5,-294.5 516.5,-258.5 313.5,-258.5"/>
<text text-anchor="middle" x="415" y="-272.8" font-family="Times,serif" font-size="14.00">main/directory_stage_in_0</text>
</g>
<!-- main/app -->
<g id="node2" class="node">
<title>main/app</title>
<polygon fill="#f3cea1" stroke="black" points="42,-185.5 42,-221.5 506,-221.5 506,-185.5 42,-185.5"/>
<text text-anchor="middle" x="274" y="-199.8" font-family="Times,serif" font-size="14.00">Water bodies detection based on NDWI and the otsu threshold</text>
</g>
<!-- main/directory_stage_in_0&#45;&gt;main/app -->
<g id="edge1" class="edge">
<title>main/directory_stage_in_0&#45;&gt;main/app</title>
<path fill="none" stroke="black" d="M381.23,-258.49C362.01,-248.82 337.74,-236.6 317.15,-226.23"/>
<polygon fill="black" stroke="black" points="318.49,-222.99 307.99,-221.61 315.34,-229.24 318.49,-222.99"/>
</g>
<!-- main/stage_out_0 -->
<g id="node3" class="node">
<title>main/stage_out_0</title>
<polygon fill="lightgoldenrodyellow" stroke="black" points="1066.5,-112.5 1066.5,-148.5 1207.5,-148.5 1207.5,-112.5 1066.5,-112.5"/>
<text text-anchor="middle" x="1137" y="-126.8" font-family="Times,serif" font-size="14.00">main/stage_out_0</text>
</g>
<!-- main/app&#45;&gt;main/stage_out_0 -->
<g id="edge2" class="edge">
<title>main/app&#45;&gt;main/stage_out_0</title>
<path fill="none" stroke="black" d="M480.71,-185.49C665.2,-170.32 925.76,-148.88 1056.11,-138.15"/>
<polygon fill="black" stroke="black" points="1056.73,-141.62 1066.41,-137.31 1056.16,-134.64 1056.73,-141.62"/>
</g>
<!-- main/water_bodies -->
<g id="node15" class="node">
<title>main/water_bodies</title>
<polygon fill="#94ddf4" stroke="black" points="1061.5,-39.5 1061.5,-75.5 1212.5,-75.5 1212.5,-39.5 1061.5,-39.5"/>
<text text-anchor="middle" x="1137" y="-53.8" font-family="Times,serif" font-size="14.00">main/water_bodies</text>
</g>
<!-- main/stage_out_0&#45;&gt;main/water_bodies -->
<g id="edge14" class="edge">
<title>main/stage_out_0&#45;&gt;main/water_bodies</title>
<path fill="none" stroke="black" d="M1137,-112.31C1137,-104.29 1137,-94.55 1137,-85.57"/>
<polygon fill="black" stroke="black" points="1140.5,-85.53 1137,-75.53 1133.5,-85.53 1140.5,-85.53"/>
</g>
<!-- main/aoi -->
<g id="node4" class="node">
<title>main/aoi</title>
<polygon fill="#94ddf4" stroke="black" points="16.5,-334.5 16.5,-370.5 93.5,-370.5 93.5,-334.5 16.5,-334.5"/>
<text text-anchor="middle" x="55" y="-348.8" font-family="Times,serif" font-size="14.00">main/aoi</text>
</g>
<!-- main/aoi&#45;&gt;main/app -->
<g id="edge3" class="edge">
<title>main/aoi&#45;&gt;main/app</title>
<path fill="none" stroke="black" d="M69.99,-334.19C78.99,-324.38 90.99,-312.26 103,-303 142.86,-272.28 193.27,-244.39 229,-226.19"/>
<polygon fill="black" stroke="black" points="230.86,-229.18 238.21,-221.55 227.71,-222.92 230.86,-229.18"/>
</g>
<!-- main/bands -->
<g id="node5" class="node">
<title>main/bands</title>
<polygon fill="#94ddf4" stroke="black" points="111.5,-334.5 111.5,-370.5 210.5,-370.5 210.5,-334.5 111.5,-334.5"/>
<text text-anchor="middle" x="161" y="-348.8" font-family="Times,serif" font-size="14.00">main/bands</text>
</g>
<!-- main/bands&#45;&gt;main/app -->
<g id="edge4" class="edge">
<title>main/bands&#45;&gt;main/app</title>
<path fill="none" stroke="black" d="M174.18,-334.35C194,-308.57 231.59,-259.67 254.56,-229.79"/>
<polygon fill="black" stroke="black" points="257.58,-231.6 260.9,-221.54 252.03,-227.34 257.58,-231.6"/>
</g>
<!-- main/epsg -->
<g id="node6" class="node">
<title>main/epsg</title>
<polygon fill="#94ddf4" stroke="black" points="229,-334.5 229,-370.5 319,-370.5 319,-334.5 229,-334.5"/>
<text text-anchor="middle" x="274" y="-348.8" font-family="Times,serif" font-size="14.00">main/epsg</text>
</g>
<!-- main/epsg&#45;&gt;main/app -->
<g id="edge5" class="edge">
<title>main/epsg&#45;&gt;main/app</title>
<path fill="none" stroke="black" d="M274,-334.35C274,-309.12 274,-261.76 274,-231.74"/>
<polygon fill="black" stroke="black" points="277.5,-231.54 274,-221.54 270.5,-231.54 277.5,-231.54"/>
</g>
<!-- main/another_input -->
<g id="node7" class="node">
<title>main/another_input</title>
<polygon fill="#94ddf4" stroke="black" points="337,-334.5 337,-370.5 493,-370.5 493,-334.5 337,-334.5"/>
<text text-anchor="middle" x="415" y="-348.8" font-family="Times,serif" font-size="14.00">main/another_input</text>
</g>
<!-- main/another_input&#45;&gt;main/directory_stage_in_0 -->
<g id="edge6" class="edge">
<title>main/another_input&#45;&gt;main/directory_stage_in_0</title>
<path fill="none" stroke="black" d="M415,-334.34C415,-325.56 415,-314.66 415,-304.77"/>
<polygon fill="black" stroke="black" points="418.5,-304.57 415,-294.57 411.5,-304.57 418.5,-304.57"/>
</g>
<!-- main/item -->
<g id="node8" class="node">
<title>main/item</title>
<polygon fill="#94ddf4" stroke="black" points="511.5,-334.5 511.5,-370.5 600.5,-370.5 600.5,-334.5 511.5,-334.5"/>
<text text-anchor="middle" x="556" y="-348.8" font-family="Times,serif" font-size="14.00">main/item</text>
</g>
<!-- main/item&#45;&gt;main/directory_stage_in_0 -->
<g id="edge7" class="edge">
<title>main/item&#45;&gt;main/directory_stage_in_0</title>
<path fill="none" stroke="black" d="M540.49,-334.09C530.43,-323.74 516.53,-311.1 502,-303 499.27,-301.48 496.44,-300.04 493.54,-298.68"/>
<polygon fill="black" stroke="black" points="494.66,-295.35 484.09,-294.6 491.89,-301.78 494.66,-295.35"/>
</g>
<!-- main/aws_access_key_id -->
<g id="node9" class="node">
<title>main/aws_access_key_id</title>
<polygon fill="#94ddf4" stroke="black" points="618.5,-334.5 618.5,-370.5 807.5,-370.5 807.5,-334.5 618.5,-334.5"/>
<text text-anchor="middle" x="713" y="-348.8" font-family="Times,serif" font-size="14.00">main/aws_access_key_id</text>
</g>
<!-- main/aws_access_key_id&#45;&gt;main/stage_out_0 -->
<g id="edge8" class="edge">
<title>main/aws_access_key_id&#45;&gt;main/stage_out_0</title>
<path fill="none" stroke="black" d="M745.92,-334.42C822.15,-294.86 1010.73,-197.02 1095.07,-153.26"/>
<polygon fill="black" stroke="black" points="1096.84,-156.28 1104.1,-148.57 1093.61,-150.07 1096.84,-156.28"/>
</g>
<!-- main/aws_secret_access_key -->
<g id="node10" class="node">
<title>main/aws_secret_access_key</title>
<polygon fill="#94ddf4" stroke="black" points="826,-334.5 826,-370.5 1046,-370.5 1046,-334.5 826,-334.5"/>
<text text-anchor="middle" x="936" y="-348.8" font-family="Times,serif" font-size="14.00">main/aws_secret_access_key</text>
</g>
<!-- main/aws_secret_access_key&#45;&gt;main/stage_out_0 -->
<g id="edge9" class="edge">
<title>main/aws_secret_access_key&#45;&gt;main/stage_out_0</title>
<path fill="none" stroke="black" d="M951.77,-334.24C987.22,-295.44 1073.28,-201.24 1114.4,-156.23"/>
<polygon fill="black" stroke="black" points="1117.14,-158.43 1121.3,-148.68 1111.97,-153.7 1117.14,-158.43"/>
</g>
<!-- main/endpoint_url -->
<g id="node11" class="node">
<title>main/endpoint_url</title>
<polygon fill="#94ddf4" stroke="black" points="1064,-334.5 1064,-370.5 1210,-370.5 1210,-334.5 1064,-334.5"/>
<text text-anchor="middle" x="1137" y="-348.8" font-family="Times,serif" font-size="14.00">main/endpoint_url</text>
</g>
<!-- main/endpoint_url&#45;&gt;main/stage_out_0 -->
<g id="edge10" class="edge">
<title>main/endpoint_url&#45;&gt;main/stage_out_0</title>
<path fill="none" stroke="black" d="M1137,-334.24C1137,-296.16 1137,-204.73 1137,-158.8"/>
<polygon fill="black" stroke="black" points="1140.5,-158.68 1137,-148.68 1133.5,-158.68 1140.5,-158.68"/>
</g>
<!-- main/region_name -->
<g id="node12" class="node">
<title>main/region_name</title>
<polygon fill="#94ddf4" stroke="black" points="1228,-334.5 1228,-370.5 1376,-370.5 1376,-334.5 1228,-334.5"/>
<text text-anchor="middle" x="1302" y="-348.8" font-family="Times,serif" font-size="14.00">main/region_name</text>
</g>
<!-- main/region_name&#45;&gt;main/stage_out_0 -->
<g id="edge11" class="edge">
<title>main/region_name&#45;&gt;main/stage_out_0</title>
<path fill="none" stroke="black" d="M1289.05,-334.24C1260.08,-295.6 1189.89,-202.02 1155.97,-156.8"/>
<polygon fill="black" stroke="black" points="1158.69,-154.58 1149.89,-148.68 1153.09,-158.78 1158.69,-154.58"/>
</g>
<!-- main/s3_bucket -->
<g id="node13" class="node">
<title>main/s3_bucket</title>
<polygon fill="#94ddf4" stroke="black" points="1394,-334.5 1394,-370.5 1522,-370.5 1522,-334.5 1394,-334.5"/>
<text text-anchor="middle" x="1458" y="-348.8" font-family="Times,serif" font-size="14.00">main/s3_bucket</text>
</g>
<!-- main/s3_bucket&#45;&gt;main/stage_out_0 -->
<g id="edge12" class="edge">
<title>main/s3_bucket&#45;&gt;main/stage_out_0</title>
<path fill="none" stroke="black" d="M1433.08,-334.42C1375.96,-295.27 1235.54,-199.03 1170.75,-154.63"/>
<polygon fill="black" stroke="black" points="1172.35,-151.49 1162.13,-148.72 1168.4,-157.26 1172.35,-151.49"/>
</g>
<!-- main/sub_path -->
<g id="node14" class="node">
<title>main/sub_path</title>
<polygon fill="#94ddf4" stroke="black" points="1540.5,-334.5 1540.5,-370.5 1661.5,-370.5 1661.5,-334.5 1540.5,-334.5"/>
<text text-anchor="middle" x="1601" y="-348.8" font-family="Times,serif" font-size="14.00">main/sub_path</text>
</g>
<!-- main/sub_path&#45;&gt;main/stage_out_0 -->
<g id="edge13" class="edge">
<title>main/sub_path&#45;&gt;main/stage_out_0</title>
<path fill="none" stroke="black" d="M1578.71,-334.39C1565.31,-324.52 1547.66,-312.28 1531,-303 1415.84,-238.85 1271.96,-181.56 1193.86,-152.21"/>
<polygon fill="black" stroke="black" points="1194.8,-148.83 1184.2,-148.6 1192.34,-155.38 1194.8,-148.83"/>
</g>
</g>
</svg>
