<svg xmlns="http://www.w3.org/2000/svg" width="316" height="124"><rect x="2" y="2" width="312" height="120" fill="rgb(255,255,255)" stroke="rgb(0,0,0)"/><text x="158.0" y="25" fill="rgb(0, 0, 0)" font-family="Arial,sans-serif" font-size="24px" text-anchor="middle" font-weight="bold">dipswitch 1</text><path d="M 2 34 L 314 34" fill="none" stroke="rgb(0, 0, 0)"/><text x="40" y="58" fill="rgb(0, 0, 0)" font-family="Arial,sans-serif" font-size="16px" text-anchor="end">ON</text><text x="40" y="90" fill="rgb(0, 0, 0)" font-family="Arial,sans-serif" font-size="16px" text-anchor="end">OFF</text><rect x="46" y="50" width="24" height="40" fill="rgb(255, 255, 255)" stroke="rgb(0,0,0)"/><rect x="48" y="52" width="20" height="12" fill="#000000" stroke="none" /><text x="58" y="114" fill="rgb(0, 0, 0)" font-family="Arial,sans-serif" font-size="24px" text-anchor="middle" font-weight="bold">1</text><rect x="78" y="50" width="24" height="40" fill="rgb(255, 255, 255)" stroke="rgb(0,0,0)"/><rect x="80" y="76" width="20" height="12" fill="#000000" stroke="none" /><text x="90" y="114" fill="rgb(0, 0, 0)" font-family="Arial,sans-serif" font-size="24px" text-anchor="middle" font-weight="bold">2</text><rect x="110" y="50" width="24" height="40" fill="rgb(255, 255, 255)" stroke="rgb(0,0,0)"/><rect x="112" y="76" width="20" height="12" fill="#000000" stroke="none" /><text x="122" y="114" fill="rgb(0, 0, 0)" font-family="Arial,sans-serif" font-size="24px" text-anchor="middle" font-weight="bold">3</text><rect x="142" y="50" width="24" height="40" fill="rgb(255, 255, 255)" stroke="rgb(0,0,0)"/><rect x="144" y="76" width="20" height="12" fill="#000000" stroke="none" /><text x="154" y="114" fill="rgb(0, 0, 0)" font-family="Arial,sans-serif" font-size="24px" text-anchor="middle" font-weight="bold">4</text><rect x="174" y="50" width="24" height="40" fill="rgb(255, 255, 255)" stroke="rgb(0,0,0)"/><rect x="176" y="76" width="20" height="12" fill="#000000" stroke="none" /><text x="186" y="114" fill="rgb(0, 0, 0)" font-family="Arial,sans-serif" font-size="24px" text-anchor="middle" font-weight="bold">5</text><rect x="206" y="50" width="24" height="40" fill="rgb(255, 255, 255)" stroke="rgb(0,0,0)"/><rect x="208" y="76" width="20" height="12" fill="#000000" stroke="none" /><text x="218" y="114" fill="rgb(0, 0, 0)" font-family="Arial,sans-serif" font-size="24px" text-anchor="middle" font-weight="bold">6</text><rect x="238" y="50" width="24" height="40" fill="rgb(255, 255, 255)" stroke="rgb(0,0,0)"/><rect x="240" y="76" width="20" height="12" fill="#000000" stroke="none" /><text x="250" y="114" fill="rgb(0, 0, 0)" font-family="Arial,sans-serif" font-size="24px" text-anchor="middle" font-weight="bold">7</text><rect x="270" y="50" width="24" height="40" fill="rgb(255, 255, 255)" stroke="rgb(0,0,0)"/><rect x="272" y="76" width="20" height="12" fill="#000000" stroke="none" /><text x="282" y="114" fill="rgb(0, 0, 0)" font-family="Arial,sans-serif" font-size="24px" text-anchor="middle" font-weight="bold">8</text></svg>