<?xml version="1.0" encoding="UTF-8" standalone="no"?>
<!-- Created with Inkscape (http://www.inkscape.org/) -->

<svg
   width="160.00005mm"
   height="50mm"
   viewBox="0 0 160.00005 50"
   version="1.1"
   id="svg5"
   xml:space="preserve"
   xmlns="http://www.w3.org/2000/svg"
   xmlns:svg="http://www.w3.org/2000/svg"><defs
     id="defs2" /><g
     id="g2618"
     transform="translate(-225.62723,-22.211206)"><path
       id="path1317"
       style="fill:#1488ca;fill-opacity:1;fill-rule:evenodd;stroke:none;stroke-width:0.264583px;stroke-linecap:butt;stroke-linejoin:miter;stroke-opacity:1"
       d="m 230.89099,29.172538 c -3.98419,0 -5.2123,3.894839 -5.26376,7.279142 v 25.759668 c 0,5.539989 4.45991,9.999907 9.9999,9.999907 h 140.00024 c 5.53999,0 9.99991,-4.459918 9.99991,-9.999907 V 36.45168 c -0.0515,-3.384303 -1.27957,-7.279142 -5.26376,-7.279142 -3.98418,0 -4.50175,7.279142 -12.45609,7.279142 -7.95414,0 -8.4719,-7.279142 -12.45609,-7.279142 -3.98418,0 -4.50175,7.279142 -12.45608,7.279142 -7.95434,0 -8.4719,-7.279142 -12.45609,-7.279142 -3.98419,0 -4.50195,7.279142 -12.45609,7.279142 -7.95433,0 -8.47189,-7.279142 -12.45609,-7.279142 -3.98417,0 -4.50194,7.279142 -12.45608,7.279142 -7.95435,0 -8.4719,-7.279142 -12.45609,-7.279142 -3.98419,0 -4.50194,7.279142 -12.45609,7.279142 -7.95434,0 -8.47138,-7.279142 -12.45557,-7.279142 -3.98419,0 -4.50194,7.279142 -12.45609,7.279142 -7.95433,0 -8.4719,-7.279142 -12.45608,-7.279142 z" /><g
       id="g2607"
       transform="translate(0.90289978)"><g
         id="g2485"
         transform="matrix(1.2625909,0,0,1.2605877,103.428,-169.68489)"
         style="stroke-width:0.792651"><path
           id="path2481"
           style="fill:#ffcd1c;fill-rule:evenodd;stroke:#000000;stroke-width:0.396326;stroke-linecap:butt;stroke-linejoin:miter;stroke-dasharray:none;stroke-opacity:1"
           d="m 110.95206,158.97754 v 1.54306 c -1.77871,0.77474 -3.19815,2.19418 -3.97289,3.97289 h -1.54305 v 6.12365 h 1.54305 c 0.64629,1.48434 1.74527,2.72638 3.13986,3.54862 0.0389,1.01288 0.003,2.71094 -0.59686,3.48351 -1.33067,1.71272 -8.12734,0.31287 -6.05234,2.38797 l 10.54406,10.54458 10.54457,-10.54458 c 2.07505,-2.07505 -4.72167,-0.67525 -6.05234,-2.38797 -0.60025,-0.77257 -0.63613,-2.47063 -0.59738,-3.48351 1.39459,-0.82224 2.49357,-2.06428 3.13986,-3.54862 h 1.54306 v -6.12365 h -1.53789 c -0.77491,-1.78159 -2.19646,-3.20314 -3.97805,-3.97806 v -1.53789 z" /><circle
           style="color:#000000;overflow:visible;fill:#ffffff;stroke:#000000;stroke-width:0.396326;stroke-linecap:butt;stroke-dasharray:none;stroke-opacity:1;stop-color:#000000"
           id="circle2483"
           cx="114.01395"
           cy="167.55557"
           r="4.1131458" /></g><g
         aria-label="Hydronaut"
         id="text2493"
         style="font-weight:bold;font-size:23.506px;line-height:20.731px;font-family:'Inria Sans';-inkscape-font-specification:'Inria Sans Bold';letter-spacing:0px;word-spacing:0px;overflow:visible;fill:#ffcd1c;stroke-width:0.2;stroke-linecap:round;stop-color:#000000"><path
           d="m 276.41191,59.943268 h 2.82072 V 43.959187 h -2.82072 v 6.534669 h -5.97052 v -6.534669 h -2.82072 v 15.984081 h 2.82072 v -6.746222 h 5.97052 z"
           id="path295" /><path
           d="m 288.11788,61.118568 4.65419,-13.092842 h -2.67968 l -1.951,5.947018 -0.7757,2.515142 -0.79921,-2.515142 -2.04502,-5.947018 h -2.67968 l 4.25458,11.964554 -0.21155,0.540638 c -0.47012,1.198806 -1.36335,1.88048 -3.03227,1.950998 v 2.70319 c 2.7737,0 4.23108,-1.1753 5.26534,-4.066538 z"
           id="path297" /><path
           d="m 301.77487,59.943268 h 2.56216 V 42.548827 h -2.70319 v 5.688453 c -0.79921,-0.282072 -1.59841,-0.446614 -2.39761,-0.446614 -3.26734,0 -5.03029,2.162552 -5.03029,5.570922 v 1.269324 c 0,3.502394 1.48088,5.547416 4.06654,5.547416 1.12829,0 2.04502,-0.399602 3.50239,-1.856974 z m -4.79522,-5.312356 v -1.269324 c 0,-1.950998 0.72869,-3.149804 2.53865,-3.149804 0.65817,0 1.31633,0.141036 2.11554,0.47012 v 5.453392 c -1.1753,1.198806 -1.90399,1.52789 -2.63267,1.52789 -1.29283,0 -2.02152,-0.94024 -2.02152,-3.032274 z"
           id="path299" /><path
           d="m 314.77368,50.493856 v -2.70319 c -1.43387,0 -2.56216,0.564144 -4.16057,2.068528 v -1.833468 h -2.56215 v 11.917542 h 2.70319 v -8.015546 c 1.22231,-0.987252 2.53865,-1.433866 4.01953,-1.433866 z"
           id="path301" /><path
           d="m 326.90275,53.267564 c 0,-3.314346 -1.88048,-5.476898 -5.21833,-5.476898 -3.36136,0 -5.21833,2.162552 -5.21833,5.476898 v 1.41036 c 0,3.337852 1.88048,5.500404 5.21833,5.500404 3.31434,0 5.21833,-2.162552 5.21833,-5.500404 z m -2.77371,0 v 1.41036 c 0,1.903986 -0.86972,3.079286 -2.44462,3.079286 -1.5749,0 -2.44463,-1.1753 -2.44463,-3.079286 v -1.41036 c 0,-1.903986 0.86973,-3.05578 2.44463,-3.05578 1.5749,0 2.44462,1.151794 2.44462,3.05578 z"
           id="path303" /><path
           d="m 335.76453,50.305808 c 1.10478,0 1.62191,0.634662 1.62191,1.974504 v 7.662956 h 2.70319 v -7.99204 c 0,-2.632672 -1.22231,-4.160562 -3.50239,-4.160562 -1.36335,0 -2.60917,0.540638 -4.09005,1.833468 v -1.598408 h -2.56215 v 11.917542 h 2.70319 v -8.250606 c 1.38685,-1.081276 2.32709,-1.386854 3.1263,-1.386854 z"
           id="path305" /><path
           d="m 352.68884,60.060798 h 0.54063 v -2.491636 h -0.25856 c -0.7757,0 -0.98725,-0.517132 -0.98725,-0.987252 v -4.58367 c 0,-2.209564 -0.91674,-4.207574 -4.39563,-4.207574 -1.29283,0 -2.67968,0.305578 -4.30159,0.963746 l 0.77569,2.303588 c 1.26933,-0.540638 2.39762,-0.775698 3.33786,-0.775698 1.22231,0 1.99801,0.399602 1.99801,1.715938 v 1.386854 c -0.89323,-0.164542 -1.76295,-0.282072 -2.58566,-0.282072 -3.1028,0 -4.11355,1.433866 -4.11355,3.502394 0,2.068528 0.96374,3.572912 3.05578,3.572912 1.43386,0 2.63267,-0.58765 3.97251,-1.833468 0.42311,0.963746 1.36335,1.715938 2.96176,1.715938 z m -7.38089,-3.502394 c 0,-0.94024 0.47012,-1.457372 1.69243,-1.457372 0.7757,0 1.57491,0.07052 2.39762,0.211554 v 1.010758 c -1.43387,1.386854 -2.28009,1.598408 -2.98527,1.598408 -0.72868,0 -1.10478,-0.517132 -1.10478,-1.363348 z"
           id="path307" /><path
           d="m 362.67888,59.943268 h 2.56216 V 48.025726 h -2.70319 v 8.274112 c -1.31634,1.05777 -2.18606,1.363348 -2.96176,1.363348 -0.96374,0 -1.45737,-0.634662 -1.45737,-1.974504 v -7.662956 h -2.70319 v 7.99204 c 0,2.632672 1.19881,4.160562 3.33785,4.160562 1.29283,0 2.46813,-0.540638 3.9255,-1.809962 z"
           id="path309" /><path
           d="m 376.12433,59.543666 -0.68168,-2.280082 c -0.72868,0.282072 -1.29283,0.376096 -1.78645,0.376096 -1.03427,0 -1.59841,-0.446614 -1.59841,-1.903986 v -5.359368 h 3.71395 v -2.3506 h -3.71395 v -3.102793 h -2.70319 v 3.102793 h -1.92749 v 2.3506 h 1.92749 v 5.359368 c 0,2.609166 0.98725,4.442634 3.73745,4.442634 1.10478,0 2.20957,-0.258566 3.03228,-0.634662 z"
           id="path311" /></g></g></g></svg>
