<?xml version="1.0" encoding="UTF-8"?>
<!DOCTYPE svg PUBLIC "-//W3C//DTD SVG 1.1//EN" "http://www.w3.org/Graphics/SVG/1.1/DTD/svg11.dtd">
<svg xmlns="http://www.w3.org/2000/svg" xmlns:xlink="http://www.w3.org/1999/xlink" version="1.1" width="200px" height="170px" viewBox="-0.5 -0.5 200 170"><defs/><g><g data-cell-id="0"><g data-cell-id="1"><g data-cell-id="_ZYF3Q6kThyALMyhH_8W-7"><g><rect x="156.03" y="102.53" width="17.36" height="21" fill="#ffffff" stroke="none" transform="translate(0,113.03)scale(1,-1)translate(0,-113.03)rotate(45,164.71,113.03)" pointer-events="all"/></g></g><g data-cell-id="_ZYF3Q6kThyALMyhH_8W-9"><g><rect x="157.03" y="93" width="17.36" height="21" fill="#ffffff" stroke="none" transform="translate(0,103.5)scale(1,-1)translate(0,-103.5)rotate(-45,165.71,103.5)" pointer-events="all"/></g></g><g data-cell-id="_ZYF3Q6kThyALMyhH_8W-6"><g><ellipse cx="157.5" cy="125.39" rx="11.5" ry="11.5" fill="rgb(255, 255, 255)" stroke="none" pointer-events="all"/></g></g><g data-cell-id="_ZYF3Q6kThyALMyhH_8W-4"><g><ellipse cx="178.53" cy="125.5" rx="11.5" ry="11.5" fill="rgb(255, 255, 255)" stroke="none" pointer-events="all"/></g></g><g data-cell-id="_ZYF3Q6kThyALMyhH_8W-5"><g><ellipse cx="178.53" cy="92.37" rx="11.5" ry="11.5" fill="rgb(255, 255, 255)" stroke="none" pointer-events="all"/></g></g><g data-cell-id="_ZYF3Q6kThyALMyhH_8W-2"><g><ellipse cx="22" cy="76.25" rx="11.5" ry="11.5" fill="rgb(255, 255, 255)" stroke="none" pointer-events="all"/></g></g><g data-cell-id="_ZYF3Q6kThyALMyhH_8W-3"><g><ellipse cx="22" cy="44" rx="11.5" ry="11.5" fill="rgb(255, 255, 255)" stroke="none" pointer-events="all"/></g></g><g data-cell-id="_ZYF3Q6kThyALMyhH_8W-1"><g><ellipse cx="21.5" cy="109.89" rx="11.5" ry="11.5" fill="rgb(255, 255, 255)" stroke="none" pointer-events="all"/></g></g><g data-cell-id="DhA2Dp9uSw6Tb2ZT4r6m-2"><g><rect x="140" y="38" width="28" height="72" fill="#ffffff" stroke="none" transform="translate(0,74)scale(1,-1)translate(0,-74)" pointer-events="all"/></g></g><g data-cell-id="DhA2Dp9uSw6Tb2ZT4r6m-1"><g><rect x="21" y="38" width="28" height="93" fill="#ffffff" stroke="none" transform="translate(0,84.5)scale(1,-1)translate(0,-84.5)" pointer-events="all"/></g></g><g data-cell-id="4Dr_QvKWUTDAqhnLbXZK-1"><g><ellipse cx="99" cy="84" rx="75" ry="75" fill="#ffffff" stroke="#ffffff" stroke-width="6" pointer-events="all"/></g></g><g data-cell-id="1UzVV9DMN255XAq8NGfC-1"><g><ellipse cx="99" cy="84" rx="75" ry="75" fill="#f29e56" stroke="#ffffff" stroke-width="0.1" pointer-events="all"/></g></g><g data-cell-id="1UzVV9DMN255XAq8NGfC-2"><g><path d="M 173.86 120.22 L 162.91 108.76" fill="none" stroke="rgb(0, 0, 0)" stroke-width="6" stroke-miterlimit="10" pointer-events="stroke"/></g></g><g data-cell-id="1UzVV9DMN255XAq8NGfC-3"><g><ellipse cx="178.53" cy="125.44" rx="7" ry="7" fill="#0496c9" stroke="rgb(0, 0, 0)" stroke-width="3.5" pointer-events="all"/></g></g><g data-cell-id="1UzVV9DMN255XAq8NGfC-4"><g><path d="M 162.05 109.63 L 173.71 97.45" fill="none" stroke="rgb(0, 0, 0)" stroke-width="6" stroke-miterlimit="10" pointer-events="stroke"/></g></g><g data-cell-id="1UzVV9DMN255XAq8NGfC-5"><g><ellipse cx="178.53" cy="92.37" rx="7" ry="7" fill="#0496c9" stroke="rgb(0, 0, 0)" stroke-width="3.5" pointer-events="all"/></g></g><g data-cell-id="1UzVV9DMN255XAq8NGfC-6"><g><rect x="24" y="122.5" width="58" height="5.5" fill="#000000" stroke="none" transform="translate(0,125.25)scale(1,-1)translate(0,-125.25)" pointer-events="all"/></g></g><g data-cell-id="1UzVV9DMN255XAq8NGfC-7"><g><rect x="24" y="106.5" width="140" height="5.5" fill="#000000" stroke="none" transform="translate(0,109.25)scale(1,-1)translate(0,-109.25)" pointer-events="all"/></g></g><g data-cell-id="1UzVV9DMN255XAq8NGfC-8"><g><rect x="85" y="89.5" width="79" height="5.5" fill="#000000" stroke="none" transform="translate(0,92.25)scale(1,-1)translate(0,-92.25)" pointer-events="all"/></g></g><g data-cell-id="1UzVV9DMN255XAq8NGfC-9"><g><rect x="24" y="73.5" width="140" height="5.5" fill="#000000" stroke="none" transform="translate(0,76.25)scale(1,-1)translate(0,-76.25)" pointer-events="all"/></g></g><g data-cell-id="1UzVV9DMN255XAq8NGfC-10"><g><rect x="24" y="56.5" width="140" height="5.5" fill="#000000" stroke="none" transform="translate(0,59.25)scale(1,-1)translate(0,-59.25)" pointer-events="all"/></g></g><g data-cell-id="1UzVV9DMN255XAq8NGfC-11"><g><rect x="125" y="40.5" width="39" height="5.5" fill="#000000" stroke="none" transform="translate(0,43.25)scale(1,-1)translate(0,-43.25)" pointer-events="all"/></g></g><g data-cell-id="1UzVV9DMN255XAq8NGfC-12"><g><rect x="128" y="122.5" width="36" height="6" fill="#000000" stroke="none" transform="translate(0,125.5)scale(1,-1)translate(0,-125.5)" pointer-events="all"/></g></g><g data-cell-id="1UzVV9DMN255XAq8NGfC-13"><g><rect x="24" y="40.5" width="58" height="5.5" fill="#000000" stroke="none" transform="translate(0,43.25)scale(1,-1)translate(0,-43.25)" pointer-events="all"/></g></g><g data-cell-id="1UzVV9DMN255XAq8NGfC-14"><g/><g data-cell-id="1UzVV9DMN255XAq8NGfC-15"><g><ellipse cx="103.5" cy="28.77" rx="16.775" ry="16.775" fill="#f29d56" stroke="rgb(0, 0, 0)" stroke-width="3" pointer-events="all"/></g></g><g data-cell-id="1UzVV9DMN255XAq8NGfC-16"><g><path d="M 95.49 39.45 C 95.49 30.91 95.49 26.64 103.5 26.64 C 98.16 26.64 98.16 18.1 103.5 18.1 C 108.84 18.1 108.84 26.64 103.5 26.64 C 111.51 26.64 111.51 30.91 111.51 39.45 Z" fill="#000000" stroke="none" pointer-events="all"/></g></g><g data-cell-id="1UzVV9DMN255XAq8NGfC-17"><g><ellipse cx="103.5" cy="39.5" rx="16.775" ry="16.775" fill="#45cac3" stroke="rgb(0, 0, 0)" stroke-width="3" pointer-events="all"/></g></g><g data-cell-id="1UzVV9DMN255XAq8NGfC-18"><g><path d="M 95.49 50.18 C 95.49 41.64 95.49 37.37 103.5 37.37 C 98.16 37.37 98.16 28.83 103.5 28.83 C 108.84 28.83 108.84 37.37 103.5 37.37 C 111.51 37.37 111.51 41.64 111.51 50.18 Z" fill="#000000" stroke="none" pointer-events="all"/></g></g><g data-cell-id="1UzVV9DMN255XAq8NGfC-19"><g><ellipse cx="103.5" cy="51.23" rx="16.775" ry="16.775" fill="#038cbb" stroke="rgb(0, 0, 0)" stroke-width="3" pointer-events="all"/></g></g><g data-cell-id="1UzVV9DMN255XAq8NGfC-20"><g><path d="M 95.49 61.9 C 95.49 53.36 95.49 49.09 103.5 49.09 C 98.16 49.09 98.16 40.55 103.5 40.55 C 108.84 40.55 108.84 49.09 103.5 49.09 C 111.51 49.09 111.51 53.36 111.51 61.9 Z" fill="#000000" stroke="none" pointer-events="all"/></g></g></g><g data-cell-id="1UzVV9DMN255XAq8NGfC-21"><g/><g data-cell-id="1UzVV9DMN255XAq8NGfC-22"><g><ellipse cx="62.5" cy="75.89" rx="16.775" ry="16.775" fill="#008dbb" stroke="rgb(0, 0, 0)" stroke-width="3" pointer-events="all"/></g></g><g data-cell-id="1UzVV9DMN255XAq8NGfC-23"><g><path d="M 51 71.55 L 59.81 71.55 L 62.5 63.12 L 65.19 71.55 L 74 71.55 L 66.98 77.2 L 69.76 86.12 L 62.5 80.6 L 55.24 86.12 L 58.02 77.2 Z" fill="none" stroke="rgb(0, 0, 0)" stroke-width="3" stroke-miterlimit="10" pointer-events="all"/></g></g><g data-cell-id="1UzVV9DMN255XAq8NGfC-24"><g><ellipse cx="62.5" cy="86.62" rx="16.775" ry="16.775" fill="#f29e56" stroke="rgb(0, 0, 0)" stroke-width="3" pointer-events="all"/></g></g><g data-cell-id="1UzVV9DMN255XAq8NGfC-25"><g><path d="M 51 82.55 L 59.81 82.55 L 62.5 74.12 L 65.19 82.55 L 74 82.55 L 66.98 88.2 L 69.76 97.12 L 62.5 91.6 L 55.24 97.12 L 58.02 88.2 Z" fill="none" stroke="rgb(0, 0, 0)" stroke-width="3" stroke-miterlimit="10" pointer-events="all"/></g></g><g data-cell-id="1UzVV9DMN255XAq8NGfC-26"><g><ellipse cx="62.5" cy="98.35" rx="16.775" ry="16.775" fill="#45cac3" stroke="rgb(0, 0, 0)" stroke-width="3" pointer-events="all"/></g></g><g data-cell-id="1UzVV9DMN255XAq8NGfC-27"><g><path d="M 51 94.55 L 59.81 94.55 L 62.5 86.12 L 65.19 94.55 L 74 94.55 L 66.98 100.2 L 69.76 109.12 L 62.5 103.6 L 55.24 109.12 L 58.02 100.2 Z" fill="none" stroke="rgb(0, 0, 0)" stroke-width="3" stroke-miterlimit="10" pointer-events="all"/></g></g></g><g data-cell-id="1UzVV9DMN255XAq8NGfC-28"><g><rect x="24" y="89.5" width="16" height="5.5" fill="#000000" stroke="none" transform="translate(0,92.25)scale(1,-1)translate(0,-92.25)" pointer-events="all"/></g></g><g data-cell-id="1UzVV9DMN255XAq8NGfC-29"><g><ellipse cx="105.23" cy="119.77" rx="16.775" ry="16.775" fill="#008dbb" stroke="rgb(0, 0, 0)" stroke-width="3" pointer-events="all"/></g></g><g data-cell-id="1UzVV9DMN255XAq8NGfC-30"><g/><g data-cell-id="1UzVV9DMN255XAq8NGfC-31"><g><rect x="96" y="116.63" width="18" height="14" fill="#000000" stroke="none" pointer-events="all"/></g></g><g data-cell-id="1UzVV9DMN255XAq8NGfC-32"><g><path d="M 99 109 Q 111 109 111 115 Q 111 121 99 121 Z" fill="none" stroke="rgb(0, 0, 0)" stroke-width="3" stroke-miterlimit="10" transform="rotate(-90,105,115)" pointer-events="all"/></g></g></g><g data-cell-id="1UzVV9DMN255XAq8NGfC-33"><g><rect x="133.56" y="27" width="10" height="113" fill="#000000" stroke="#f29e56" stroke-width="4" pointer-events="all"/></g></g><g data-cell-id="1UzVV9DMN255XAq8NGfC-34"><g><ellipse cx="105.23" cy="130.5" rx="16.775" ry="16.775" fill="#45cac3" stroke="rgb(0, 0, 0)" stroke-width="3" pointer-events="all"/></g></g><g data-cell-id="1UzVV9DMN255XAq8NGfC-35"><g/><g data-cell-id="1UzVV9DMN255XAq8NGfC-36"><g><rect x="96.23" y="127.03" width="18" height="14" fill="#000000" stroke="none" pointer-events="all"/></g></g><g data-cell-id="1UzVV9DMN255XAq8NGfC-37"><g><path d="M 99.23 119.4 Q 111.23 119.4 111.23 125.4 Q 111.23 131.4 99.23 131.4 Z" fill="none" stroke="rgb(0, 0, 0)" stroke-width="3" stroke-miterlimit="10" transform="rotate(-90,105.23,125.4)" pointer-events="all"/></g></g></g><g data-cell-id="1UzVV9DMN255XAq8NGfC-38"><g><ellipse cx="22" cy="109.89" rx="7" ry="7" fill="#46cbc4" stroke="rgb(0, 0, 0)" stroke-width="3.5" pointer-events="all"/></g></g><g data-cell-id="1UzVV9DMN255XAq8NGfC-39"><g><ellipse cx="22" cy="76.37" rx="7" ry="7" fill="#46cbc4" stroke="rgb(0, 0, 0)" stroke-width="3.5" pointer-events="all"/></g></g><g data-cell-id="1UzVV9DMN255XAq8NGfC-40"><g><ellipse cx="22" cy="44" rx="7" ry="7" fill="#008dbb" stroke="rgb(0, 0, 0)" stroke-width="3.5" pointer-events="all"/></g></g><g data-cell-id="1UzVV9DMN255XAq8NGfC-41"><g><ellipse cx="158.53" cy="92.37" rx="7" ry="7" fill="#46cbc4" stroke="rgb(0, 0, 0)" stroke-width="3.5" pointer-events="all"/></g></g><g data-cell-id="1UzVV9DMN255XAq8NGfC-42"><g><ellipse cx="157.81" cy="124.89" rx="7" ry="7" fill="#f29e56" stroke="rgb(0, 0, 0)" stroke-width="3.5" pointer-events="all"/></g></g><g data-cell-id="1UzVV9DMN255XAq8NGfC-43"><g><ellipse cx="158.84" cy="59" rx="7" ry="7" fill="#0496c9" stroke="rgb(0, 0, 0)" stroke-width="3.5" pointer-events="all"/></g></g></g></g></g></svg>